<mxfile host="app.diagrams.net" modified="2024-07-16T23:52:13.739Z" agent="Mozilla/5.0 (Windows NT 10.0; Win64; x64) AppleWebKit/537.36 (KHTML, like Gecko) Chrome/126.0.0.0 Safari/537.36" etag="PGEtAMz_YFYf0MCXxPLP" version="24.6.5" type="device">
  <diagram name="Page-1" id="H4Ir4FA7PkI9YOejA4DZ">
    <mxGraphModel dx="788" dy="869" grid="1" gridSize="10" guides="1" tooltips="1" connect="1" arrows="1" fold="1" page="1" pageScale="1" pageWidth="827" pageHeight="1169" math="0" shadow="0">
      <root>
        <mxCell id="0" />
        <mxCell id="1" parent="0" />
        <mxCell id="WggwmU2v6ihtmMsBgbvI-1" value="&lt;b&gt;Course&lt;/b&gt;" style="rounded=0;whiteSpace=wrap;html=1;fillColor=#fff2cc;strokeColor=#d6b656;" parent="1" vertex="1">
          <mxGeometry x="920" y="360" width="120" height="40" as="geometry" />
        </mxCell>
        <mxCell id="WggwmU2v6ihtmMsBgbvI-2" value="course-name" style="ellipse;whiteSpace=wrap;html=1;fillColor=#d5e8d4;strokeColor=#82b366;" parent="1" vertex="1">
          <mxGeometry x="1075" y="385" width="90" height="30" as="geometry" />
        </mxCell>
        <mxCell id="WggwmU2v6ihtmMsBgbvI-3" value="min-degree" style="ellipse;whiteSpace=wrap;html=1;fillColor=#d5e8d4;strokeColor=#82b366;" parent="1" vertex="1">
          <mxGeometry x="840" y="320" width="90" height="30" as="geometry" />
        </mxCell>
        <mxCell id="WggwmU2v6ihtmMsBgbvI-4" value="max-degree" style="ellipse;whiteSpace=wrap;html=1;fillColor=#d5e8d4;strokeColor=#82b366;" parent="1" vertex="1">
          <mxGeometry x="1070" y="420" width="90" height="30" as="geometry" />
        </mxCell>
        <mxCell id="WggwmU2v6ihtmMsBgbvI-5" value="description" style="ellipse;whiteSpace=wrap;html=1;fillColor=#d5e8d4;strokeColor=#82b366;" parent="1" vertex="1">
          <mxGeometry x="1080" y="340" width="90" height="30" as="geometry" />
        </mxCell>
        <mxCell id="GdlQhDkwiyZ--6wiS9G9-123" style="edgeStyle=orthogonalEdgeStyle;rounded=0;orthogonalLoop=1;jettySize=auto;html=1;entryX=1;entryY=0.5;entryDx=0;entryDy=0;" parent="1" source="GdlQhDkwiyZ--6wiS9G9-119" target="j4Dh2sjCp8QDIXTv8ryV-36" edge="1">
          <mxGeometry relative="1" as="geometry">
            <Array as="points">
              <mxPoint x="2090" y="1955" />
              <mxPoint x="2090" y="1805" />
            </Array>
          </mxGeometry>
        </mxCell>
        <mxCell id="WggwmU2v6ihtmMsBgbvI-6" value="&lt;u&gt;course-id&lt;/u&gt;" style="ellipse;whiteSpace=wrap;html=1;fillColor=#d5e8d4;strokeColor=#82b366;" parent="1" vertex="1">
          <mxGeometry x="850" y="410" width="90" height="30" as="geometry" />
        </mxCell>
        <mxCell id="WggwmU2v6ihtmMsBgbvI-8" value="" style="endArrow=none;html=1;rounded=0;exitX=0.25;exitY=1;exitDx=0;exitDy=0;entryX=1;entryY=0;entryDx=0;entryDy=0;" parent="1" source="WggwmU2v6ihtmMsBgbvI-1" target="WggwmU2v6ihtmMsBgbvI-6" edge="1">
          <mxGeometry width="50" height="50" relative="1" as="geometry">
            <mxPoint x="870" y="390" as="sourcePoint" />
            <mxPoint x="920" y="340" as="targetPoint" />
          </mxGeometry>
        </mxCell>
        <mxCell id="WggwmU2v6ihtmMsBgbvI-9" value="" style="endArrow=none;html=1;rounded=0;exitX=0.75;exitY=1;exitDx=0;exitDy=0;entryX=0;entryY=0.5;entryDx=0;entryDy=0;" parent="1" source="WggwmU2v6ihtmMsBgbvI-1" target="WggwmU2v6ihtmMsBgbvI-4" edge="1">
          <mxGeometry width="50" height="50" relative="1" as="geometry">
            <mxPoint x="970" y="480" as="sourcePoint" />
            <mxPoint x="1020" y="430" as="targetPoint" />
          </mxGeometry>
        </mxCell>
        <mxCell id="WggwmU2v6ihtmMsBgbvI-10" value="" style="endArrow=none;html=1;rounded=0;exitX=1;exitY=0.5;exitDx=0;exitDy=0;entryX=0;entryY=0;entryDx=0;entryDy=0;" parent="1" source="WggwmU2v6ihtmMsBgbvI-1" target="WggwmU2v6ihtmMsBgbvI-2" edge="1">
          <mxGeometry width="50" height="50" relative="1" as="geometry">
            <mxPoint x="980" y="430" as="sourcePoint" />
            <mxPoint x="1042.3321292242304" y="375.3161697186641" as="targetPoint" />
          </mxGeometry>
        </mxCell>
        <mxCell id="WggwmU2v6ihtmMsBgbvI-11" value="" style="endArrow=none;html=1;rounded=0;exitX=1;exitY=0;exitDx=0;exitDy=0;entryX=0;entryY=0.5;entryDx=0;entryDy=0;" parent="1" source="WggwmU2v6ihtmMsBgbvI-1" target="WggwmU2v6ihtmMsBgbvI-5" edge="1">
          <mxGeometry width="50" height="50" relative="1" as="geometry">
            <mxPoint x="950" y="390" as="sourcePoint" />
            <mxPoint x="1000" y="340" as="targetPoint" />
          </mxGeometry>
        </mxCell>
        <mxCell id="WggwmU2v6ihtmMsBgbvI-12" value="" style="endArrow=none;html=1;rounded=0;exitX=0;exitY=0;exitDx=0;exitDy=0;entryX=0.5;entryY=1;entryDx=0;entryDy=0;" parent="1" source="WggwmU2v6ihtmMsBgbvI-1" target="WggwmU2v6ihtmMsBgbvI-3" edge="1">
          <mxGeometry width="50" height="50" relative="1" as="geometry">
            <mxPoint x="770" y="390" as="sourcePoint" />
            <mxPoint x="820" y="340" as="targetPoint" />
          </mxGeometry>
        </mxCell>
        <mxCell id="WggwmU2v6ihtmMsBgbvI-13" value="&lt;b&gt;Exam&lt;/b&gt;" style="rounded=0;whiteSpace=wrap;html=1;fillColor=#fff2cc;strokeColor=#d6b656;" parent="1" vertex="1">
          <mxGeometry x="1555" y="800" width="120" height="40" as="geometry" />
        </mxCell>
        <mxCell id="WggwmU2v6ihtmMsBgbvI-14" value="end-time" style="ellipse;whiteSpace=wrap;html=1;fillColor=#d5e8d4;strokeColor=#82b366;" parent="1" vertex="1">
          <mxGeometry x="1455" y="840" width="80" height="30" as="geometry" />
        </mxCell>
        <mxCell id="WggwmU2v6ihtmMsBgbvI-15" value="start-time" style="ellipse;whiteSpace=wrap;html=1;fillColor=#d5e8d4;strokeColor=#82b366;" parent="1" vertex="1">
          <mxGeometry x="1445" y="750" width="90" height="30" as="geometry" />
        </mxCell>
        <mxCell id="WggwmU2v6ihtmMsBgbvI-16" value="total-time" style="ellipse;whiteSpace=wrap;html=1;fillColor=#d5e8d4;strokeColor=#82b366;dashed=1;" parent="1" vertex="1">
          <mxGeometry x="1440" y="880" width="90" height="30" as="geometry" />
        </mxCell>
        <mxCell id="WggwmU2v6ihtmMsBgbvI-17" value="allowance-option" style="ellipse;whiteSpace=wrap;html=1;fillColor=#d5e8d4;strokeColor=#82b366;" parent="1" vertex="1">
          <mxGeometry x="1659" y="710" width="100" height="30" as="geometry" />
        </mxCell>
        <mxCell id="WggwmU2v6ihtmMsBgbvI-18" value="&lt;u&gt;exam-id&lt;/u&gt;" style="ellipse;whiteSpace=wrap;html=1;fillColor=#d5e8d4;strokeColor=#82b366;" parent="1" vertex="1">
          <mxGeometry x="1475" y="710" width="90" height="30" as="geometry" />
        </mxCell>
        <mxCell id="WggwmU2v6ihtmMsBgbvI-19" value="" style="endArrow=none;html=1;rounded=0;exitX=0.25;exitY=0;exitDx=0;exitDy=0;entryX=0.5;entryY=1;entryDx=0;entryDy=0;" parent="1" source="WggwmU2v6ihtmMsBgbvI-13" target="WggwmU2v6ihtmMsBgbvI-18" edge="1">
          <mxGeometry width="50" height="50" relative="1" as="geometry">
            <mxPoint x="1545" y="830" as="sourcePoint" />
            <mxPoint x="1595" y="780" as="targetPoint" />
          </mxGeometry>
        </mxCell>
        <mxCell id="WggwmU2v6ihtmMsBgbvI-20" value="" style="endArrow=none;html=1;rounded=0;exitX=1;exitY=0.5;exitDx=0;exitDy=0;entryX=0;entryY=1;entryDx=0;entryDy=0;" parent="1" source="WggwmU2v6ihtmMsBgbvI-16" target="WggwmU2v6ihtmMsBgbvI-13" edge="1">
          <mxGeometry width="50" height="50" relative="1" as="geometry">
            <mxPoint x="1535" y="860" as="sourcePoint" />
            <mxPoint x="1585" y="890" as="targetPoint" />
          </mxGeometry>
        </mxCell>
        <mxCell id="WggwmU2v6ihtmMsBgbvI-22" value="" style="endArrow=none;html=1;rounded=0;exitX=0.75;exitY=0;exitDx=0;exitDy=0;entryX=0.5;entryY=1;entryDx=0;entryDy=0;" parent="1" source="WggwmU2v6ihtmMsBgbvI-13" target="WggwmU2v6ihtmMsBgbvI-17" edge="1">
          <mxGeometry width="50" height="50" relative="1" as="geometry">
            <mxPoint x="1625" y="830" as="sourcePoint" />
            <mxPoint x="1675" y="780" as="targetPoint" />
          </mxGeometry>
        </mxCell>
        <mxCell id="WggwmU2v6ihtmMsBgbvI-23" value="" style="endArrow=none;html=1;rounded=0;exitX=0;exitY=0;exitDx=0;exitDy=0;" parent="1" source="WggwmU2v6ihtmMsBgbvI-13" edge="1">
          <mxGeometry width="50" height="50" relative="1" as="geometry">
            <mxPoint x="1445" y="830" as="sourcePoint" />
            <mxPoint x="1495" y="780" as="targetPoint" />
          </mxGeometry>
        </mxCell>
        <mxCell id="WggwmU2v6ihtmMsBgbvI-24" value="" style="endArrow=none;html=1;rounded=0;exitX=1;exitY=0.5;exitDx=0;exitDy=0;" parent="1" source="WggwmU2v6ihtmMsBgbvI-14" edge="1">
          <mxGeometry width="50" height="50" relative="1" as="geometry">
            <mxPoint x="1505" y="870" as="sourcePoint" />
            <mxPoint x="1555" y="820" as="targetPoint" />
          </mxGeometry>
        </mxCell>
        <mxCell id="WggwmU2v6ihtmMsBgbvI-25" value="number-question" style="ellipse;whiteSpace=wrap;html=1;fillColor=#d5e8d4;strokeColor=#82b366;" parent="1" vertex="1">
          <mxGeometry x="1615" y="880" width="100" height="30" as="geometry" />
        </mxCell>
        <mxCell id="WggwmU2v6ihtmMsBgbvI-26" value="" style="endArrow=none;html=1;rounded=0;exitX=0.5;exitY=0;exitDx=0;exitDy=0;entryX=0.75;entryY=1;entryDx=0;entryDy=0;" parent="1" source="WggwmU2v6ihtmMsBgbvI-25" target="WggwmU2v6ihtmMsBgbvI-13" edge="1">
          <mxGeometry width="50" height="50" relative="1" as="geometry">
            <mxPoint x="1555" y="890" as="sourcePoint" />
            <mxPoint x="1605" y="840" as="targetPoint" />
          </mxGeometry>
        </mxCell>
        <mxCell id="WggwmU2v6ihtmMsBgbvI-27" value="date" style="ellipse;whiteSpace=wrap;html=1;fillColor=#d5e8d4;strokeColor=#82b366;" parent="1" vertex="1">
          <mxGeometry x="1675" y="860" width="70" height="20" as="geometry" />
        </mxCell>
        <mxCell id="WggwmU2v6ihtmMsBgbvI-28" value="" style="endArrow=none;html=1;rounded=0;exitX=0.5;exitY=0;exitDx=0;exitDy=0;entryX=1;entryY=1;entryDx=0;entryDy=0;" parent="1" source="WggwmU2v6ihtmMsBgbvI-27" target="WggwmU2v6ihtmMsBgbvI-13" edge="1">
          <mxGeometry width="50" height="50" relative="1" as="geometry">
            <mxPoint x="1585" y="890" as="sourcePoint" />
            <mxPoint x="1635" y="840" as="targetPoint" />
          </mxGeometry>
        </mxCell>
        <mxCell id="WggwmU2v6ihtmMsBgbvI-29" value="type" style="ellipse;whiteSpace=wrap;html=1;fillColor=#d5e8d4;strokeColor=#82b366;" parent="1" vertex="1">
          <mxGeometry x="1715" y="745" width="70" height="20" as="geometry" />
        </mxCell>
        <mxCell id="WggwmU2v6ihtmMsBgbvI-32" value="" style="endArrow=none;html=1;rounded=0;exitX=1;exitY=0;exitDx=0;exitDy=0;entryX=0.343;entryY=0.943;entryDx=0;entryDy=0;entryPerimeter=0;" parent="1" source="WggwmU2v6ihtmMsBgbvI-13" target="WggwmU2v6ihtmMsBgbvI-29" edge="1">
          <mxGeometry width="50" height="50" relative="1" as="geometry">
            <mxPoint x="1665" y="845" as="sourcePoint" />
            <mxPoint x="1715" y="795" as="targetPoint" />
          </mxGeometry>
        </mxCell>
        <mxCell id="WggwmU2v6ihtmMsBgbvI-33" value="&lt;b&gt;Branch&lt;/b&gt;" style="rounded=0;whiteSpace=wrap;html=1;fillColor=#fff2cc;strokeColor=#d6b656;" parent="1" vertex="1">
          <mxGeometry x="2200" y="320" width="120" height="40" as="geometry" />
        </mxCell>
        <mxCell id="WggwmU2v6ihtmMsBgbvI-34" value="branch-name" style="ellipse;whiteSpace=wrap;html=1;fillColor=#d5e8d4;strokeColor=#82b366;" parent="1" vertex="1">
          <mxGeometry x="2350" y="320" width="90" height="30" as="geometry" />
        </mxCell>
        <mxCell id="WggwmU2v6ihtmMsBgbvI-36" value="city" style="ellipse;whiteSpace=wrap;html=1;fillColor=#d5e8d4;strokeColor=#82b366;" parent="1" vertex="1">
          <mxGeometry x="2340" y="370" width="90" height="30" as="geometry" />
        </mxCell>
        <mxCell id="WggwmU2v6ihtmMsBgbvI-38" value="&lt;u&gt;branch-id&lt;/u&gt;" style="ellipse;whiteSpace=wrap;html=1;fillColor=#d5e8d4;strokeColor=#82b366;" parent="1" vertex="1">
          <mxGeometry x="2310" y="270" width="90" height="30" as="geometry" />
        </mxCell>
        <mxCell id="WggwmU2v6ihtmMsBgbvI-40" value="" style="endArrow=none;html=1;rounded=0;exitX=0.75;exitY=1;exitDx=0;exitDy=0;entryX=0;entryY=0.5;entryDx=0;entryDy=0;" parent="1" source="WggwmU2v6ihtmMsBgbvI-33" target="WggwmU2v6ihtmMsBgbvI-36" edge="1">
          <mxGeometry width="50" height="50" relative="1" as="geometry">
            <mxPoint x="2290" y="440" as="sourcePoint" />
            <mxPoint x="2340" y="390" as="targetPoint" />
          </mxGeometry>
        </mxCell>
        <mxCell id="WggwmU2v6ihtmMsBgbvI-41" value="" style="endArrow=none;html=1;rounded=0;exitX=1;exitY=0.5;exitDx=0;exitDy=0;entryX=0;entryY=0.5;entryDx=0;entryDy=0;" parent="1" source="WggwmU2v6ihtmMsBgbvI-33" target="WggwmU2v6ihtmMsBgbvI-34" edge="1">
          <mxGeometry width="50" height="50" relative="1" as="geometry">
            <mxPoint x="2300" y="390" as="sourcePoint" />
            <mxPoint x="2350" y="340" as="targetPoint" />
          </mxGeometry>
        </mxCell>
        <mxCell id="WggwmU2v6ihtmMsBgbvI-42" value="" style="endArrow=none;html=1;rounded=0;exitX=0.75;exitY=0;exitDx=0;exitDy=0;entryX=0;entryY=1;entryDx=0;entryDy=0;" parent="1" source="WggwmU2v6ihtmMsBgbvI-33" target="WggwmU2v6ihtmMsBgbvI-38" edge="1">
          <mxGeometry width="50" height="50" relative="1" as="geometry">
            <mxPoint x="2270" y="350" as="sourcePoint" />
            <mxPoint x="2320" y="300" as="targetPoint" />
          </mxGeometry>
        </mxCell>
        <mxCell id="WggwmU2v6ihtmMsBgbvI-45" value="&lt;b&gt;Department&lt;/b&gt;" style="rounded=0;whiteSpace=wrap;html=1;fillColor=#fff2cc;strokeColor=#d6b656;" parent="1" vertex="1">
          <mxGeometry x="1880" y="762.5" width="120" height="40" as="geometry" />
        </mxCell>
        <mxCell id="WggwmU2v6ihtmMsBgbvI-46" value="department-name" style="ellipse;whiteSpace=wrap;html=1;fillColor=#d5e8d4;strokeColor=#82b366;" parent="1" vertex="1">
          <mxGeometry x="1900" y="822.5" width="110" height="30" as="geometry" />
        </mxCell>
        <mxCell id="WggwmU2v6ihtmMsBgbvI-48" value="&lt;u&gt;department-id&lt;/u&gt;" style="ellipse;whiteSpace=wrap;html=1;fillColor=#d5e8d4;strokeColor=#82b366;" parent="1" vertex="1">
          <mxGeometry x="1910" y="707.5" width="90" height="30" as="geometry" />
        </mxCell>
        <mxCell id="WggwmU2v6ihtmMsBgbvI-50" value="" style="endArrow=none;html=1;rounded=0;exitX=0.5;exitY=1;exitDx=0;exitDy=0;entryX=0;entryY=0;entryDx=0;entryDy=0;" parent="1" source="WggwmU2v6ihtmMsBgbvI-45" target="WggwmU2v6ihtmMsBgbvI-46" edge="1">
          <mxGeometry width="50" height="50" relative="1" as="geometry">
            <mxPoint x="2361" y="932.5" as="sourcePoint" />
            <mxPoint x="2411" y="882.5" as="targetPoint" />
          </mxGeometry>
        </mxCell>
        <mxCell id="WggwmU2v6ihtmMsBgbvI-51" value="" style="endArrow=none;html=1;rounded=0;exitX=0.5;exitY=0;exitDx=0;exitDy=0;entryX=0;entryY=1;entryDx=0;entryDy=0;" parent="1" source="WggwmU2v6ihtmMsBgbvI-45" target="WggwmU2v6ihtmMsBgbvI-48" edge="1">
          <mxGeometry width="50" height="50" relative="1" as="geometry">
            <mxPoint x="2331" y="892.5" as="sourcePoint" />
            <mxPoint x="2381" y="842.5" as="targetPoint" />
          </mxGeometry>
        </mxCell>
        <mxCell id="WggwmU2v6ihtmMsBgbvI-52" value="&lt;b&gt;Track&lt;/b&gt;" style="rounded=0;whiteSpace=wrap;html=1;fillColor=#fff2cc;strokeColor=#d6b656;" parent="1" vertex="1">
          <mxGeometry x="2160" y="760" width="120" height="40" as="geometry" />
        </mxCell>
        <mxCell id="WggwmU2v6ihtmMsBgbvI-53" value="track-name" style="ellipse;whiteSpace=wrap;html=1;fillColor=#d5e8d4;strokeColor=#82b366;" parent="1" vertex="1">
          <mxGeometry x="2290" y="795" width="110" height="30" as="geometry" />
        </mxCell>
        <mxCell id="WggwmU2v6ihtmMsBgbvI-54" value="&lt;u&gt;track-id&lt;/u&gt;" style="ellipse;whiteSpace=wrap;html=1;fillColor=#d5e8d4;strokeColor=#82b366;" parent="1" vertex="1">
          <mxGeometry x="2310" y="740" width="90" height="30" as="geometry" />
        </mxCell>
        <mxCell id="WggwmU2v6ihtmMsBgbvI-55" value="" style="endArrow=none;html=1;rounded=0;exitX=1;exitY=0.5;exitDx=0;exitDy=0;entryX=0.5;entryY=0;entryDx=0;entryDy=0;" parent="1" source="WggwmU2v6ihtmMsBgbvI-52" target="WggwmU2v6ihtmMsBgbvI-53" edge="1">
          <mxGeometry width="50" height="50" relative="1" as="geometry">
            <mxPoint x="2235" y="830" as="sourcePoint" />
            <mxPoint x="2285" y="780" as="targetPoint" />
          </mxGeometry>
        </mxCell>
        <mxCell id="WggwmU2v6ihtmMsBgbvI-56" value="" style="endArrow=none;html=1;rounded=0;entryX=0;entryY=0.5;entryDx=0;entryDy=0;" parent="1" target="WggwmU2v6ihtmMsBgbvI-54" edge="1">
          <mxGeometry width="50" height="50" relative="1" as="geometry">
            <mxPoint x="2280" y="760" as="sourcePoint" />
            <mxPoint x="2255" y="740" as="targetPoint" />
          </mxGeometry>
        </mxCell>
        <mxCell id="WggwmU2v6ihtmMsBgbvI-57" value="&lt;b&gt;Intake&lt;/b&gt;" style="rounded=0;whiteSpace=wrap;html=1;fillColor=#fff2cc;strokeColor=#d6b656;" parent="1" vertex="1">
          <mxGeometry x="2200" y="560" width="120" height="40" as="geometry" />
        </mxCell>
        <mxCell id="WggwmU2v6ihtmMsBgbvI-58" value="end-date" style="ellipse;whiteSpace=wrap;html=1;fillColor=#d5e8d4;strokeColor=#82b366;" parent="1" vertex="1">
          <mxGeometry x="2340" y="560" width="80" height="30" as="geometry" />
        </mxCell>
        <mxCell id="WggwmU2v6ihtmMsBgbvI-59" value="start-date" style="ellipse;whiteSpace=wrap;html=1;fillColor=#d5e8d4;strokeColor=#82b366;" parent="1" vertex="1">
          <mxGeometry x="2330" y="520" width="90" height="30" as="geometry" />
        </mxCell>
        <mxCell id="WggwmU2v6ihtmMsBgbvI-61" value="intake-name" style="ellipse;whiteSpace=wrap;html=1;fillColor=#d5e8d4;strokeColor=#82b366;" parent="1" vertex="1">
          <mxGeometry x="2320" y="600" width="100" height="30" as="geometry" />
        </mxCell>
        <mxCell id="WggwmU2v6ihtmMsBgbvI-62" value="&lt;u&gt;intake-id&lt;/u&gt;" style="ellipse;whiteSpace=wrap;html=1;fillColor=#d5e8d4;strokeColor=#82b366;" parent="1" vertex="1">
          <mxGeometry x="2250" y="500" width="90" height="30" as="geometry" />
        </mxCell>
        <mxCell id="WggwmU2v6ihtmMsBgbvI-63" value="" style="endArrow=none;html=1;rounded=0;exitX=0.5;exitY=0;exitDx=0;exitDy=0;entryX=0.5;entryY=1;entryDx=0;entryDy=0;" parent="1" source="WggwmU2v6ihtmMsBgbvI-57" target="WggwmU2v6ihtmMsBgbvI-62" edge="1">
          <mxGeometry width="50" height="50" relative="1" as="geometry">
            <mxPoint x="2190" y="590" as="sourcePoint" />
            <mxPoint x="2240" y="540" as="targetPoint" />
          </mxGeometry>
        </mxCell>
        <mxCell id="WggwmU2v6ihtmMsBgbvI-65" value="" style="endArrow=none;html=1;rounded=0;exitX=1;exitY=1;exitDx=0;exitDy=0;entryX=0;entryY=0;entryDx=0;entryDy=0;" parent="1" source="WggwmU2v6ihtmMsBgbvI-57" target="WggwmU2v6ihtmMsBgbvI-61" edge="1">
          <mxGeometry width="50" height="50" relative="1" as="geometry">
            <mxPoint x="2270" y="590" as="sourcePoint" />
            <mxPoint x="2320" y="540" as="targetPoint" />
          </mxGeometry>
        </mxCell>
        <mxCell id="WggwmU2v6ihtmMsBgbvI-66" value="" style="endArrow=none;html=1;rounded=0;exitX=1;exitY=0;exitDx=0;exitDy=0;entryX=0.5;entryY=1;entryDx=0;entryDy=0;" parent="1" source="WggwmU2v6ihtmMsBgbvI-57" target="WggwmU2v6ihtmMsBgbvI-59" edge="1">
          <mxGeometry width="50" height="50" relative="1" as="geometry">
            <mxPoint x="2090" y="590" as="sourcePoint" />
            <mxPoint x="2140" y="540" as="targetPoint" />
          </mxGeometry>
        </mxCell>
        <mxCell id="WggwmU2v6ihtmMsBgbvI-67" value="" style="endArrow=none;html=1;rounded=0;entryX=1;entryY=0.5;entryDx=0;entryDy=0;exitX=0;exitY=0.5;exitDx=0;exitDy=0;" parent="1" source="WggwmU2v6ihtmMsBgbvI-58" target="WggwmU2v6ihtmMsBgbvI-57" edge="1">
          <mxGeometry width="50" height="50" relative="1" as="geometry">
            <mxPoint x="2340" y="580" as="sourcePoint" />
            <mxPoint x="2200" y="580" as="targetPoint" />
          </mxGeometry>
        </mxCell>
        <mxCell id="WggwmU2v6ihtmMsBgbvI-74" value="&lt;b&gt;Student&lt;/b&gt;" style="rounded=0;whiteSpace=wrap;html=1;fillColor=#fff2cc;strokeColor=#d6b656;" parent="1" vertex="1">
          <mxGeometry x="2000" y="200" width="120" height="40" as="geometry" />
        </mxCell>
        <mxCell id="WggwmU2v6ihtmMsBgbvI-76" value="faculty-name" style="ellipse;whiteSpace=wrap;html=1;fillColor=#d5e8d4;strokeColor=#82b366;" parent="1" vertex="1">
          <mxGeometry x="2040" y="120" width="80" height="30" as="geometry" />
        </mxCell>
        <mxCell id="WggwmU2v6ihtmMsBgbvI-79" value="&lt;u&gt;student-id&lt;/u&gt;" style="ellipse;whiteSpace=wrap;html=1;fillColor=#d5e8d4;strokeColor=#82b366;" parent="1" vertex="1">
          <mxGeometry x="1890" y="140" width="90" height="30" as="geometry" />
        </mxCell>
        <mxCell id="WggwmU2v6ihtmMsBgbvI-80" value="" style="endArrow=none;html=1;rounded=0;exitX=0;exitY=0;exitDx=0;exitDy=0;entryX=0.5;entryY=1;entryDx=0;entryDy=0;" parent="1" source="WggwmU2v6ihtmMsBgbvI-74" target="WggwmU2v6ihtmMsBgbvI-79" edge="1">
          <mxGeometry width="50" height="50" relative="1" as="geometry">
            <mxPoint x="2110" y="205" as="sourcePoint" />
            <mxPoint x="2160" y="155" as="targetPoint" />
          </mxGeometry>
        </mxCell>
        <mxCell id="WggwmU2v6ihtmMsBgbvI-84" value="" style="endArrow=none;html=1;rounded=0;exitX=0.45;exitY=0.983;exitDx=0;exitDy=0;exitPerimeter=0;" parent="1" source="WggwmU2v6ihtmMsBgbvI-76" edge="1">
          <mxGeometry width="50" height="50" relative="1" as="geometry">
            <mxPoint x="2260" y="160" as="sourcePoint" />
            <mxPoint x="2080" y="200" as="targetPoint" />
          </mxGeometry>
        </mxCell>
        <mxCell id="WggwmU2v6ihtmMsBgbvI-87" value="&lt;b&gt;Instructor&lt;/b&gt;" style="rounded=0;whiteSpace=wrap;html=1;fillColor=#fff2cc;strokeColor=#d6b656;" parent="1" vertex="1">
          <mxGeometry x="960" y="200" width="120" height="40" as="geometry" />
        </mxCell>
        <mxCell id="WggwmU2v6ihtmMsBgbvI-90" value="&lt;u&gt;instructor-id&lt;/u&gt;" style="ellipse;whiteSpace=wrap;html=1;fillColor=#d5e8d4;strokeColor=#82b366;" parent="1" vertex="1">
          <mxGeometry x="930" y="143" width="90" height="30" as="geometry" />
        </mxCell>
        <mxCell id="WggwmU2v6ihtmMsBgbvI-91" value="" style="endArrow=none;html=1;rounded=0;exitX=0.5;exitY=0;exitDx=0;exitDy=0;entryX=0.5;entryY=1;entryDx=0;entryDy=0;" parent="1" source="WggwmU2v6ihtmMsBgbvI-87" target="WggwmU2v6ihtmMsBgbvI-90" edge="1">
          <mxGeometry width="50" height="50" relative="1" as="geometry">
            <mxPoint x="720" y="200" as="sourcePoint" />
            <mxPoint x="770" y="150" as="targetPoint" />
          </mxGeometry>
        </mxCell>
        <mxCell id="WggwmU2v6ihtmMsBgbvI-107" value="&lt;b&gt;Question&lt;/b&gt;" style="rounded=0;whiteSpace=wrap;html=1;fillColor=#fff2cc;strokeColor=#d6b656;" parent="1" vertex="1">
          <mxGeometry x="1040" y="760" width="120" height="40" as="geometry" />
        </mxCell>
        <mxCell id="WggwmU2v6ihtmMsBgbvI-108" value="question-name" style="ellipse;whiteSpace=wrap;html=1;fillColor=#d5e8d4;strokeColor=#82b366;" parent="1" vertex="1">
          <mxGeometry x="1290" y="975" width="100" height="30" as="geometry" />
        </mxCell>
        <mxCell id="WggwmU2v6ihtmMsBgbvI-109" value="correct-answer" style="ellipse;whiteSpace=wrap;html=1;fillColor=#d5e8d4;strokeColor=#82b366;" parent="1" vertex="1">
          <mxGeometry x="1230" y="1005" width="90" height="30" as="geometry" />
        </mxCell>
        <mxCell id="WggwmU2v6ihtmMsBgbvI-110" value="&lt;u&gt;question-id&lt;/u&gt;" style="ellipse;whiteSpace=wrap;html=1;fillColor=#d5e8d4;strokeColor=#82b366;" parent="1" vertex="1">
          <mxGeometry x="1020" y="691" width="90" height="30" as="geometry" />
        </mxCell>
        <mxCell id="WggwmU2v6ihtmMsBgbvI-111" value="" style="endArrow=none;html=1;rounded=0;exitX=0.25;exitY=0;exitDx=0;exitDy=0;entryX=0.5;entryY=1;entryDx=0;entryDy=0;" parent="1" source="WggwmU2v6ihtmMsBgbvI-107" target="WggwmU2v6ihtmMsBgbvI-110" edge="1">
          <mxGeometry width="50" height="50" relative="1" as="geometry">
            <mxPoint x="780" y="760" as="sourcePoint" />
            <mxPoint x="1080" y="731" as="targetPoint" />
          </mxGeometry>
        </mxCell>
        <mxCell id="WggwmU2v6ihtmMsBgbvI-112" value="" style="endArrow=none;html=1;rounded=0;exitX=0.5;exitY=1;exitDx=0;exitDy=0;entryX=0.5;entryY=0;entryDx=0;entryDy=0;" parent="1" source="iIM-NgGlBtSzI43fGDoz-54" target="WggwmU2v6ihtmMsBgbvI-109" edge="1">
          <mxGeometry width="50" height="50" relative="1" as="geometry">
            <mxPoint x="880" y="850" as="sourcePoint" />
            <mxPoint x="1206" y="773" as="targetPoint" />
          </mxGeometry>
        </mxCell>
        <mxCell id="WggwmU2v6ihtmMsBgbvI-113" value="" style="endArrow=none;html=1;rounded=0;exitX=0.5;exitY=0;exitDx=0;exitDy=0;entryX=1;entryY=1;entryDx=0;entryDy=0;" parent="1" source="WggwmU2v6ihtmMsBgbvI-108" target="iIM-NgGlBtSzI43fGDoz-54" edge="1">
          <mxGeometry width="50" height="50" relative="1" as="geometry">
            <mxPoint x="930" y="715" as="sourcePoint" />
            <mxPoint x="870" y="695" as="targetPoint" />
          </mxGeometry>
        </mxCell>
        <mxCell id="WggwmU2v6ihtmMsBgbvI-114" value="&lt;span style=&quot;text-align: left;&quot;&gt;question-type&lt;/span&gt;" style="ellipse;whiteSpace=wrap;html=1;fillColor=#d5e8d4;strokeColor=#82b366;" parent="1" vertex="1">
          <mxGeometry x="910" y="765" width="86" height="30" as="geometry" />
        </mxCell>
        <mxCell id="WggwmU2v6ihtmMsBgbvI-115" value="" style="endArrow=none;html=1;rounded=0;exitX=1;exitY=0.5;exitDx=0;exitDy=0;entryX=0;entryY=0.5;entryDx=0;entryDy=0;" parent="1" source="WggwmU2v6ihtmMsBgbvI-114" target="WggwmU2v6ihtmMsBgbvI-107" edge="1">
          <mxGeometry width="50" height="50" relative="1" as="geometry">
            <mxPoint x="800" y="820" as="sourcePoint" />
            <mxPoint x="850" y="770" as="targetPoint" />
          </mxGeometry>
        </mxCell>
        <mxCell id="WggwmU2v6ihtmMsBgbvI-121" value="" style="endArrow=none;html=1;rounded=0;entryX=1;entryY=0.5;entryDx=0;entryDy=0;exitX=0;exitY=0;exitDx=0;exitDy=0;" parent="1" source="iIM-NgGlBtSzI43fGDoz-120" target="4R5beJjESy12MN6gw3O2-3" edge="1">
          <mxGeometry width="50" height="50" relative="1" as="geometry">
            <mxPoint x="1800" y="620" as="sourcePoint" />
            <mxPoint x="1745.9621735006956" y="464.81875437005965" as="targetPoint" />
          </mxGeometry>
        </mxCell>
        <mxCell id="WggwmU2v6ihtmMsBgbvI-125" value="degree" style="ellipse;whiteSpace=wrap;html=1;fillColor=#d5e8d4;strokeColor=#82b366;" parent="1" vertex="1">
          <mxGeometry x="1759" y="410" width="90" height="30" as="geometry" />
        </mxCell>
        <mxCell id="WggwmU2v6ihtmMsBgbvI-126" value="" style="endArrow=none;html=1;rounded=0;exitX=1;exitY=1;exitDx=0;exitDy=0;" parent="1" source="WggwmU2v6ihtmMsBgbvI-125" target="iIM-NgGlBtSzI43fGDoz-120" edge="1">
          <mxGeometry width="50" height="50" relative="1" as="geometry">
            <mxPoint x="2210" y="1045" as="sourcePoint" />
            <mxPoint x="1780" y="460" as="targetPoint" />
          </mxGeometry>
        </mxCell>
        <mxCell id="iIM-NgGlBtSzI43fGDoz-2" value="instructor-email" style="ellipse;whiteSpace=wrap;html=1;fillColor=#d5e8d4;strokeColor=#82b366;" parent="1" vertex="1">
          <mxGeometry x="840" y="173" width="100" height="30" as="geometry" />
        </mxCell>
        <mxCell id="iIM-NgGlBtSzI43fGDoz-4" value="instructor-phone" style="ellipse;whiteSpace=wrap;html=1;fillColor=#d5e8d4;strokeColor=#82b366;" parent="1" vertex="1">
          <mxGeometry x="1050" y="140" width="100" height="30" as="geometry" />
        </mxCell>
        <mxCell id="iIM-NgGlBtSzI43fGDoz-5" value="instructor-name" style="ellipse;whiteSpace=wrap;html=1;fillColor=#d5e8d4;strokeColor=#82b366;" parent="1" vertex="1">
          <mxGeometry x="1105" y="173" width="105" height="30" as="geometry" />
        </mxCell>
        <mxCell id="iIM-NgGlBtSzI43fGDoz-8" value="" style="endArrow=none;html=1;rounded=0;exitX=1;exitY=0;exitDx=0;exitDy=0;entryX=0.5;entryY=1;entryDx=0;entryDy=0;" parent="1" source="WggwmU2v6ihtmMsBgbvI-87" target="iIM-NgGlBtSzI43fGDoz-4" edge="1">
          <mxGeometry width="50" height="50" relative="1" as="geometry">
            <mxPoint x="1490" y="200" as="sourcePoint" />
            <mxPoint x="1540" y="150" as="targetPoint" />
          </mxGeometry>
        </mxCell>
        <mxCell id="iIM-NgGlBtSzI43fGDoz-9" value="" style="endArrow=none;html=1;rounded=0;exitX=0;exitY=0.25;exitDx=0;exitDy=0;entryX=1;entryY=0.5;entryDx=0;entryDy=0;" parent="1" source="WggwmU2v6ihtmMsBgbvI-87" target="iIM-NgGlBtSzI43fGDoz-2" edge="1">
          <mxGeometry width="50" height="50" relative="1" as="geometry">
            <mxPoint x="1500" y="150" as="sourcePoint" />
            <mxPoint x="1550" y="100" as="targetPoint" />
          </mxGeometry>
        </mxCell>
        <mxCell id="iIM-NgGlBtSzI43fGDoz-10" value="" style="endArrow=none;html=1;rounded=0;exitX=1;exitY=0.5;exitDx=0;exitDy=0;entryX=0.5;entryY=1;entryDx=0;entryDy=0;" parent="1" source="WggwmU2v6ihtmMsBgbvI-87" target="iIM-NgGlBtSzI43fGDoz-5" edge="1">
          <mxGeometry width="50" height="50" relative="1" as="geometry">
            <mxPoint x="1470" y="110" as="sourcePoint" />
            <mxPoint x="1520" y="60" as="targetPoint" />
          </mxGeometry>
        </mxCell>
        <mxCell id="iIM-NgGlBtSzI43fGDoz-32" value="&lt;b&gt;Manage&lt;/b&gt;" style="rhombus;whiteSpace=wrap;html=1;fillColor=#f8cecc;strokeColor=#b85450;" parent="1" vertex="1">
          <mxGeometry x="1160" y="240" width="80" height="80" as="geometry" />
        </mxCell>
        <mxCell id="iIM-NgGlBtSzI43fGDoz-34" value="" style="endArrow=none;html=1;rounded=0;entryX=0;entryY=0.5;entryDx=0;entryDy=0;exitX=1;exitY=1;exitDx=0;exitDy=0;" parent="1" source="WggwmU2v6ihtmMsBgbvI-87" target="iIM-NgGlBtSzI43fGDoz-32" edge="1">
          <mxGeometry width="50" height="50" relative="1" as="geometry">
            <mxPoint x="1040" y="295" as="sourcePoint" />
            <mxPoint x="1090" y="245" as="targetPoint" />
            <Array as="points" />
          </mxGeometry>
        </mxCell>
        <mxCell id="iIM-NgGlBtSzI43fGDoz-40" value="M" style="edgeLabel;html=1;align=center;verticalAlign=middle;resizable=0;points=[];" parent="iIM-NgGlBtSzI43fGDoz-34" vertex="1" connectable="0">
          <mxGeometry x="-0.832" relative="1" as="geometry">
            <mxPoint as="offset" />
          </mxGeometry>
        </mxCell>
        <mxCell id="iIM-NgGlBtSzI43fGDoz-41" value="&lt;b&gt;Teach&lt;/b&gt;" style="rhombus;whiteSpace=wrap;html=1;fillColor=#f8cecc;strokeColor=#b85450;" parent="1" vertex="1">
          <mxGeometry x="960" y="270" width="70" height="70" as="geometry" />
        </mxCell>
        <mxCell id="iIM-NgGlBtSzI43fGDoz-42" value="" style="endArrow=none;html=1;rounded=0;exitX=1;exitY=0.5;exitDx=0;exitDy=0;entryX=0.598;entryY=1.012;entryDx=0;entryDy=0;entryPerimeter=0;shape=link;" parent="1" source="iIM-NgGlBtSzI43fGDoz-41" target="WggwmU2v6ihtmMsBgbvI-87" edge="1">
          <mxGeometry width="50" height="50" relative="1" as="geometry">
            <mxPoint x="1025" y="325" as="sourcePoint" />
            <mxPoint x="1060" y="260" as="targetPoint" />
          </mxGeometry>
        </mxCell>
        <mxCell id="iIM-NgGlBtSzI43fGDoz-44" value="M" style="edgeLabel;html=1;align=center;verticalAlign=middle;resizable=0;points=[];" parent="iIM-NgGlBtSzI43fGDoz-42" vertex="1" connectable="0">
          <mxGeometry x="0.569" relative="1" as="geometry">
            <mxPoint as="offset" />
          </mxGeometry>
        </mxCell>
        <mxCell id="iIM-NgGlBtSzI43fGDoz-43" value="" style="endArrow=none;html=1;rounded=0;exitX=0.323;exitY=0.025;exitDx=0;exitDy=0;exitPerimeter=0;shape=link;" parent="1" source="WggwmU2v6ihtmMsBgbvI-1" edge="1">
          <mxGeometry width="50" height="50" relative="1" as="geometry">
            <mxPoint x="910" y="355" as="sourcePoint" />
            <mxPoint x="960" y="305" as="targetPoint" />
          </mxGeometry>
        </mxCell>
        <mxCell id="iIM-NgGlBtSzI43fGDoz-45" value="M" style="edgeLabel;html=1;align=center;verticalAlign=middle;resizable=0;points=[];" parent="iIM-NgGlBtSzI43fGDoz-43" vertex="1" connectable="0">
          <mxGeometry x="-0.2425" y="1" relative="1" as="geometry">
            <mxPoint as="offset" />
          </mxGeometry>
        </mxCell>
        <mxCell id="iIM-NgGlBtSzI43fGDoz-47" value="&lt;b&gt;Include&lt;/b&gt;" style="rhombus;whiteSpace=wrap;html=1;fillColor=#f8cecc;strokeColor=#b85450;" parent="1" vertex="1">
          <mxGeometry x="960" y="520" width="80" height="80" as="geometry" />
        </mxCell>
        <mxCell id="iIM-NgGlBtSzI43fGDoz-48" value="" style="endArrow=none;html=1;rounded=0;entryX=0.5;entryY=1;entryDx=0;entryDy=0;" parent="1" target="WggwmU2v6ihtmMsBgbvI-1" edge="1">
          <mxGeometry width="50" height="50" relative="1" as="geometry">
            <mxPoint x="1000" y="520" as="sourcePoint" />
            <mxPoint x="1050" y="470" as="targetPoint" />
            <Array as="points">
              <mxPoint x="1000" y="440" />
              <mxPoint x="980" y="440" />
            </Array>
          </mxGeometry>
        </mxCell>
        <mxCell id="iIM-NgGlBtSzI43fGDoz-50" value="1" style="edgeLabel;html=1;align=center;verticalAlign=middle;resizable=0;points=[];" parent="iIM-NgGlBtSzI43fGDoz-48" vertex="1" connectable="0">
          <mxGeometry x="0.7357" y="-1" relative="1" as="geometry">
            <mxPoint as="offset" />
          </mxGeometry>
        </mxCell>
        <mxCell id="iIM-NgGlBtSzI43fGDoz-49" value="" style="endArrow=none;html=1;rounded=0;exitX=0;exitY=0;exitDx=0;exitDy=0;shape=link;" parent="1" source="WggwmU2v6ihtmMsBgbvI-107" edge="1">
          <mxGeometry width="50" height="50" relative="1" as="geometry">
            <mxPoint x="950" y="650" as="sourcePoint" />
            <mxPoint x="1000" y="600" as="targetPoint" />
            <Array as="points">
              <mxPoint x="1000" y="760" />
              <mxPoint x="1000" y="680" />
            </Array>
          </mxGeometry>
        </mxCell>
        <mxCell id="iIM-NgGlBtSzI43fGDoz-51" value="M" style="edgeLabel;html=1;align=center;verticalAlign=middle;resizable=0;points=[];" parent="iIM-NgGlBtSzI43fGDoz-49" vertex="1" connectable="0">
          <mxGeometry x="-0.8185" relative="1" as="geometry">
            <mxPoint as="offset" />
          </mxGeometry>
        </mxCell>
        <mxCell id="iIM-NgGlBtSzI43fGDoz-52" value="&lt;b&gt;Text Question&lt;/b&gt;" style="rounded=0;whiteSpace=wrap;html=1;fillColor=#fff2cc;strokeColor=#d6b656;" parent="1" vertex="1">
          <mxGeometry x="880" y="920" width="120" height="40" as="geometry" />
        </mxCell>
        <mxCell id="iIM-NgGlBtSzI43fGDoz-53" value="&lt;b&gt;Choose&lt;/b&gt;" style="rounded=0;whiteSpace=wrap;html=1;fillColor=#fff2cc;strokeColor=#d6b656;" parent="1" vertex="1">
          <mxGeometry x="1040" y="920" width="120" height="40" as="geometry" />
        </mxCell>
        <mxCell id="iIM-NgGlBtSzI43fGDoz-54" value="&lt;b&gt;TF&lt;/b&gt;" style="rounded=0;whiteSpace=wrap;html=1;fillColor=#fff2cc;strokeColor=#d6b656;" parent="1" vertex="1">
          <mxGeometry x="1200" y="920" width="120" height="40" as="geometry" />
        </mxCell>
        <mxCell id="iIM-NgGlBtSzI43fGDoz-55" value="D" style="ellipse;whiteSpace=wrap;html=1;fillColor=#d5e8d4;strokeColor=#82b366;" parent="1" vertex="1">
          <mxGeometry x="1015" y="1025" width="60" height="20" as="geometry" />
        </mxCell>
        <mxCell id="iIM-NgGlBtSzI43fGDoz-56" value="C" style="ellipse;whiteSpace=wrap;html=1;fillColor=#d5e8d4;strokeColor=#82b366;" parent="1" vertex="1">
          <mxGeometry x="1015" y="1000" width="50" height="20" as="geometry" />
        </mxCell>
        <mxCell id="iIM-NgGlBtSzI43fGDoz-57" value="B" style="ellipse;whiteSpace=wrap;html=1;fillColor=#d5e8d4;strokeColor=#82b366;" parent="1" vertex="1">
          <mxGeometry x="1007.5" y="970" width="50" height="20" as="geometry" />
        </mxCell>
        <mxCell id="iIM-NgGlBtSzI43fGDoz-58" value="A" style="ellipse;whiteSpace=wrap;html=1;fillColor=#d5e8d4;strokeColor=#82b366;" parent="1" vertex="1">
          <mxGeometry x="1010" y="890" width="45" height="20" as="geometry" />
        </mxCell>
        <mxCell id="iIM-NgGlBtSzI43fGDoz-59" value="question-name" style="ellipse;whiteSpace=wrap;html=1;fillColor=#d5e8d4;strokeColor=#82b366;" parent="1" vertex="1">
          <mxGeometry x="1105" y="980" width="90" height="30" as="geometry" />
        </mxCell>
        <mxCell id="iIM-NgGlBtSzI43fGDoz-60" value="correct-answer" style="ellipse;whiteSpace=wrap;html=1;fillColor=#d5e8d4;strokeColor=#82b366;" parent="1" vertex="1">
          <mxGeometry x="1095" y="1020" width="90" height="30" as="geometry" />
        </mxCell>
        <mxCell id="iIM-NgGlBtSzI43fGDoz-61" style="edgeStyle=orthogonalEdgeStyle;rounded=0;orthogonalLoop=1;jettySize=auto;html=1;exitX=0.5;exitY=1;exitDx=0;exitDy=0;" parent="1" source="iIM-NgGlBtSzI43fGDoz-55" target="iIM-NgGlBtSzI43fGDoz-55" edge="1">
          <mxGeometry relative="1" as="geometry" />
        </mxCell>
        <mxCell id="iIM-NgGlBtSzI43fGDoz-62" value="" style="endArrow=none;html=1;rounded=0;exitX=0.5;exitY=1;exitDx=0;exitDy=0;entryX=0;entryY=0.25;entryDx=0;entryDy=0;" parent="1" source="iIM-NgGlBtSzI43fGDoz-58" target="iIM-NgGlBtSzI43fGDoz-53" edge="1">
          <mxGeometry width="50" height="50" relative="1" as="geometry">
            <mxPoint x="990" y="1010" as="sourcePoint" />
            <mxPoint x="1040" y="960" as="targetPoint" />
          </mxGeometry>
        </mxCell>
        <mxCell id="iIM-NgGlBtSzI43fGDoz-63" value="" style="endArrow=none;html=1;rounded=0;exitX=1;exitY=0;exitDx=0;exitDy=0;" parent="1" source="iIM-NgGlBtSzI43fGDoz-57" edge="1">
          <mxGeometry width="50" height="50" relative="1" as="geometry">
            <mxPoint x="1060" y="1010" as="sourcePoint" />
            <mxPoint x="1062" y="960" as="targetPoint" />
          </mxGeometry>
        </mxCell>
        <mxCell id="iIM-NgGlBtSzI43fGDoz-64" value="" style="endArrow=none;html=1;rounded=0;entryX=0.292;entryY=1.001;entryDx=0;entryDy=0;entryPerimeter=0;exitX=0.727;exitY=0.04;exitDx=0;exitDy=0;exitPerimeter=0;" parent="1" source="iIM-NgGlBtSzI43fGDoz-56" target="iIM-NgGlBtSzI43fGDoz-53" edge="1">
          <mxGeometry width="50" height="50" relative="1" as="geometry">
            <mxPoint x="1073" y="1050" as="sourcePoint" />
            <mxPoint x="1120" y="1005" as="targetPoint" />
          </mxGeometry>
        </mxCell>
        <mxCell id="iIM-NgGlBtSzI43fGDoz-66" value="" style="endArrow=none;html=1;rounded=0;exitX=0.058;exitY=0.275;exitDx=0;exitDy=0;exitPerimeter=0;" parent="1" source="iIM-NgGlBtSzI43fGDoz-60" edge="1">
          <mxGeometry width="50" height="50" relative="1" as="geometry">
            <mxPoint x="1110" y="980" as="sourcePoint" />
            <mxPoint x="1100" y="960" as="targetPoint" />
          </mxGeometry>
        </mxCell>
        <mxCell id="iIM-NgGlBtSzI43fGDoz-67" value="" style="endArrow=none;html=1;rounded=0;exitX=0.5;exitY=0;exitDx=0;exitDy=0;entryX=0.917;entryY=0.988;entryDx=0;entryDy=0;entryPerimeter=0;" parent="1" source="iIM-NgGlBtSzI43fGDoz-59" target="iIM-NgGlBtSzI43fGDoz-53" edge="1">
          <mxGeometry width="50" height="50" relative="1" as="geometry">
            <mxPoint x="1110" y="1010" as="sourcePoint" />
            <mxPoint x="1160" y="960" as="targetPoint" />
          </mxGeometry>
        </mxCell>
        <mxCell id="iIM-NgGlBtSzI43fGDoz-72" value="question-name" style="ellipse;whiteSpace=wrap;html=1;fillColor=#d5e8d4;strokeColor=#82b366;" parent="1" vertex="1">
          <mxGeometry x="920" y="980" width="90" height="30" as="geometry" />
        </mxCell>
        <mxCell id="iIM-NgGlBtSzI43fGDoz-74" value="correct-answer" style="ellipse;whiteSpace=wrap;html=1;fillColor=#d5e8d4;strokeColor=#82b366;" parent="1" vertex="1">
          <mxGeometry x="895" y="1020" width="90" height="30" as="geometry" />
        </mxCell>
        <mxCell id="iIM-NgGlBtSzI43fGDoz-75" value="" style="endArrow=none;html=1;rounded=0;exitX=0.5;exitY=0;exitDx=0;exitDy=0;entryX=0.75;entryY=1;entryDx=0;entryDy=0;" parent="1" source="iIM-NgGlBtSzI43fGDoz-72" target="iIM-NgGlBtSzI43fGDoz-52" edge="1">
          <mxGeometry width="50" height="50" relative="1" as="geometry">
            <mxPoint x="940" y="1010" as="sourcePoint" />
            <mxPoint x="990" y="960" as="targetPoint" />
          </mxGeometry>
        </mxCell>
        <mxCell id="iIM-NgGlBtSzI43fGDoz-76" value="" style="endArrow=none;html=1;rounded=0;exitX=0;exitY=0;exitDx=0;exitDy=0;" parent="1" source="iIM-NgGlBtSzI43fGDoz-74" edge="1">
          <mxGeometry width="50" height="50" relative="1" as="geometry">
            <mxPoint x="870" y="1010" as="sourcePoint" />
            <mxPoint x="920" y="960" as="targetPoint" />
          </mxGeometry>
        </mxCell>
        <mxCell id="iIM-NgGlBtSzI43fGDoz-79" value="&lt;b&gt;IS_A&lt;/b&gt;" style="rhombus;whiteSpace=wrap;html=1;fillColor=#f8cecc;strokeColor=#b85450;" parent="1" vertex="1">
          <mxGeometry x="1070" y="830" width="50" height="50" as="geometry" />
        </mxCell>
        <mxCell id="iIM-NgGlBtSzI43fGDoz-81" value="" style="endArrow=none;html=1;rounded=0;exitX=0.461;exitY=0.017;exitDx=0;exitDy=0;exitPerimeter=0;shape=link;" parent="1" source="iIM-NgGlBtSzI43fGDoz-53" edge="1">
          <mxGeometry width="50" height="50" relative="1" as="geometry">
            <mxPoint x="1045" y="930" as="sourcePoint" />
            <mxPoint x="1095" y="880" as="targetPoint" />
          </mxGeometry>
        </mxCell>
        <mxCell id="iIM-NgGlBtSzI43fGDoz-90" value="1" style="edgeLabel;html=1;align=center;verticalAlign=middle;resizable=0;points=[];" parent="iIM-NgGlBtSzI43fGDoz-81" vertex="1" connectable="0">
          <mxGeometry x="-0.0243" relative="1" as="geometry">
            <mxPoint as="offset" />
          </mxGeometry>
        </mxCell>
        <mxCell id="iIM-NgGlBtSzI43fGDoz-82" value="&lt;b&gt;IS_A&lt;/b&gt;" style="rhombus;whiteSpace=wrap;html=1;fillColor=#f8cecc;strokeColor=#b85450;" parent="1" vertex="1">
          <mxGeometry x="1235" y="830" width="50" height="50" as="geometry" />
        </mxCell>
        <mxCell id="iIM-NgGlBtSzI43fGDoz-83" value="" style="endArrow=none;html=1;rounded=0;exitX=0.5;exitY=0;exitDx=0;exitDy=0;shape=link;" parent="1" source="iIM-NgGlBtSzI43fGDoz-54" edge="1">
          <mxGeometry width="50" height="50" relative="1" as="geometry">
            <mxPoint x="1210" y="930" as="sourcePoint" />
            <mxPoint x="1260" y="880" as="targetPoint" />
          </mxGeometry>
        </mxCell>
        <mxCell id="iIM-NgGlBtSzI43fGDoz-89" value="1" style="edgeLabel;html=1;align=center;verticalAlign=middle;resizable=0;points=[];" parent="iIM-NgGlBtSzI43fGDoz-83" vertex="1" connectable="0">
          <mxGeometry x="-0.177" relative="1" as="geometry">
            <mxPoint as="offset" />
          </mxGeometry>
        </mxCell>
        <mxCell id="iIM-NgGlBtSzI43fGDoz-85" value="&lt;b&gt;IS_A&lt;/b&gt;" style="rhombus;whiteSpace=wrap;html=1;fillColor=#f8cecc;strokeColor=#b85450;" parent="1" vertex="1">
          <mxGeometry x="915" y="830" width="50" height="50" as="geometry" />
        </mxCell>
        <mxCell id="iIM-NgGlBtSzI43fGDoz-86" value="" style="endArrow=none;html=1;rounded=0;exitX=0.5;exitY=0;exitDx=0;exitDy=0;shape=link;" parent="1" source="iIM-NgGlBtSzI43fGDoz-52" edge="1">
          <mxGeometry width="50" height="50" relative="1" as="geometry">
            <mxPoint x="890" y="930" as="sourcePoint" />
            <mxPoint x="940" y="880" as="targetPoint" />
          </mxGeometry>
        </mxCell>
        <mxCell id="iIM-NgGlBtSzI43fGDoz-93" value="1" style="edgeLabel;html=1;align=center;verticalAlign=middle;resizable=0;points=[];" parent="iIM-NgGlBtSzI43fGDoz-86" vertex="1" connectable="0">
          <mxGeometry x="-0.1875" relative="1" as="geometry">
            <mxPoint as="offset" />
          </mxGeometry>
        </mxCell>
        <mxCell id="iIM-NgGlBtSzI43fGDoz-94" value="&lt;b&gt;Consist&lt;/b&gt;" style="rhombus;whiteSpace=wrap;html=1;fillColor=#f8cecc;strokeColor=#b85450;" parent="1" vertex="1">
          <mxGeometry x="1280" y="600" width="80" height="80" as="geometry" />
        </mxCell>
        <mxCell id="iIM-NgGlBtSzI43fGDoz-95" value="" style="endArrow=none;html=1;rounded=0;exitX=1;exitY=0.5;exitDx=0;exitDy=0;entryX=0.001;entryY=0.345;entryDx=0;entryDy=0;entryPerimeter=0;shape=link;" parent="1" source="iIM-NgGlBtSzI43fGDoz-94" target="WggwmU2v6ihtmMsBgbvI-13" edge="1">
          <mxGeometry width="50" height="50" relative="1" as="geometry">
            <mxPoint x="1360" y="700" as="sourcePoint" />
            <mxPoint x="1410" y="650" as="targetPoint" />
            <Array as="points">
              <mxPoint x="1360" y="814" />
            </Array>
          </mxGeometry>
        </mxCell>
        <mxCell id="iIM-NgGlBtSzI43fGDoz-98" value="M" style="edgeLabel;html=1;align=center;verticalAlign=middle;resizable=0;points=[];" parent="iIM-NgGlBtSzI43fGDoz-95" vertex="1" connectable="0">
          <mxGeometry x="0.8033" y="-1" relative="1" as="geometry">
            <mxPoint as="offset" />
          </mxGeometry>
        </mxCell>
        <mxCell id="iIM-NgGlBtSzI43fGDoz-96" value="" style="endArrow=none;html=1;rounded=0;exitX=0.813;exitY=-0.006;exitDx=0;exitDy=0;exitPerimeter=0;" parent="1" source="WggwmU2v6ihtmMsBgbvI-107" edge="1">
          <mxGeometry width="50" height="50" relative="1" as="geometry">
            <mxPoint x="1230" y="691" as="sourcePoint" />
            <mxPoint x="1280" y="641" as="targetPoint" />
            <Array as="points">
              <mxPoint x="1140" y="640" />
            </Array>
          </mxGeometry>
        </mxCell>
        <mxCell id="iIM-NgGlBtSzI43fGDoz-97" value="M" style="edgeLabel;html=1;align=center;verticalAlign=middle;resizable=0;points=[];" parent="iIM-NgGlBtSzI43fGDoz-96" vertex="1" connectable="0">
          <mxGeometry x="-0.7861" y="1" relative="1" as="geometry">
            <mxPoint as="offset" />
          </mxGeometry>
        </mxCell>
        <mxCell id="iIM-NgGlBtSzI43fGDoz-99" value="question-degree" style="ellipse;whiteSpace=wrap;html=1;fillColor=#d5e8d4;strokeColor=#82b366;" parent="1" vertex="1">
          <mxGeometry x="1300" y="545" width="100" height="30" as="geometry" />
        </mxCell>
        <mxCell id="iIM-NgGlBtSzI43fGDoz-100" value="" style="endArrow=none;html=1;rounded=0;exitX=0.5;exitY=0;exitDx=0;exitDy=0;" parent="1" source="iIM-NgGlBtSzI43fGDoz-94" edge="1">
          <mxGeometry width="50" height="50" relative="1" as="geometry">
            <mxPoint x="1300" y="625" as="sourcePoint" />
            <mxPoint x="1350" y="575" as="targetPoint" />
          </mxGeometry>
        </mxCell>
        <mxCell id="iIM-NgGlBtSzI43fGDoz-101" value="total-degree" style="ellipse;whiteSpace=wrap;html=1;fillColor=#d5e8d4;strokeColor=#82b366;dashed=1;" parent="1" vertex="1">
          <mxGeometry x="1590" y="920" width="95" height="30" as="geometry" />
        </mxCell>
        <mxCell id="iIM-NgGlBtSzI43fGDoz-102" value="" style="endArrow=none;html=1;rounded=0;exitX=0;exitY=0;exitDx=0;exitDy=0;" parent="1" source="iIM-NgGlBtSzI43fGDoz-101" edge="1">
          <mxGeometry width="50" height="50" relative="1" as="geometry">
            <mxPoint x="1550" y="890" as="sourcePoint" />
            <mxPoint x="1600" y="840" as="targetPoint" />
          </mxGeometry>
        </mxCell>
        <mxCell id="iIM-NgGlBtSzI43fGDoz-104" value="&lt;b&gt;Exist&lt;/b&gt;" style="rhombus;whiteSpace=wrap;html=1;fillColor=#f8cecc;strokeColor=#b85450;" parent="1" vertex="1">
          <mxGeometry x="2220" y="195" width="50" height="50" as="geometry" />
        </mxCell>
        <mxCell id="iIM-NgGlBtSzI43fGDoz-105" value="" style="endArrow=none;html=1;rounded=0;entryX=0;entryY=0.5;entryDx=0;entryDy=0;exitX=1;exitY=0.5;exitDx=0;exitDy=0;shape=link;" parent="1" source="WggwmU2v6ihtmMsBgbvI-74" target="iIM-NgGlBtSzI43fGDoz-104" edge="1">
          <mxGeometry width="50" height="50" relative="1" as="geometry">
            <mxPoint x="2170" y="260" as="sourcePoint" />
            <mxPoint x="2220" y="210" as="targetPoint" />
          </mxGeometry>
        </mxCell>
        <mxCell id="iIM-NgGlBtSzI43fGDoz-107" value="M" style="edgeLabel;html=1;align=center;verticalAlign=middle;resizable=0;points=[];" parent="iIM-NgGlBtSzI43fGDoz-105" vertex="1" connectable="0">
          <mxGeometry x="-0.8247" relative="1" as="geometry">
            <mxPoint as="offset" />
          </mxGeometry>
        </mxCell>
        <mxCell id="iIM-NgGlBtSzI43fGDoz-106" value="" style="endArrow=none;html=1;rounded=0;entryX=0.5;entryY=1;entryDx=0;entryDy=0;shape=link;" parent="1" target="iIM-NgGlBtSzI43fGDoz-104" edge="1">
          <mxGeometry width="50" height="50" relative="1" as="geometry">
            <mxPoint x="2245" y="320" as="sourcePoint" />
            <mxPoint x="2245" y="250" as="targetPoint" />
            <Array as="points" />
          </mxGeometry>
        </mxCell>
        <mxCell id="iIM-NgGlBtSzI43fGDoz-108" value="1" style="edgeLabel;html=1;align=center;verticalAlign=middle;resizable=0;points=[];" parent="iIM-NgGlBtSzI43fGDoz-106" vertex="1" connectable="0">
          <mxGeometry x="-0.5914" relative="1" as="geometry">
            <mxPoint as="offset" />
          </mxGeometry>
        </mxCell>
        <mxCell id="iIM-NgGlBtSzI43fGDoz-109" value="&lt;b&gt;Contain&lt;/b&gt;" style="rhombus;whiteSpace=wrap;html=1;fillColor=#f8cecc;strokeColor=#b85450;" parent="1" vertex="1">
          <mxGeometry x="2200" y="410" width="60" height="60" as="geometry" />
        </mxCell>
        <mxCell id="iIM-NgGlBtSzI43fGDoz-110" value="" style="endArrow=none;html=1;rounded=0;exitX=0.5;exitY=0;exitDx=0;exitDy=0;shape=link;" parent="1" source="iIM-NgGlBtSzI43fGDoz-109" edge="1">
          <mxGeometry width="50" height="50" relative="1" as="geometry">
            <mxPoint x="2180" y="410" as="sourcePoint" />
            <mxPoint x="2230" y="360" as="targetPoint" />
          </mxGeometry>
        </mxCell>
        <mxCell id="iIM-NgGlBtSzI43fGDoz-112" value="1" style="edgeLabel;html=1;align=center;verticalAlign=middle;resizable=0;points=[];" parent="iIM-NgGlBtSzI43fGDoz-110" vertex="1" connectable="0">
          <mxGeometry x="0.585" relative="1" as="geometry">
            <mxPoint as="offset" />
          </mxGeometry>
        </mxCell>
        <mxCell id="iIM-NgGlBtSzI43fGDoz-111" value="" style="endArrow=none;html=1;rounded=0;entryX=0.5;entryY=1;entryDx=0;entryDy=0;exitX=0.25;exitY=0;exitDx=0;exitDy=0;shape=link;" parent="1" source="WggwmU2v6ihtmMsBgbvI-57" target="iIM-NgGlBtSzI43fGDoz-109" edge="1">
          <mxGeometry width="50" height="50" relative="1" as="geometry">
            <mxPoint x="2175" y="520" as="sourcePoint" />
            <mxPoint x="2225" y="470" as="targetPoint" />
          </mxGeometry>
        </mxCell>
        <mxCell id="iIM-NgGlBtSzI43fGDoz-113" value="M" style="edgeLabel;html=1;align=center;verticalAlign=middle;resizable=0;points=[];" parent="iIM-NgGlBtSzI43fGDoz-111" vertex="1" connectable="0">
          <mxGeometry x="-0.55" relative="1" as="geometry">
            <mxPoint as="offset" />
          </mxGeometry>
        </mxCell>
        <mxCell id="iIM-NgGlBtSzI43fGDoz-114" value="&lt;b&gt;Has&lt;/b&gt;" style="rhombus;whiteSpace=wrap;html=1;fillColor=#f8cecc;strokeColor=#b85450;" parent="1" vertex="1">
          <mxGeometry x="2205" y="650" width="60" height="60" as="geometry" />
        </mxCell>
        <mxCell id="iIM-NgGlBtSzI43fGDoz-115" value="" style="endArrow=none;html=1;rounded=0;exitX=0.5;exitY=0;exitDx=0;exitDy=0;entryX=0.3;entryY=1.004;entryDx=0;entryDy=0;entryPerimeter=0;shape=link;" parent="1" source="iIM-NgGlBtSzI43fGDoz-114" target="WggwmU2v6ihtmMsBgbvI-57" edge="1">
          <mxGeometry width="50" height="50" relative="1" as="geometry">
            <mxPoint x="2195" y="650" as="sourcePoint" />
            <mxPoint x="2245" y="600" as="targetPoint" />
          </mxGeometry>
        </mxCell>
        <mxCell id="iIM-NgGlBtSzI43fGDoz-118" value="M" style="edgeLabel;html=1;align=center;verticalAlign=middle;resizable=0;points=[];" parent="iIM-NgGlBtSzI43fGDoz-115" vertex="1" connectable="0">
          <mxGeometry x="0.2838" relative="1" as="geometry">
            <mxPoint as="offset" />
          </mxGeometry>
        </mxCell>
        <mxCell id="iIM-NgGlBtSzI43fGDoz-116" value="" style="endArrow=none;html=1;rounded=0;entryX=0.5;entryY=1;entryDx=0;entryDy=0;exitX=0.62;exitY=-0.003;exitDx=0;exitDy=0;exitPerimeter=0;" parent="1" source="WggwmU2v6ihtmMsBgbvI-52" target="iIM-NgGlBtSzI43fGDoz-114" edge="1">
          <mxGeometry width="50" height="50" relative="1" as="geometry">
            <mxPoint x="2180" y="760" as="sourcePoint" />
            <mxPoint x="2230" y="710" as="targetPoint" />
          </mxGeometry>
        </mxCell>
        <mxCell id="iIM-NgGlBtSzI43fGDoz-117" value="M" style="edgeLabel;html=1;align=center;verticalAlign=middle;resizable=0;points=[];" parent="iIM-NgGlBtSzI43fGDoz-116" vertex="1" connectable="0">
          <mxGeometry x="-0.1982" y="1" relative="1" as="geometry">
            <mxPoint as="offset" />
          </mxGeometry>
        </mxCell>
        <mxCell id="iIM-NgGlBtSzI43fGDoz-120" value="&lt;b&gt;Solve&lt;/b&gt;" style="rhombus;whiteSpace=wrap;html=1;fillColor=#f8cecc;strokeColor=#b85450;" parent="1" vertex="1">
          <mxGeometry x="1820" y="465" width="80" height="80" as="geometry" />
        </mxCell>
        <mxCell id="iIM-NgGlBtSzI43fGDoz-121" value="" style="endArrow=none;html=1;rounded=0;entryX=0;entryY=1;entryDx=0;entryDy=0;exitX=0.5;exitY=0;exitDx=0;exitDy=0;" parent="1" source="iIM-NgGlBtSzI43fGDoz-120" target="WggwmU2v6ihtmMsBgbvI-74" edge="1">
          <mxGeometry width="50" height="50" relative="1" as="geometry">
            <mxPoint x="1730" y="570" as="sourcePoint" />
            <mxPoint x="1780" y="520" as="targetPoint" />
          </mxGeometry>
        </mxCell>
        <mxCell id="0RHv_Zf5hblWHa_StgO2-17" value="M" style="edgeLabel;html=1;align=center;verticalAlign=middle;resizable=0;points=[];" parent="iIM-NgGlBtSzI43fGDoz-121" vertex="1" connectable="0">
          <mxGeometry x="0.8236" relative="1" as="geometry">
            <mxPoint y="-1" as="offset" />
          </mxGeometry>
        </mxCell>
        <mxCell id="iIM-NgGlBtSzI43fGDoz-122" value="" style="endArrow=none;html=1;rounded=0;exitX=0.5;exitY=0;exitDx=0;exitDy=0;entryX=0;entryY=0.5;entryDx=0;entryDy=0;shape=link;" parent="1" source="WggwmU2v6ihtmMsBgbvI-13" target="iIM-NgGlBtSzI43fGDoz-120" edge="1">
          <mxGeometry width="50" height="50" relative="1" as="geometry">
            <mxPoint x="1770" y="550" as="sourcePoint" />
            <mxPoint x="1820" y="500" as="targetPoint" />
            <Array as="points">
              <mxPoint x="1615" y="505" />
            </Array>
          </mxGeometry>
        </mxCell>
        <mxCell id="0RHv_Zf5hblWHa_StgO2-18" value="M" style="edgeLabel;html=1;align=center;verticalAlign=middle;resizable=0;points=[];" parent="iIM-NgGlBtSzI43fGDoz-122" vertex="1" connectable="0">
          <mxGeometry x="-0.7769" y="-1" relative="1" as="geometry">
            <mxPoint as="offset" />
          </mxGeometry>
        </mxCell>
        <mxCell id="0RHv_Zf5hblWHa_StgO2-1" value="student-email" style="ellipse;whiteSpace=wrap;html=1;fillColor=#d5e8d4;strokeColor=#82b366;" parent="1" vertex="1">
          <mxGeometry x="2085" y="150" width="90" height="30" as="geometry" />
        </mxCell>
        <mxCell id="0RHv_Zf5hblWHa_StgO2-2" value="" style="endArrow=none;html=1;rounded=0;entryX=0;entryY=1;entryDx=0;entryDy=0;exitX=0.75;exitY=0;exitDx=0;exitDy=0;" parent="1" source="WggwmU2v6ihtmMsBgbvI-74" target="0RHv_Zf5hblWHa_StgO2-1" edge="1">
          <mxGeometry width="50" height="50" relative="1" as="geometry">
            <mxPoint x="2043" y="225" as="sourcePoint" />
            <mxPoint x="2093" y="175" as="targetPoint" />
          </mxGeometry>
        </mxCell>
        <mxCell id="0RHv_Zf5hblWHa_StgO2-3" value="student-name" style="ellipse;whiteSpace=wrap;html=1;fillColor=#d5e8d4;strokeColor=#82b366;" parent="1" vertex="1">
          <mxGeometry x="1860" y="180" width="90" height="30" as="geometry" />
        </mxCell>
        <mxCell id="0RHv_Zf5hblWHa_StgO2-4" value="" style="endArrow=none;html=1;rounded=0;entryX=1;entryY=0.5;entryDx=0;entryDy=0;exitX=0;exitY=0.25;exitDx=0;exitDy=0;" parent="1" source="WggwmU2v6ihtmMsBgbvI-74" target="0RHv_Zf5hblWHa_StgO2-3" edge="1">
          <mxGeometry width="50" height="50" relative="1" as="geometry">
            <mxPoint x="1905" y="225" as="sourcePoint" />
            <mxPoint x="1955" y="175" as="targetPoint" />
          </mxGeometry>
        </mxCell>
        <mxCell id="0RHv_Zf5hblWHa_StgO2-5" value="student-phone" style="ellipse;whiteSpace=wrap;html=1;fillColor=#d5e8d4;strokeColor=#82b366;" parent="1" vertex="1">
          <mxGeometry x="1980" y="150" width="88" height="30" as="geometry" />
        </mxCell>
        <mxCell id="0RHv_Zf5hblWHa_StgO2-6" value="" style="endArrow=none;html=1;rounded=0;exitX=0.5;exitY=0;exitDx=0;exitDy=0;" parent="1" source="WggwmU2v6ihtmMsBgbvI-74" edge="1">
          <mxGeometry width="50" height="50" relative="1" as="geometry">
            <mxPoint x="1988" y="230" as="sourcePoint" />
            <mxPoint x="2038" y="180" as="targetPoint" />
          </mxGeometry>
        </mxCell>
        <mxCell id="0RHv_Zf5hblWHa_StgO2-7" value="student-password" style="ellipse;whiteSpace=wrap;html=1;fillColor=#d5e8d4;strokeColor=#82b366;" parent="1" vertex="1">
          <mxGeometry x="1840" y="215" width="110" height="30" as="geometry" />
        </mxCell>
        <mxCell id="0RHv_Zf5hblWHa_StgO2-8" value="" style="endArrow=none;html=1;rounded=0;exitX=1;exitY=0.5;exitDx=0;exitDy=0;" parent="1" source="0RHv_Zf5hblWHa_StgO2-7" edge="1">
          <mxGeometry width="50" height="50" relative="1" as="geometry">
            <mxPoint x="1950" y="270" as="sourcePoint" />
            <mxPoint x="2000" y="220" as="targetPoint" />
          </mxGeometry>
        </mxCell>
        <mxCell id="0RHv_Zf5hblWHa_StgO2-9" value="instructor-password" style="ellipse;whiteSpace=wrap;html=1;fillColor=#d5e8d4;strokeColor=#82b366;" parent="1" vertex="1">
          <mxGeometry x="980" y="113" width="110" height="30" as="geometry" />
        </mxCell>
        <mxCell id="0RHv_Zf5hblWHa_StgO2-10" value="" style="endArrow=none;html=1;rounded=0;exitX=0.75;exitY=0;exitDx=0;exitDy=0;entryX=0.5;entryY=1;entryDx=0;entryDy=0;" parent="1" source="WggwmU2v6ihtmMsBgbvI-87" target="0RHv_Zf5hblWHa_StgO2-9" edge="1">
          <mxGeometry width="50" height="50" relative="1" as="geometry">
            <mxPoint x="995" y="195" as="sourcePoint" />
            <mxPoint x="1045" y="145" as="targetPoint" />
          </mxGeometry>
        </mxCell>
        <mxCell id="0RHv_Zf5hblWHa_StgO2-11" style="edgeStyle=orthogonalEdgeStyle;rounded=0;orthogonalLoop=1;jettySize=auto;html=1;exitX=0.5;exitY=1;exitDx=0;exitDy=0;" parent="1" source="iIM-NgGlBtSzI43fGDoz-2" target="iIM-NgGlBtSzI43fGDoz-2" edge="1">
          <mxGeometry relative="1" as="geometry" />
        </mxCell>
        <mxCell id="0RHv_Zf5hblWHa_StgO2-12" value="&lt;b&gt;Belong&lt;/b&gt;" style="rhombus;whiteSpace=wrap;html=1;fillColor=#f8cecc;strokeColor=#b85450;" parent="1" vertex="1">
          <mxGeometry x="2050" y="750" width="60" height="60" as="geometry" />
        </mxCell>
        <mxCell id="0RHv_Zf5hblWHa_StgO2-13" value="" style="endArrow=none;html=1;rounded=0;" parent="1" edge="1">
          <mxGeometry width="50" height="50" relative="1" as="geometry">
            <mxPoint x="2000" y="780" as="sourcePoint" />
            <mxPoint x="2050" y="780" as="targetPoint" />
          </mxGeometry>
        </mxCell>
        <mxCell id="0RHv_Zf5hblWHa_StgO2-15" value="1" style="edgeLabel;html=1;align=center;verticalAlign=middle;resizable=0;points=[];" parent="0RHv_Zf5hblWHa_StgO2-13" vertex="1" connectable="0">
          <mxGeometry x="-0.2769" y="-1" relative="1" as="geometry">
            <mxPoint as="offset" />
          </mxGeometry>
        </mxCell>
        <mxCell id="0RHv_Zf5hblWHa_StgO2-14" value="" style="endArrow=none;html=1;rounded=0;exitX=1;exitY=0.5;exitDx=0;exitDy=0;entryX=0;entryY=0.5;entryDx=0;entryDy=0;shape=link;" parent="1" source="0RHv_Zf5hblWHa_StgO2-12" target="WggwmU2v6ihtmMsBgbvI-52" edge="1">
          <mxGeometry width="50" height="50" relative="1" as="geometry">
            <mxPoint x="2110" y="825" as="sourcePoint" />
            <mxPoint x="2160" y="775" as="targetPoint" />
          </mxGeometry>
        </mxCell>
        <mxCell id="0RHv_Zf5hblWHa_StgO2-16" value="M" style="edgeLabel;html=1;align=center;verticalAlign=middle;resizable=0;points=[];" parent="0RHv_Zf5hblWHa_StgO2-14" vertex="1" connectable="0">
          <mxGeometry x="0.1538" y="-2" relative="1" as="geometry">
            <mxPoint as="offset" />
          </mxGeometry>
        </mxCell>
        <mxCell id="4R5beJjESy12MN6gw3O2-3" value="student-answer" style="ellipse;shape=doubleEllipse;margin=3;whiteSpace=wrap;html=1;align=center;fillColor=#d5e8d4;strokeColor=#82b366;" parent="1" vertex="1">
          <mxGeometry x="1645" y="440" width="100" height="40" as="geometry" />
        </mxCell>
        <mxCell id="4R5beJjESy12MN6gw3O2-5" value="" style="endArrow=none;html=1;rounded=0;entryX=0.379;entryY=0.976;entryDx=0;entryDy=0;entryPerimeter=0;exitX=1;exitY=0;exitDx=0;exitDy=0;" parent="1" source="iIM-NgGlBtSzI43fGDoz-55" target="iIM-NgGlBtSzI43fGDoz-53" edge="1">
          <mxGeometry width="50" height="50" relative="1" as="geometry">
            <mxPoint x="1045" y="1060" as="sourcePoint" />
            <mxPoint x="1095" y="1010" as="targetPoint" />
          </mxGeometry>
        </mxCell>
        <mxCell id="j4Dh2sjCp8QDIXTv8ryV-15" value="Student" style="shape=table;startSize=30;container=1;collapsible=0;childLayout=tableLayout;fixedRows=1;rowLines=0;fontStyle=0;strokeColor=default;fontSize=16;" parent="1" vertex="1">
          <mxGeometry x="1875" y="1200" width="160" height="300" as="geometry" />
        </mxCell>
        <mxCell id="j4Dh2sjCp8QDIXTv8ryV-16" value="" style="shape=tableRow;horizontal=0;startSize=0;swimlaneHead=0;swimlaneBody=0;top=0;left=0;bottom=0;right=0;collapsible=0;dropTarget=0;fillColor=none;points=[[0,0.5],[1,0.5]];portConstraint=eastwest;strokeColor=inherit;fontSize=16;" parent="j4Dh2sjCp8QDIXTv8ryV-15" vertex="1">
          <mxGeometry y="30" width="160" height="30" as="geometry" />
        </mxCell>
        <mxCell id="j4Dh2sjCp8QDIXTv8ryV-17" value="PK" style="shape=partialRectangle;html=1;whiteSpace=wrap;connectable=0;fillColor=none;top=0;left=0;bottom=0;right=0;overflow=hidden;pointerEvents=1;strokeColor=inherit;fontSize=16;" parent="j4Dh2sjCp8QDIXTv8ryV-16" vertex="1">
          <mxGeometry width="36" height="30" as="geometry">
            <mxRectangle width="36" height="30" as="alternateBounds" />
          </mxGeometry>
        </mxCell>
        <mxCell id="j4Dh2sjCp8QDIXTv8ryV-18" value="&lt;span style=&quot;font-size: 12px;&quot;&gt;student-id&lt;/span&gt;" style="shape=partialRectangle;html=1;whiteSpace=wrap;connectable=0;fillColor=none;top=0;left=0;bottom=0;right=0;align=left;spacingLeft=6;overflow=hidden;strokeColor=inherit;fontSize=16;" parent="j4Dh2sjCp8QDIXTv8ryV-16" vertex="1">
          <mxGeometry x="36" width="124" height="30" as="geometry">
            <mxRectangle width="124" height="30" as="alternateBounds" />
          </mxGeometry>
        </mxCell>
        <mxCell id="j4Dh2sjCp8QDIXTv8ryV-19" value="" style="shape=tableRow;horizontal=0;startSize=0;swimlaneHead=0;swimlaneBody=0;top=0;left=0;bottom=0;right=0;collapsible=0;dropTarget=0;fillColor=none;points=[[0,0.5],[1,0.5]];portConstraint=eastwest;strokeColor=inherit;fontSize=16;" parent="j4Dh2sjCp8QDIXTv8ryV-15" vertex="1">
          <mxGeometry y="60" width="160" height="30" as="geometry" />
        </mxCell>
        <mxCell id="j4Dh2sjCp8QDIXTv8ryV-20" value="" style="shape=partialRectangle;html=1;whiteSpace=wrap;connectable=0;fillColor=none;top=0;left=0;bottom=0;right=0;overflow=hidden;strokeColor=inherit;fontSize=16;" parent="j4Dh2sjCp8QDIXTv8ryV-19" vertex="1">
          <mxGeometry width="36" height="30" as="geometry">
            <mxRectangle width="36" height="30" as="alternateBounds" />
          </mxGeometry>
        </mxCell>
        <mxCell id="j4Dh2sjCp8QDIXTv8ryV-21" value="&lt;span style=&quot;font-size: 12px;&quot;&gt;student-name&lt;/span&gt;" style="shape=partialRectangle;html=1;whiteSpace=wrap;connectable=0;fillColor=none;top=0;left=0;bottom=0;right=0;align=left;spacingLeft=6;overflow=hidden;strokeColor=inherit;fontSize=16;" parent="j4Dh2sjCp8QDIXTv8ryV-19" vertex="1">
          <mxGeometry x="36" width="124" height="30" as="geometry">
            <mxRectangle width="124" height="30" as="alternateBounds" />
          </mxGeometry>
        </mxCell>
        <mxCell id="j4Dh2sjCp8QDIXTv8ryV-22" value="" style="shape=tableRow;horizontal=0;startSize=0;swimlaneHead=0;swimlaneBody=0;top=0;left=0;bottom=0;right=0;collapsible=0;dropTarget=0;fillColor=none;points=[[0,0.5],[1,0.5]];portConstraint=eastwest;strokeColor=inherit;fontSize=16;" parent="j4Dh2sjCp8QDIXTv8ryV-15" vertex="1">
          <mxGeometry y="90" width="160" height="30" as="geometry" />
        </mxCell>
        <mxCell id="j4Dh2sjCp8QDIXTv8ryV-23" value="" style="shape=partialRectangle;html=1;whiteSpace=wrap;connectable=0;fillColor=none;top=0;left=0;bottom=0;right=0;overflow=hidden;strokeColor=inherit;fontSize=16;" parent="j4Dh2sjCp8QDIXTv8ryV-22" vertex="1">
          <mxGeometry width="36" height="30" as="geometry">
            <mxRectangle width="36" height="30" as="alternateBounds" />
          </mxGeometry>
        </mxCell>
        <mxCell id="j4Dh2sjCp8QDIXTv8ryV-24" value="&lt;span style=&quot;font-size: 12px;&quot;&gt;faculty-name&lt;/span&gt;" style="shape=partialRectangle;html=1;whiteSpace=wrap;connectable=0;fillColor=none;top=0;left=0;bottom=0;right=0;align=left;spacingLeft=6;overflow=hidden;strokeColor=inherit;fontSize=16;" parent="j4Dh2sjCp8QDIXTv8ryV-22" vertex="1">
          <mxGeometry x="36" width="124" height="30" as="geometry">
            <mxRectangle width="124" height="30" as="alternateBounds" />
          </mxGeometry>
        </mxCell>
        <mxCell id="j4Dh2sjCp8QDIXTv8ryV-26" value="" style="shape=tableRow;horizontal=0;startSize=0;swimlaneHead=0;swimlaneBody=0;top=0;left=0;bottom=0;right=0;collapsible=0;dropTarget=0;fillColor=none;points=[[0,0.5],[1,0.5]];portConstraint=eastwest;strokeColor=inherit;fontSize=16;" parent="j4Dh2sjCp8QDIXTv8ryV-15" vertex="1">
          <mxGeometry y="120" width="160" height="30" as="geometry" />
        </mxCell>
        <mxCell id="j4Dh2sjCp8QDIXTv8ryV-27" value="" style="shape=partialRectangle;html=1;whiteSpace=wrap;connectable=0;fillColor=none;top=0;left=0;bottom=0;right=0;overflow=hidden;strokeColor=inherit;fontSize=16;" parent="j4Dh2sjCp8QDIXTv8ryV-26" vertex="1">
          <mxGeometry width="36" height="30" as="geometry">
            <mxRectangle width="36" height="30" as="alternateBounds" />
          </mxGeometry>
        </mxCell>
        <mxCell id="j4Dh2sjCp8QDIXTv8ryV-28" value="&lt;span style=&quot;font-size: 12px;&quot;&gt;student-email&lt;/span&gt;" style="shape=partialRectangle;html=1;whiteSpace=wrap;connectable=0;fillColor=none;top=0;left=0;bottom=0;right=0;align=left;spacingLeft=6;overflow=hidden;strokeColor=inherit;fontSize=16;" parent="j4Dh2sjCp8QDIXTv8ryV-26" vertex="1">
          <mxGeometry x="36" width="124" height="30" as="geometry">
            <mxRectangle width="124" height="30" as="alternateBounds" />
          </mxGeometry>
        </mxCell>
        <mxCell id="j4Dh2sjCp8QDIXTv8ryV-29" value="" style="shape=tableRow;horizontal=0;startSize=0;swimlaneHead=0;swimlaneBody=0;top=0;left=0;bottom=0;right=0;collapsible=0;dropTarget=0;fillColor=none;points=[[0,0.5],[1,0.5]];portConstraint=eastwest;strokeColor=inherit;fontSize=16;" parent="j4Dh2sjCp8QDIXTv8ryV-15" vertex="1">
          <mxGeometry y="150" width="160" height="30" as="geometry" />
        </mxCell>
        <mxCell id="j4Dh2sjCp8QDIXTv8ryV-30" value="" style="shape=partialRectangle;html=1;whiteSpace=wrap;connectable=0;fillColor=none;top=0;left=0;bottom=0;right=0;overflow=hidden;strokeColor=inherit;fontSize=16;" parent="j4Dh2sjCp8QDIXTv8ryV-29" vertex="1">
          <mxGeometry width="36" height="30" as="geometry">
            <mxRectangle width="36" height="30" as="alternateBounds" />
          </mxGeometry>
        </mxCell>
        <mxCell id="j4Dh2sjCp8QDIXTv8ryV-31" value="&lt;span style=&quot;font-size: 12px;&quot;&gt;student-password&lt;/span&gt;" style="shape=partialRectangle;html=1;whiteSpace=wrap;connectable=0;fillColor=none;top=0;left=0;bottom=0;right=0;align=left;spacingLeft=6;overflow=hidden;strokeColor=inherit;fontSize=16;" parent="j4Dh2sjCp8QDIXTv8ryV-29" vertex="1">
          <mxGeometry x="36" width="124" height="30" as="geometry">
            <mxRectangle width="124" height="30" as="alternateBounds" />
          </mxGeometry>
        </mxCell>
        <mxCell id="j4Dh2sjCp8QDIXTv8ryV-32" value="" style="shape=tableRow;horizontal=0;startSize=0;swimlaneHead=0;swimlaneBody=0;top=0;left=0;bottom=0;right=0;collapsible=0;dropTarget=0;fillColor=none;points=[[0,0.5],[1,0.5]];portConstraint=eastwest;strokeColor=inherit;fontSize=16;" parent="j4Dh2sjCp8QDIXTv8ryV-15" vertex="1">
          <mxGeometry y="180" width="160" height="30" as="geometry" />
        </mxCell>
        <mxCell id="j4Dh2sjCp8QDIXTv8ryV-33" value="" style="shape=partialRectangle;html=1;whiteSpace=wrap;connectable=0;fillColor=none;top=0;left=0;bottom=0;right=0;overflow=hidden;strokeColor=inherit;fontSize=16;" parent="j4Dh2sjCp8QDIXTv8ryV-32" vertex="1">
          <mxGeometry width="36" height="30" as="geometry">
            <mxRectangle width="36" height="30" as="alternateBounds" />
          </mxGeometry>
        </mxCell>
        <mxCell id="j4Dh2sjCp8QDIXTv8ryV-34" value="&lt;span style=&quot;font-size: 12px;&quot;&gt;student-phone&lt;/span&gt;" style="shape=partialRectangle;html=1;whiteSpace=wrap;connectable=0;fillColor=none;top=0;left=0;bottom=0;right=0;align=left;spacingLeft=6;overflow=hidden;strokeColor=inherit;fontSize=16;" parent="j4Dh2sjCp8QDIXTv8ryV-32" vertex="1">
          <mxGeometry x="36" width="124" height="30" as="geometry">
            <mxRectangle width="124" height="30" as="alternateBounds" />
          </mxGeometry>
        </mxCell>
        <mxCell id="GdlQhDkwiyZ--6wiS9G9-4" value="" style="shape=tableRow;horizontal=0;startSize=0;swimlaneHead=0;swimlaneBody=0;top=0;left=0;bottom=0;right=0;collapsible=0;dropTarget=0;fillColor=none;points=[[0,0.5],[1,0.5]];portConstraint=eastwest;strokeColor=inherit;fontSize=16;" parent="j4Dh2sjCp8QDIXTv8ryV-15" vertex="1">
          <mxGeometry y="210" width="160" height="30" as="geometry" />
        </mxCell>
        <mxCell id="GdlQhDkwiyZ--6wiS9G9-5" value="FK" style="shape=partialRectangle;html=1;whiteSpace=wrap;connectable=0;fillColor=none;top=0;left=0;bottom=0;right=0;overflow=hidden;strokeColor=inherit;fontSize=16;" parent="GdlQhDkwiyZ--6wiS9G9-4" vertex="1">
          <mxGeometry width="36" height="30" as="geometry">
            <mxRectangle width="36" height="30" as="alternateBounds" />
          </mxGeometry>
        </mxCell>
        <mxCell id="GdlQhDkwiyZ--6wiS9G9-6" value="&lt;span style=&quot;font-size: 12px;&quot;&gt;branch-id&lt;/span&gt;" style="shape=partialRectangle;html=1;whiteSpace=wrap;connectable=0;fillColor=none;top=0;left=0;bottom=0;right=0;align=left;spacingLeft=6;overflow=hidden;strokeColor=inherit;fontSize=16;" parent="GdlQhDkwiyZ--6wiS9G9-4" vertex="1">
          <mxGeometry x="36" width="124" height="30" as="geometry">
            <mxRectangle width="124" height="30" as="alternateBounds" />
          </mxGeometry>
        </mxCell>
        <mxCell id="oB9pb2-u7YMUF64o9EDQ-4" value="" style="shape=tableRow;horizontal=0;startSize=0;swimlaneHead=0;swimlaneBody=0;top=0;left=0;bottom=0;right=0;collapsible=0;dropTarget=0;fillColor=none;points=[[0,0.5],[1,0.5]];portConstraint=eastwest;strokeColor=inherit;fontSize=16;" parent="j4Dh2sjCp8QDIXTv8ryV-15" vertex="1">
          <mxGeometry y="240" width="160" height="30" as="geometry" />
        </mxCell>
        <mxCell id="oB9pb2-u7YMUF64o9EDQ-5" value="FK" style="shape=partialRectangle;html=1;whiteSpace=wrap;connectable=0;fillColor=none;top=0;left=0;bottom=0;right=0;overflow=hidden;strokeColor=inherit;fontSize=16;" parent="oB9pb2-u7YMUF64o9EDQ-4" vertex="1">
          <mxGeometry width="36" height="30" as="geometry">
            <mxRectangle width="36" height="30" as="alternateBounds" />
          </mxGeometry>
        </mxCell>
        <mxCell id="oB9pb2-u7YMUF64o9EDQ-6" value="&lt;span style=&quot;font-size: 12px;&quot;&gt;track-id&lt;/span&gt;" style="shape=partialRectangle;html=1;whiteSpace=wrap;connectable=0;fillColor=none;top=0;left=0;bottom=0;right=0;align=left;spacingLeft=6;overflow=hidden;strokeColor=inherit;fontSize=16;" parent="oB9pb2-u7YMUF64o9EDQ-4" vertex="1">
          <mxGeometry x="36" width="124" height="30" as="geometry">
            <mxRectangle width="124" height="30" as="alternateBounds" />
          </mxGeometry>
        </mxCell>
        <mxCell id="a52f5ag9Y_fAlCAkWIK--1" value="" style="shape=tableRow;horizontal=0;startSize=0;swimlaneHead=0;swimlaneBody=0;top=0;left=0;bottom=0;right=0;collapsible=0;dropTarget=0;fillColor=none;points=[[0,0.5],[1,0.5]];portConstraint=eastwest;strokeColor=inherit;fontSize=16;" parent="j4Dh2sjCp8QDIXTv8ryV-15" vertex="1">
          <mxGeometry y="270" width="160" height="30" as="geometry" />
        </mxCell>
        <mxCell id="a52f5ag9Y_fAlCAkWIK--2" value="FK" style="shape=partialRectangle;html=1;whiteSpace=wrap;connectable=0;fillColor=none;top=0;left=0;bottom=0;right=0;overflow=hidden;strokeColor=inherit;fontSize=16;" parent="a52f5ag9Y_fAlCAkWIK--1" vertex="1">
          <mxGeometry width="36" height="30" as="geometry">
            <mxRectangle width="36" height="30" as="alternateBounds" />
          </mxGeometry>
        </mxCell>
        <mxCell id="a52f5ag9Y_fAlCAkWIK--3" value="&lt;span style=&quot;font-size: 12px;&quot;&gt;intake-id&lt;/span&gt;" style="shape=partialRectangle;html=1;whiteSpace=wrap;connectable=0;fillColor=none;top=0;left=0;bottom=0;right=0;align=left;spacingLeft=6;overflow=hidden;strokeColor=inherit;fontSize=16;" parent="a52f5ag9Y_fAlCAkWIK--1" vertex="1">
          <mxGeometry x="36" width="124" height="30" as="geometry">
            <mxRectangle width="124" height="30" as="alternateBounds" />
          </mxGeometry>
        </mxCell>
        <mxCell id="j4Dh2sjCp8QDIXTv8ryV-35" value="Instructor" style="shape=table;startSize=30;container=1;collapsible=0;childLayout=tableLayout;fixedRows=1;rowLines=0;fontStyle=0;strokeColor=default;fontSize=16;" parent="1" vertex="1">
          <mxGeometry x="1910" y="1760" width="160" height="210" as="geometry" />
        </mxCell>
        <mxCell id="j4Dh2sjCp8QDIXTv8ryV-36" value="" style="shape=tableRow;horizontal=0;startSize=0;swimlaneHead=0;swimlaneBody=0;top=0;left=0;bottom=0;right=0;collapsible=0;dropTarget=0;fillColor=none;points=[[0,0.5],[1,0.5]];portConstraint=eastwest;strokeColor=inherit;fontSize=16;" parent="j4Dh2sjCp8QDIXTv8ryV-35" vertex="1">
          <mxGeometry y="30" width="160" height="30" as="geometry" />
        </mxCell>
        <mxCell id="j4Dh2sjCp8QDIXTv8ryV-37" value="PK" style="shape=partialRectangle;html=1;whiteSpace=wrap;connectable=0;fillColor=none;top=0;left=0;bottom=0;right=0;overflow=hidden;pointerEvents=1;strokeColor=inherit;fontSize=16;" parent="j4Dh2sjCp8QDIXTv8ryV-36" vertex="1">
          <mxGeometry width="36" height="30" as="geometry">
            <mxRectangle width="36" height="30" as="alternateBounds" />
          </mxGeometry>
        </mxCell>
        <mxCell id="j4Dh2sjCp8QDIXTv8ryV-38" value="&lt;span style=&quot;font-size: 12px;&quot;&gt;instructor-id&lt;/span&gt;" style="shape=partialRectangle;html=1;whiteSpace=wrap;connectable=0;fillColor=none;top=0;left=0;bottom=0;right=0;align=left;spacingLeft=6;overflow=hidden;strokeColor=inherit;fontSize=16;" parent="j4Dh2sjCp8QDIXTv8ryV-36" vertex="1">
          <mxGeometry x="36" width="124" height="30" as="geometry">
            <mxRectangle width="124" height="30" as="alternateBounds" />
          </mxGeometry>
        </mxCell>
        <mxCell id="j4Dh2sjCp8QDIXTv8ryV-39" value="" style="shape=tableRow;horizontal=0;startSize=0;swimlaneHead=0;swimlaneBody=0;top=0;left=0;bottom=0;right=0;collapsible=0;dropTarget=0;fillColor=none;points=[[0,0.5],[1,0.5]];portConstraint=eastwest;strokeColor=inherit;fontSize=16;" parent="j4Dh2sjCp8QDIXTv8ryV-35" vertex="1">
          <mxGeometry y="60" width="160" height="30" as="geometry" />
        </mxCell>
        <mxCell id="j4Dh2sjCp8QDIXTv8ryV-40" value="" style="shape=partialRectangle;html=1;whiteSpace=wrap;connectable=0;fillColor=none;top=0;left=0;bottom=0;right=0;overflow=hidden;strokeColor=inherit;fontSize=16;" parent="j4Dh2sjCp8QDIXTv8ryV-39" vertex="1">
          <mxGeometry width="36" height="30" as="geometry">
            <mxRectangle width="36" height="30" as="alternateBounds" />
          </mxGeometry>
        </mxCell>
        <mxCell id="j4Dh2sjCp8QDIXTv8ryV-41" value="&lt;span style=&quot;font-size: 12px;&quot;&gt;instructor&lt;/span&gt;&lt;span style=&quot;font-size: 12px;&quot;&gt;-name&lt;/span&gt;" style="shape=partialRectangle;html=1;whiteSpace=wrap;connectable=0;fillColor=none;top=0;left=0;bottom=0;right=0;align=left;spacingLeft=6;overflow=hidden;strokeColor=inherit;fontSize=16;" parent="j4Dh2sjCp8QDIXTv8ryV-39" vertex="1">
          <mxGeometry x="36" width="124" height="30" as="geometry">
            <mxRectangle width="124" height="30" as="alternateBounds" />
          </mxGeometry>
        </mxCell>
        <mxCell id="j4Dh2sjCp8QDIXTv8ryV-45" value="" style="shape=tableRow;horizontal=0;startSize=0;swimlaneHead=0;swimlaneBody=0;top=0;left=0;bottom=0;right=0;collapsible=0;dropTarget=0;fillColor=none;points=[[0,0.5],[1,0.5]];portConstraint=eastwest;strokeColor=inherit;fontSize=16;" parent="j4Dh2sjCp8QDIXTv8ryV-35" vertex="1">
          <mxGeometry y="90" width="160" height="30" as="geometry" />
        </mxCell>
        <mxCell id="j4Dh2sjCp8QDIXTv8ryV-46" value="" style="shape=partialRectangle;html=1;whiteSpace=wrap;connectable=0;fillColor=none;top=0;left=0;bottom=0;right=0;overflow=hidden;strokeColor=inherit;fontSize=16;" parent="j4Dh2sjCp8QDIXTv8ryV-45" vertex="1">
          <mxGeometry width="36" height="30" as="geometry">
            <mxRectangle width="36" height="30" as="alternateBounds" />
          </mxGeometry>
        </mxCell>
        <mxCell id="j4Dh2sjCp8QDIXTv8ryV-47" value="&lt;span style=&quot;font-size: 12px;&quot;&gt;instructor&lt;/span&gt;&lt;span style=&quot;font-size: 12px;&quot;&gt;-email&lt;/span&gt;" style="shape=partialRectangle;html=1;whiteSpace=wrap;connectable=0;fillColor=none;top=0;left=0;bottom=0;right=0;align=left;spacingLeft=6;overflow=hidden;strokeColor=inherit;fontSize=16;" parent="j4Dh2sjCp8QDIXTv8ryV-45" vertex="1">
          <mxGeometry x="36" width="124" height="30" as="geometry">
            <mxRectangle width="124" height="30" as="alternateBounds" />
          </mxGeometry>
        </mxCell>
        <mxCell id="j4Dh2sjCp8QDIXTv8ryV-48" value="" style="shape=tableRow;horizontal=0;startSize=0;swimlaneHead=0;swimlaneBody=0;top=0;left=0;bottom=0;right=0;collapsible=0;dropTarget=0;fillColor=none;points=[[0,0.5],[1,0.5]];portConstraint=eastwest;strokeColor=inherit;fontSize=16;" parent="j4Dh2sjCp8QDIXTv8ryV-35" vertex="1">
          <mxGeometry y="120" width="160" height="30" as="geometry" />
        </mxCell>
        <mxCell id="j4Dh2sjCp8QDIXTv8ryV-49" value="" style="shape=partialRectangle;html=1;whiteSpace=wrap;connectable=0;fillColor=none;top=0;left=0;bottom=0;right=0;overflow=hidden;strokeColor=inherit;fontSize=16;" parent="j4Dh2sjCp8QDIXTv8ryV-48" vertex="1">
          <mxGeometry width="36" height="30" as="geometry">
            <mxRectangle width="36" height="30" as="alternateBounds" />
          </mxGeometry>
        </mxCell>
        <mxCell id="j4Dh2sjCp8QDIXTv8ryV-50" value="&lt;span style=&quot;font-size: 12px;&quot;&gt;instructor&lt;/span&gt;&lt;span style=&quot;font-size: 12px;&quot;&gt;-password&lt;/span&gt;" style="shape=partialRectangle;html=1;whiteSpace=wrap;connectable=0;fillColor=none;top=0;left=0;bottom=0;right=0;align=left;spacingLeft=6;overflow=hidden;strokeColor=inherit;fontSize=16;" parent="j4Dh2sjCp8QDIXTv8ryV-48" vertex="1">
          <mxGeometry x="36" width="124" height="30" as="geometry">
            <mxRectangle width="124" height="30" as="alternateBounds" />
          </mxGeometry>
        </mxCell>
        <mxCell id="j4Dh2sjCp8QDIXTv8ryV-51" value="" style="shape=tableRow;horizontal=0;startSize=0;swimlaneHead=0;swimlaneBody=0;top=0;left=0;bottom=0;right=0;collapsible=0;dropTarget=0;fillColor=none;points=[[0,0.5],[1,0.5]];portConstraint=eastwest;strokeColor=inherit;fontSize=16;" parent="j4Dh2sjCp8QDIXTv8ryV-35" vertex="1">
          <mxGeometry y="150" width="160" height="30" as="geometry" />
        </mxCell>
        <mxCell id="j4Dh2sjCp8QDIXTv8ryV-52" value="" style="shape=partialRectangle;html=1;whiteSpace=wrap;connectable=0;fillColor=none;top=0;left=0;bottom=0;right=0;overflow=hidden;strokeColor=inherit;fontSize=16;" parent="j4Dh2sjCp8QDIXTv8ryV-51" vertex="1">
          <mxGeometry width="36" height="30" as="geometry">
            <mxRectangle width="36" height="30" as="alternateBounds" />
          </mxGeometry>
        </mxCell>
        <mxCell id="j4Dh2sjCp8QDIXTv8ryV-53" value="&lt;span style=&quot;font-size: 12px;&quot;&gt;instructor&lt;/span&gt;&lt;span style=&quot;font-size: 12px;&quot;&gt;-phone&lt;/span&gt;" style="shape=partialRectangle;html=1;whiteSpace=wrap;connectable=0;fillColor=none;top=0;left=0;bottom=0;right=0;align=left;spacingLeft=6;overflow=hidden;strokeColor=inherit;fontSize=16;" parent="j4Dh2sjCp8QDIXTv8ryV-51" vertex="1">
          <mxGeometry x="36" width="124" height="30" as="geometry">
            <mxRectangle width="124" height="30" as="alternateBounds" />
          </mxGeometry>
        </mxCell>
        <mxCell id="GdlQhDkwiyZ--6wiS9G9-119" value="" style="shape=tableRow;horizontal=0;startSize=0;swimlaneHead=0;swimlaneBody=0;top=0;left=0;bottom=0;right=0;collapsible=0;dropTarget=0;fillColor=none;points=[[0,0.5],[1,0.5]];portConstraint=eastwest;strokeColor=inherit;fontSize=16;" parent="j4Dh2sjCp8QDIXTv8ryV-35" vertex="1">
          <mxGeometry y="180" width="160" height="30" as="geometry" />
        </mxCell>
        <mxCell id="GdlQhDkwiyZ--6wiS9G9-120" value="FK" style="shape=partialRectangle;html=1;whiteSpace=wrap;connectable=0;fillColor=none;top=0;left=0;bottom=0;right=0;overflow=hidden;strokeColor=inherit;fontSize=16;" parent="GdlQhDkwiyZ--6wiS9G9-119" vertex="1">
          <mxGeometry width="36" height="30" as="geometry">
            <mxRectangle width="36" height="30" as="alternateBounds" />
          </mxGeometry>
        </mxCell>
        <mxCell id="GdlQhDkwiyZ--6wiS9G9-121" value="&lt;span style=&quot;font-size: 12px;&quot;&gt;training-manager-id&lt;/span&gt;" style="shape=partialRectangle;html=1;whiteSpace=wrap;connectable=0;fillColor=none;top=0;left=0;bottom=0;right=0;align=left;spacingLeft=6;overflow=hidden;strokeColor=inherit;fontSize=16;" parent="GdlQhDkwiyZ--6wiS9G9-119" vertex="1">
          <mxGeometry x="36" width="124" height="30" as="geometry">
            <mxRectangle width="124" height="30" as="alternateBounds" />
          </mxGeometry>
        </mxCell>
        <mxCell id="j4Dh2sjCp8QDIXTv8ryV-70" value="Course" style="shape=table;startSize=30;container=1;collapsible=0;childLayout=tableLayout;fixedRows=1;rowLines=0;fontStyle=0;strokeColor=default;fontSize=16;" parent="1" vertex="1">
          <mxGeometry x="1515" y="1760" width="160" height="210" as="geometry" />
        </mxCell>
        <mxCell id="j4Dh2sjCp8QDIXTv8ryV-71" value="" style="shape=tableRow;horizontal=0;startSize=0;swimlaneHead=0;swimlaneBody=0;top=0;left=0;bottom=0;right=0;collapsible=0;dropTarget=0;fillColor=none;points=[[0,0.5],[1,0.5]];portConstraint=eastwest;strokeColor=inherit;fontSize=16;" parent="j4Dh2sjCp8QDIXTv8ryV-70" vertex="1">
          <mxGeometry y="30" width="160" height="30" as="geometry" />
        </mxCell>
        <mxCell id="j4Dh2sjCp8QDIXTv8ryV-72" value="PK" style="shape=partialRectangle;html=1;whiteSpace=wrap;connectable=0;fillColor=none;top=0;left=0;bottom=0;right=0;overflow=hidden;pointerEvents=1;strokeColor=inherit;fontSize=16;" parent="j4Dh2sjCp8QDIXTv8ryV-71" vertex="1">
          <mxGeometry width="36" height="30" as="geometry">
            <mxRectangle width="36" height="30" as="alternateBounds" />
          </mxGeometry>
        </mxCell>
        <mxCell id="j4Dh2sjCp8QDIXTv8ryV-73" value="&lt;span style=&quot;font-size: 12px; text-align: center;&quot;&gt;course-id&lt;/span&gt;" style="shape=partialRectangle;html=1;whiteSpace=wrap;connectable=0;fillColor=none;top=0;left=0;bottom=0;right=0;align=left;spacingLeft=6;overflow=hidden;strokeColor=inherit;fontSize=16;" parent="j4Dh2sjCp8QDIXTv8ryV-71" vertex="1">
          <mxGeometry x="36" width="124" height="30" as="geometry">
            <mxRectangle width="124" height="30" as="alternateBounds" />
          </mxGeometry>
        </mxCell>
        <mxCell id="j4Dh2sjCp8QDIXTv8ryV-74" value="" style="shape=tableRow;horizontal=0;startSize=0;swimlaneHead=0;swimlaneBody=0;top=0;left=0;bottom=0;right=0;collapsible=0;dropTarget=0;fillColor=none;points=[[0,0.5],[1,0.5]];portConstraint=eastwest;strokeColor=inherit;fontSize=16;" parent="j4Dh2sjCp8QDIXTv8ryV-70" vertex="1">
          <mxGeometry y="60" width="160" height="30" as="geometry" />
        </mxCell>
        <mxCell id="j4Dh2sjCp8QDIXTv8ryV-75" value="" style="shape=partialRectangle;html=1;whiteSpace=wrap;connectable=0;fillColor=none;top=0;left=0;bottom=0;right=0;overflow=hidden;strokeColor=inherit;fontSize=16;" parent="j4Dh2sjCp8QDIXTv8ryV-74" vertex="1">
          <mxGeometry width="36" height="30" as="geometry">
            <mxRectangle width="36" height="30" as="alternateBounds" />
          </mxGeometry>
        </mxCell>
        <mxCell id="j4Dh2sjCp8QDIXTv8ryV-76" value="&lt;span style=&quot;font-size: 12px; text-align: center;&quot;&gt;course-name&lt;/span&gt;" style="shape=partialRectangle;html=1;whiteSpace=wrap;connectable=0;fillColor=none;top=0;left=0;bottom=0;right=0;align=left;spacingLeft=6;overflow=hidden;strokeColor=inherit;fontSize=16;" parent="j4Dh2sjCp8QDIXTv8ryV-74" vertex="1">
          <mxGeometry x="36" width="124" height="30" as="geometry">
            <mxRectangle width="124" height="30" as="alternateBounds" />
          </mxGeometry>
        </mxCell>
        <mxCell id="j4Dh2sjCp8QDIXTv8ryV-77" value="" style="shape=tableRow;horizontal=0;startSize=0;swimlaneHead=0;swimlaneBody=0;top=0;left=0;bottom=0;right=0;collapsible=0;dropTarget=0;fillColor=none;points=[[0,0.5],[1,0.5]];portConstraint=eastwest;strokeColor=inherit;fontSize=16;" parent="j4Dh2sjCp8QDIXTv8ryV-70" vertex="1">
          <mxGeometry y="90" width="160" height="30" as="geometry" />
        </mxCell>
        <mxCell id="j4Dh2sjCp8QDIXTv8ryV-78" value="" style="shape=partialRectangle;html=1;whiteSpace=wrap;connectable=0;fillColor=none;top=0;left=0;bottom=0;right=0;overflow=hidden;strokeColor=inherit;fontSize=16;" parent="j4Dh2sjCp8QDIXTv8ryV-77" vertex="1">
          <mxGeometry width="36" height="30" as="geometry">
            <mxRectangle width="36" height="30" as="alternateBounds" />
          </mxGeometry>
        </mxCell>
        <mxCell id="j4Dh2sjCp8QDIXTv8ryV-79" value="&lt;span style=&quot;font-size: 12px; text-align: center;&quot;&gt;description&lt;/span&gt;" style="shape=partialRectangle;html=1;whiteSpace=wrap;connectable=0;fillColor=none;top=0;left=0;bottom=0;right=0;align=left;spacingLeft=6;overflow=hidden;strokeColor=inherit;fontSize=16;" parent="j4Dh2sjCp8QDIXTv8ryV-77" vertex="1">
          <mxGeometry x="36" width="124" height="30" as="geometry">
            <mxRectangle width="124" height="30" as="alternateBounds" />
          </mxGeometry>
        </mxCell>
        <mxCell id="j4Dh2sjCp8QDIXTv8ryV-82" value="" style="shape=tableRow;horizontal=0;startSize=0;swimlaneHead=0;swimlaneBody=0;top=0;left=0;bottom=0;right=0;collapsible=0;dropTarget=0;fillColor=none;points=[[0,0.5],[1,0.5]];portConstraint=eastwest;strokeColor=inherit;fontSize=16;" parent="j4Dh2sjCp8QDIXTv8ryV-70" vertex="1">
          <mxGeometry y="120" width="160" height="30" as="geometry" />
        </mxCell>
        <mxCell id="j4Dh2sjCp8QDIXTv8ryV-83" value="" style="shape=partialRectangle;html=1;whiteSpace=wrap;connectable=0;fillColor=none;top=0;left=0;bottom=0;right=0;overflow=hidden;strokeColor=inherit;fontSize=16;" parent="j4Dh2sjCp8QDIXTv8ryV-82" vertex="1">
          <mxGeometry width="36" height="30" as="geometry">
            <mxRectangle width="36" height="30" as="alternateBounds" />
          </mxGeometry>
        </mxCell>
        <mxCell id="j4Dh2sjCp8QDIXTv8ryV-84" value="&lt;span style=&quot;font-size: 12px; text-align: center;&quot;&gt;max-degree&lt;/span&gt;" style="shape=partialRectangle;html=1;whiteSpace=wrap;connectable=0;fillColor=none;top=0;left=0;bottom=0;right=0;align=left;spacingLeft=6;overflow=hidden;strokeColor=inherit;fontSize=16;" parent="j4Dh2sjCp8QDIXTv8ryV-82" vertex="1">
          <mxGeometry x="36" width="124" height="30" as="geometry">
            <mxRectangle width="124" height="30" as="alternateBounds" />
          </mxGeometry>
        </mxCell>
        <mxCell id="j4Dh2sjCp8QDIXTv8ryV-85" value="" style="shape=tableRow;horizontal=0;startSize=0;swimlaneHead=0;swimlaneBody=0;top=0;left=0;bottom=0;right=0;collapsible=0;dropTarget=0;fillColor=none;points=[[0,0.5],[1,0.5]];portConstraint=eastwest;strokeColor=inherit;fontSize=16;" parent="j4Dh2sjCp8QDIXTv8ryV-70" vertex="1">
          <mxGeometry y="150" width="160" height="30" as="geometry" />
        </mxCell>
        <mxCell id="j4Dh2sjCp8QDIXTv8ryV-86" value="" style="shape=partialRectangle;html=1;whiteSpace=wrap;connectable=0;fillColor=none;top=0;left=0;bottom=0;right=0;overflow=hidden;strokeColor=inherit;fontSize=16;" parent="j4Dh2sjCp8QDIXTv8ryV-85" vertex="1">
          <mxGeometry width="36" height="30" as="geometry">
            <mxRectangle width="36" height="30" as="alternateBounds" />
          </mxGeometry>
        </mxCell>
        <mxCell id="j4Dh2sjCp8QDIXTv8ryV-87" value="&lt;span style=&quot;font-size: 12px; text-align: center;&quot;&gt;min-degree&lt;/span&gt;" style="shape=partialRectangle;html=1;whiteSpace=wrap;connectable=0;fillColor=none;top=0;left=0;bottom=0;right=0;align=left;spacingLeft=6;overflow=hidden;strokeColor=inherit;fontSize=16;" parent="j4Dh2sjCp8QDIXTv8ryV-85" vertex="1">
          <mxGeometry x="36" width="124" height="30" as="geometry">
            <mxRectangle width="124" height="30" as="alternateBounds" />
          </mxGeometry>
        </mxCell>
        <mxCell id="oB9pb2-u7YMUF64o9EDQ-9" value="" style="shape=tableRow;horizontal=0;startSize=0;swimlaneHead=0;swimlaneBody=0;top=0;left=0;bottom=0;right=0;collapsible=0;dropTarget=0;fillColor=none;points=[[0,0.5],[1,0.5]];portConstraint=eastwest;strokeColor=inherit;fontSize=16;" parent="j4Dh2sjCp8QDIXTv8ryV-70" vertex="1">
          <mxGeometry y="180" width="160" height="30" as="geometry" />
        </mxCell>
        <mxCell id="oB9pb2-u7YMUF64o9EDQ-10" value="FK" style="shape=partialRectangle;html=1;whiteSpace=wrap;connectable=0;fillColor=none;top=0;left=0;bottom=0;right=0;overflow=hidden;strokeColor=inherit;fontSize=16;" parent="oB9pb2-u7YMUF64o9EDQ-9" vertex="1">
          <mxGeometry width="36" height="30" as="geometry">
            <mxRectangle width="36" height="30" as="alternateBounds" />
          </mxGeometry>
        </mxCell>
        <mxCell id="oB9pb2-u7YMUF64o9EDQ-11" value="&lt;span style=&quot;font-size: 12px; text-align: center;&quot;&gt;track-id&lt;/span&gt;" style="shape=partialRectangle;html=1;whiteSpace=wrap;connectable=0;fillColor=none;top=0;left=0;bottom=0;right=0;align=left;spacingLeft=6;overflow=hidden;strokeColor=inherit;fontSize=16;" parent="oB9pb2-u7YMUF64o9EDQ-9" vertex="1">
          <mxGeometry x="36" width="124" height="30" as="geometry">
            <mxRectangle width="124" height="30" as="alternateBounds" />
          </mxGeometry>
        </mxCell>
        <mxCell id="j4Dh2sjCp8QDIXTv8ryV-88" value="Question" style="shape=table;startSize=30;container=1;collapsible=0;childLayout=tableLayout;fixedRows=1;rowLines=0;fontStyle=0;strokeColor=default;fontSize=16;" parent="1" vertex="1">
          <mxGeometry x="1160" y="1440" width="160" height="120" as="geometry" />
        </mxCell>
        <mxCell id="j4Dh2sjCp8QDIXTv8ryV-89" value="" style="shape=tableRow;horizontal=0;startSize=0;swimlaneHead=0;swimlaneBody=0;top=0;left=0;bottom=0;right=0;collapsible=0;dropTarget=0;fillColor=none;points=[[0,0.5],[1,0.5]];portConstraint=eastwest;strokeColor=inherit;fontSize=16;" parent="j4Dh2sjCp8QDIXTv8ryV-88" vertex="1">
          <mxGeometry y="30" width="160" height="30" as="geometry" />
        </mxCell>
        <mxCell id="j4Dh2sjCp8QDIXTv8ryV-90" value="PK" style="shape=partialRectangle;html=1;whiteSpace=wrap;connectable=0;fillColor=none;top=0;left=0;bottom=0;right=0;overflow=hidden;pointerEvents=1;strokeColor=inherit;fontSize=16;" parent="j4Dh2sjCp8QDIXTv8ryV-89" vertex="1">
          <mxGeometry width="36" height="30" as="geometry">
            <mxRectangle width="36" height="30" as="alternateBounds" />
          </mxGeometry>
        </mxCell>
        <mxCell id="j4Dh2sjCp8QDIXTv8ryV-91" value="&lt;span style=&quot;font-size: 12px;&quot;&gt;question-id&lt;/span&gt;" style="shape=partialRectangle;html=1;whiteSpace=wrap;connectable=0;fillColor=none;top=0;left=0;bottom=0;right=0;align=left;spacingLeft=6;overflow=hidden;strokeColor=inherit;fontSize=16;" parent="j4Dh2sjCp8QDIXTv8ryV-89" vertex="1">
          <mxGeometry x="36" width="124" height="30" as="geometry">
            <mxRectangle width="124" height="30" as="alternateBounds" />
          </mxGeometry>
        </mxCell>
        <mxCell id="j4Dh2sjCp8QDIXTv8ryV-92" value="" style="shape=tableRow;horizontal=0;startSize=0;swimlaneHead=0;swimlaneBody=0;top=0;left=0;bottom=0;right=0;collapsible=0;dropTarget=0;fillColor=none;points=[[0,0.5],[1,0.5]];portConstraint=eastwest;strokeColor=inherit;fontSize=16;" parent="j4Dh2sjCp8QDIXTv8ryV-88" vertex="1">
          <mxGeometry y="60" width="160" height="30" as="geometry" />
        </mxCell>
        <mxCell id="j4Dh2sjCp8QDIXTv8ryV-93" value="" style="shape=partialRectangle;html=1;whiteSpace=wrap;connectable=0;fillColor=none;top=0;left=0;bottom=0;right=0;overflow=hidden;pointerEvents=1;strokeColor=inherit;fontSize=16;" parent="j4Dh2sjCp8QDIXTv8ryV-92" vertex="1">
          <mxGeometry width="36" height="30" as="geometry">
            <mxRectangle width="36" height="30" as="alternateBounds" />
          </mxGeometry>
        </mxCell>
        <mxCell id="j4Dh2sjCp8QDIXTv8ryV-94" value="&lt;span style=&quot;font-size: 12px;&quot;&gt;question-type&lt;/span&gt;" style="shape=partialRectangle;html=1;whiteSpace=wrap;connectable=0;fillColor=none;top=0;left=0;bottom=0;right=0;align=left;spacingLeft=6;overflow=hidden;strokeColor=inherit;fontSize=16;" parent="j4Dh2sjCp8QDIXTv8ryV-92" vertex="1">
          <mxGeometry x="36" width="124" height="30" as="geometry">
            <mxRectangle width="124" height="30" as="alternateBounds" />
          </mxGeometry>
        </mxCell>
        <mxCell id="GdlQhDkwiyZ--6wiS9G9-106" value="" style="shape=tableRow;horizontal=0;startSize=0;swimlaneHead=0;swimlaneBody=0;top=0;left=0;bottom=0;right=0;collapsible=0;dropTarget=0;fillColor=none;points=[[0,0.5],[1,0.5]];portConstraint=eastwest;strokeColor=inherit;fontSize=16;" parent="j4Dh2sjCp8QDIXTv8ryV-88" vertex="1">
          <mxGeometry y="90" width="160" height="30" as="geometry" />
        </mxCell>
        <mxCell id="GdlQhDkwiyZ--6wiS9G9-107" value="FK" style="shape=partialRectangle;html=1;whiteSpace=wrap;connectable=0;fillColor=none;top=0;left=0;bottom=0;right=0;overflow=hidden;pointerEvents=1;strokeColor=inherit;fontSize=16;" parent="GdlQhDkwiyZ--6wiS9G9-106" vertex="1">
          <mxGeometry width="36" height="30" as="geometry">
            <mxRectangle width="36" height="30" as="alternateBounds" />
          </mxGeometry>
        </mxCell>
        <mxCell id="GdlQhDkwiyZ--6wiS9G9-108" value="&lt;span style=&quot;font-size: 12px; text-align: center;&quot;&gt;course-id&lt;/span&gt;" style="shape=partialRectangle;html=1;whiteSpace=wrap;connectable=0;fillColor=none;top=0;left=0;bottom=0;right=0;align=left;spacingLeft=6;overflow=hidden;strokeColor=inherit;fontSize=16;" parent="GdlQhDkwiyZ--6wiS9G9-106" vertex="1">
          <mxGeometry x="36" width="124" height="30" as="geometry">
            <mxRectangle width="124" height="30" as="alternateBounds" />
          </mxGeometry>
        </mxCell>
        <mxCell id="j4Dh2sjCp8QDIXTv8ryV-95" value="TF" style="shape=table;startSize=30;container=1;collapsible=0;childLayout=tableLayout;fixedRows=1;rowLines=0;fontStyle=0;strokeColor=default;fontSize=16;" parent="1" vertex="1">
          <mxGeometry x="880" y="1600" width="160" height="160" as="geometry" />
        </mxCell>
        <mxCell id="j4Dh2sjCp8QDIXTv8ryV-96" value="" style="shape=tableRow;horizontal=0;startSize=0;swimlaneHead=0;swimlaneBody=0;top=0;left=0;bottom=0;right=0;collapsible=0;dropTarget=0;fillColor=none;points=[[0,0.5],[1,0.5]];portConstraint=eastwest;strokeColor=inherit;fontSize=16;" parent="j4Dh2sjCp8QDIXTv8ryV-95" vertex="1">
          <mxGeometry y="30" width="160" height="30" as="geometry" />
        </mxCell>
        <mxCell id="j4Dh2sjCp8QDIXTv8ryV-97" value="PK" style="shape=partialRectangle;html=1;whiteSpace=wrap;connectable=0;fillColor=none;top=0;left=0;bottom=0;right=0;overflow=hidden;pointerEvents=1;strokeColor=inherit;fontSize=16;" parent="j4Dh2sjCp8QDIXTv8ryV-96" vertex="1">
          <mxGeometry width="36" height="30" as="geometry">
            <mxRectangle width="36" height="30" as="alternateBounds" />
          </mxGeometry>
        </mxCell>
        <mxCell id="j4Dh2sjCp8QDIXTv8ryV-98" value="&lt;span style=&quot;font-size: 12px;&quot;&gt;question-type-id&lt;/span&gt;" style="shape=partialRectangle;html=1;whiteSpace=wrap;connectable=0;fillColor=none;top=0;left=0;bottom=0;right=0;align=left;spacingLeft=6;overflow=hidden;strokeColor=inherit;fontSize=16;" parent="j4Dh2sjCp8QDIXTv8ryV-96" vertex="1">
          <mxGeometry x="36" width="124" height="30" as="geometry">
            <mxRectangle width="124" height="30" as="alternateBounds" />
          </mxGeometry>
        </mxCell>
        <mxCell id="j4Dh2sjCp8QDIXTv8ryV-99" value="" style="shape=tableRow;horizontal=0;startSize=0;swimlaneHead=0;swimlaneBody=0;top=0;left=0;bottom=0;right=0;collapsible=0;dropTarget=0;fillColor=none;points=[[0,0.5],[1,0.5]];portConstraint=eastwest;strokeColor=inherit;fontSize=16;" parent="j4Dh2sjCp8QDIXTv8ryV-95" vertex="1">
          <mxGeometry y="60" width="160" height="30" as="geometry" />
        </mxCell>
        <mxCell id="j4Dh2sjCp8QDIXTv8ryV-100" value="" style="shape=partialRectangle;html=1;whiteSpace=wrap;connectable=0;fillColor=none;top=0;left=0;bottom=0;right=0;overflow=hidden;pointerEvents=1;strokeColor=inherit;fontSize=16;" parent="j4Dh2sjCp8QDIXTv8ryV-99" vertex="1">
          <mxGeometry width="36" height="30" as="geometry">
            <mxRectangle width="36" height="30" as="alternateBounds" />
          </mxGeometry>
        </mxCell>
        <mxCell id="j4Dh2sjCp8QDIXTv8ryV-101" value="&lt;span style=&quot;font-size: 12px; text-align: center;&quot;&gt;question-name&lt;/span&gt;" style="shape=partialRectangle;html=1;whiteSpace=wrap;connectable=0;fillColor=none;top=0;left=0;bottom=0;right=0;align=left;spacingLeft=6;overflow=hidden;strokeColor=inherit;fontSize=16;" parent="j4Dh2sjCp8QDIXTv8ryV-99" vertex="1">
          <mxGeometry x="36" width="124" height="30" as="geometry">
            <mxRectangle width="124" height="30" as="alternateBounds" />
          </mxGeometry>
        </mxCell>
        <mxCell id="j4Dh2sjCp8QDIXTv8ryV-108" value="" style="shape=tableRow;horizontal=0;startSize=0;swimlaneHead=0;swimlaneBody=0;top=0;left=0;bottom=0;right=0;collapsible=0;dropTarget=0;fillColor=none;points=[[0,0.5],[1,0.5]];portConstraint=eastwest;strokeColor=inherit;fontSize=16;" parent="j4Dh2sjCp8QDIXTv8ryV-95" vertex="1">
          <mxGeometry y="90" width="160" height="30" as="geometry" />
        </mxCell>
        <mxCell id="j4Dh2sjCp8QDIXTv8ryV-109" value="" style="shape=partialRectangle;html=1;whiteSpace=wrap;connectable=0;fillColor=none;top=0;left=0;bottom=0;right=0;overflow=hidden;pointerEvents=1;strokeColor=inherit;fontSize=16;" parent="j4Dh2sjCp8QDIXTv8ryV-108" vertex="1">
          <mxGeometry width="36" height="30" as="geometry">
            <mxRectangle width="36" height="30" as="alternateBounds" />
          </mxGeometry>
        </mxCell>
        <mxCell id="j4Dh2sjCp8QDIXTv8ryV-110" value="&lt;span style=&quot;font-size: 12px; text-align: center;&quot;&gt;correct-answer&lt;/span&gt;" style="shape=partialRectangle;html=1;whiteSpace=wrap;connectable=0;fillColor=none;top=0;left=0;bottom=0;right=0;align=left;spacingLeft=6;overflow=hidden;strokeColor=inherit;fontSize=16;" parent="j4Dh2sjCp8QDIXTv8ryV-108" vertex="1">
          <mxGeometry x="36" width="124" height="30" as="geometry">
            <mxRectangle width="124" height="30" as="alternateBounds" />
          </mxGeometry>
        </mxCell>
        <mxCell id="GdlQhDkwiyZ--6wiS9G9-94" value="" style="shape=tableRow;horizontal=0;startSize=0;swimlaneHead=0;swimlaneBody=0;top=0;left=0;bottom=0;right=0;collapsible=0;dropTarget=0;fillColor=none;points=[[0,0.5],[1,0.5]];portConstraint=eastwest;strokeColor=inherit;fontSize=16;" parent="j4Dh2sjCp8QDIXTv8ryV-95" vertex="1">
          <mxGeometry y="120" width="160" height="40" as="geometry" />
        </mxCell>
        <mxCell id="GdlQhDkwiyZ--6wiS9G9-95" value="FK" style="shape=partialRectangle;html=1;whiteSpace=wrap;connectable=0;fillColor=none;top=0;left=0;bottom=0;right=0;overflow=hidden;pointerEvents=1;strokeColor=inherit;fontSize=16;" parent="GdlQhDkwiyZ--6wiS9G9-94" vertex="1">
          <mxGeometry width="36" height="40" as="geometry">
            <mxRectangle width="36" height="40" as="alternateBounds" />
          </mxGeometry>
        </mxCell>
        <mxCell id="GdlQhDkwiyZ--6wiS9G9-96" value="&lt;span style=&quot;font-size: 12px;&quot;&gt;question-id&lt;/span&gt;" style="shape=partialRectangle;html=1;whiteSpace=wrap;connectable=0;fillColor=none;top=0;left=0;bottom=0;right=0;align=left;spacingLeft=6;overflow=hidden;strokeColor=inherit;fontSize=16;" parent="GdlQhDkwiyZ--6wiS9G9-94" vertex="1">
          <mxGeometry x="36" width="124" height="40" as="geometry">
            <mxRectangle width="124" height="40" as="alternateBounds" />
          </mxGeometry>
        </mxCell>
        <mxCell id="j4Dh2sjCp8QDIXTv8ryV-102" value="&lt;span style=&quot;text-align: left;&quot;&gt;question-type-id&lt;/span&gt;" style="ellipse;whiteSpace=wrap;html=1;fillColor=#d5e8d4;strokeColor=#82b366;" parent="1" vertex="1">
          <mxGeometry x="1345" y="940" width="100" height="30" as="geometry" />
        </mxCell>
        <mxCell id="j4Dh2sjCp8QDIXTv8ryV-103" value="" style="endArrow=none;html=1;rounded=0;exitX=1;exitY=0.5;exitDx=0;exitDy=0;" parent="1" source="iIM-NgGlBtSzI43fGDoz-54" edge="1">
          <mxGeometry width="50" height="50" relative="1" as="geometry">
            <mxPoint x="1295" y="1005" as="sourcePoint" />
            <mxPoint x="1345" y="955" as="targetPoint" />
          </mxGeometry>
        </mxCell>
        <mxCell id="j4Dh2sjCp8QDIXTv8ryV-104" value="&lt;span style=&quot;text-align: left;&quot;&gt;question-type-id&lt;/span&gt;" style="ellipse;whiteSpace=wrap;html=1;fillColor=#d5e8d4;strokeColor=#82b366;" parent="1" vertex="1">
          <mxGeometry x="880" y="1060" width="100" height="30" as="geometry" />
        </mxCell>
        <mxCell id="j4Dh2sjCp8QDIXTv8ryV-105" value="" style="endArrow=none;html=1;rounded=0;exitX=0;exitY=0;exitDx=0;exitDy=0;" parent="1" source="j4Dh2sjCp8QDIXTv8ryV-104" edge="1">
          <mxGeometry width="50" height="50" relative="1" as="geometry">
            <mxPoint x="860" y="1010" as="sourcePoint" />
            <mxPoint x="910" y="960" as="targetPoint" />
            <Array as="points">
              <mxPoint x="890" y="1010" />
            </Array>
          </mxGeometry>
        </mxCell>
        <mxCell id="j4Dh2sjCp8QDIXTv8ryV-106" value="&lt;span style=&quot;text-align: left;&quot;&gt;question-type-id&lt;/span&gt;" style="ellipse;whiteSpace=wrap;html=1;fillColor=#d5e8d4;strokeColor=#82b366;" parent="1" vertex="1">
          <mxGeometry x="1030" y="1050" width="100" height="30" as="geometry" />
        </mxCell>
        <mxCell id="j4Dh2sjCp8QDIXTv8ryV-107" value="" style="endArrow=none;html=1;rounded=0;exitX=0.5;exitY=0;exitDx=0;exitDy=0;" parent="1" source="j4Dh2sjCp8QDIXTv8ryV-106" edge="1">
          <mxGeometry width="50" height="50" relative="1" as="geometry">
            <mxPoint x="1045" y="1010" as="sourcePoint" />
            <mxPoint x="1095" y="960" as="targetPoint" />
          </mxGeometry>
        </mxCell>
        <mxCell id="j4Dh2sjCp8QDIXTv8ryV-111" value="Choose" style="shape=table;startSize=30;container=1;collapsible=0;childLayout=tableLayout;fixedRows=1;rowLines=0;fontStyle=0;strokeColor=default;fontSize=16;" parent="1" vertex="1">
          <mxGeometry x="1280" y="1600" width="160" height="280" as="geometry" />
        </mxCell>
        <mxCell id="j4Dh2sjCp8QDIXTv8ryV-112" value="" style="shape=tableRow;horizontal=0;startSize=0;swimlaneHead=0;swimlaneBody=0;top=0;left=0;bottom=0;right=0;collapsible=0;dropTarget=0;fillColor=none;points=[[0,0.5],[1,0.5]];portConstraint=eastwest;strokeColor=inherit;fontSize=16;" parent="j4Dh2sjCp8QDIXTv8ryV-111" vertex="1">
          <mxGeometry y="30" width="160" height="30" as="geometry" />
        </mxCell>
        <mxCell id="j4Dh2sjCp8QDIXTv8ryV-113" value="PK" style="shape=partialRectangle;html=1;whiteSpace=wrap;connectable=0;fillColor=none;top=0;left=0;bottom=0;right=0;overflow=hidden;pointerEvents=1;strokeColor=inherit;fontSize=16;" parent="j4Dh2sjCp8QDIXTv8ryV-112" vertex="1">
          <mxGeometry width="36" height="30" as="geometry">
            <mxRectangle width="36" height="30" as="alternateBounds" />
          </mxGeometry>
        </mxCell>
        <mxCell id="j4Dh2sjCp8QDIXTv8ryV-114" value="&lt;span style=&quot;font-size: 12px;&quot;&gt;question-type-id&lt;/span&gt;" style="shape=partialRectangle;html=1;whiteSpace=wrap;connectable=0;fillColor=none;top=0;left=0;bottom=0;right=0;align=left;spacingLeft=6;overflow=hidden;strokeColor=inherit;fontSize=16;" parent="j4Dh2sjCp8QDIXTv8ryV-112" vertex="1">
          <mxGeometry x="36" width="124" height="30" as="geometry">
            <mxRectangle width="124" height="30" as="alternateBounds" />
          </mxGeometry>
        </mxCell>
        <mxCell id="j4Dh2sjCp8QDIXTv8ryV-115" value="" style="shape=tableRow;horizontal=0;startSize=0;swimlaneHead=0;swimlaneBody=0;top=0;left=0;bottom=0;right=0;collapsible=0;dropTarget=0;fillColor=none;points=[[0,0.5],[1,0.5]];portConstraint=eastwest;strokeColor=inherit;fontSize=16;" parent="j4Dh2sjCp8QDIXTv8ryV-111" vertex="1">
          <mxGeometry y="60" width="160" height="30" as="geometry" />
        </mxCell>
        <mxCell id="j4Dh2sjCp8QDIXTv8ryV-116" value="" style="shape=partialRectangle;html=1;whiteSpace=wrap;connectable=0;fillColor=none;top=0;left=0;bottom=0;right=0;overflow=hidden;pointerEvents=1;strokeColor=inherit;fontSize=16;" parent="j4Dh2sjCp8QDIXTv8ryV-115" vertex="1">
          <mxGeometry width="36" height="30" as="geometry">
            <mxRectangle width="36" height="30" as="alternateBounds" />
          </mxGeometry>
        </mxCell>
        <mxCell id="j4Dh2sjCp8QDIXTv8ryV-117" value="&lt;span style=&quot;font-size: 12px; text-align: center;&quot;&gt;question-name&lt;/span&gt;" style="shape=partialRectangle;html=1;whiteSpace=wrap;connectable=0;fillColor=none;top=0;left=0;bottom=0;right=0;align=left;spacingLeft=6;overflow=hidden;strokeColor=inherit;fontSize=16;" parent="j4Dh2sjCp8QDIXTv8ryV-115" vertex="1">
          <mxGeometry x="36" width="124" height="30" as="geometry">
            <mxRectangle width="124" height="30" as="alternateBounds" />
          </mxGeometry>
        </mxCell>
        <mxCell id="j4Dh2sjCp8QDIXTv8ryV-118" value="" style="shape=tableRow;horizontal=0;startSize=0;swimlaneHead=0;swimlaneBody=0;top=0;left=0;bottom=0;right=0;collapsible=0;dropTarget=0;fillColor=none;points=[[0,0.5],[1,0.5]];portConstraint=eastwest;strokeColor=inherit;fontSize=16;" parent="j4Dh2sjCp8QDIXTv8ryV-111" vertex="1">
          <mxGeometry y="90" width="160" height="30" as="geometry" />
        </mxCell>
        <mxCell id="j4Dh2sjCp8QDIXTv8ryV-119" value="" style="shape=partialRectangle;html=1;whiteSpace=wrap;connectable=0;fillColor=none;top=0;left=0;bottom=0;right=0;overflow=hidden;pointerEvents=1;strokeColor=inherit;fontSize=16;" parent="j4Dh2sjCp8QDIXTv8ryV-118" vertex="1">
          <mxGeometry width="36" height="30" as="geometry">
            <mxRectangle width="36" height="30" as="alternateBounds" />
          </mxGeometry>
        </mxCell>
        <mxCell id="j4Dh2sjCp8QDIXTv8ryV-120" value="&lt;span style=&quot;font-size: 12px; text-align: center;&quot;&gt;correct-answer&lt;/span&gt;" style="shape=partialRectangle;html=1;whiteSpace=wrap;connectable=0;fillColor=none;top=0;left=0;bottom=0;right=0;align=left;spacingLeft=6;overflow=hidden;strokeColor=inherit;fontSize=16;" parent="j4Dh2sjCp8QDIXTv8ryV-118" vertex="1">
          <mxGeometry x="36" width="124" height="30" as="geometry">
            <mxRectangle width="124" height="30" as="alternateBounds" />
          </mxGeometry>
        </mxCell>
        <mxCell id="j4Dh2sjCp8QDIXTv8ryV-121" value="" style="shape=tableRow;horizontal=0;startSize=0;swimlaneHead=0;swimlaneBody=0;top=0;left=0;bottom=0;right=0;collapsible=0;dropTarget=0;fillColor=none;points=[[0,0.5],[1,0.5]];portConstraint=eastwest;strokeColor=inherit;fontSize=16;" parent="j4Dh2sjCp8QDIXTv8ryV-111" vertex="1">
          <mxGeometry y="120" width="160" height="30" as="geometry" />
        </mxCell>
        <mxCell id="j4Dh2sjCp8QDIXTv8ryV-122" value="" style="shape=partialRectangle;html=1;whiteSpace=wrap;connectable=0;fillColor=none;top=0;left=0;bottom=0;right=0;overflow=hidden;pointerEvents=1;strokeColor=inherit;fontSize=16;" parent="j4Dh2sjCp8QDIXTv8ryV-121" vertex="1">
          <mxGeometry width="36" height="30" as="geometry">
            <mxRectangle width="36" height="30" as="alternateBounds" />
          </mxGeometry>
        </mxCell>
        <mxCell id="j4Dh2sjCp8QDIXTv8ryV-123" value="&lt;span style=&quot;font-size: 12px; text-align: center;&quot;&gt;A&lt;/span&gt;" style="shape=partialRectangle;html=1;whiteSpace=wrap;connectable=0;fillColor=none;top=0;left=0;bottom=0;right=0;align=left;spacingLeft=6;overflow=hidden;strokeColor=inherit;fontSize=16;" parent="j4Dh2sjCp8QDIXTv8ryV-121" vertex="1">
          <mxGeometry x="36" width="124" height="30" as="geometry">
            <mxRectangle width="124" height="30" as="alternateBounds" />
          </mxGeometry>
        </mxCell>
        <mxCell id="j4Dh2sjCp8QDIXTv8ryV-124" value="" style="shape=tableRow;horizontal=0;startSize=0;swimlaneHead=0;swimlaneBody=0;top=0;left=0;bottom=0;right=0;collapsible=0;dropTarget=0;fillColor=none;points=[[0,0.5],[1,0.5]];portConstraint=eastwest;strokeColor=inherit;fontSize=16;" parent="j4Dh2sjCp8QDIXTv8ryV-111" vertex="1">
          <mxGeometry y="150" width="160" height="30" as="geometry" />
        </mxCell>
        <mxCell id="j4Dh2sjCp8QDIXTv8ryV-125" value="" style="shape=partialRectangle;html=1;whiteSpace=wrap;connectable=0;fillColor=none;top=0;left=0;bottom=0;right=0;overflow=hidden;pointerEvents=1;strokeColor=inherit;fontSize=16;" parent="j4Dh2sjCp8QDIXTv8ryV-124" vertex="1">
          <mxGeometry width="36" height="30" as="geometry">
            <mxRectangle width="36" height="30" as="alternateBounds" />
          </mxGeometry>
        </mxCell>
        <mxCell id="j4Dh2sjCp8QDIXTv8ryV-126" value="&lt;span style=&quot;font-size: 12px; text-align: center;&quot;&gt;B&lt;/span&gt;" style="shape=partialRectangle;html=1;whiteSpace=wrap;connectable=0;fillColor=none;top=0;left=0;bottom=0;right=0;align=left;spacingLeft=6;overflow=hidden;strokeColor=inherit;fontSize=16;" parent="j4Dh2sjCp8QDIXTv8ryV-124" vertex="1">
          <mxGeometry x="36" width="124" height="30" as="geometry">
            <mxRectangle width="124" height="30" as="alternateBounds" />
          </mxGeometry>
        </mxCell>
        <mxCell id="j4Dh2sjCp8QDIXTv8ryV-127" value="" style="shape=tableRow;horizontal=0;startSize=0;swimlaneHead=0;swimlaneBody=0;top=0;left=0;bottom=0;right=0;collapsible=0;dropTarget=0;fillColor=none;points=[[0,0.5],[1,0.5]];portConstraint=eastwest;strokeColor=inherit;fontSize=16;" parent="j4Dh2sjCp8QDIXTv8ryV-111" vertex="1">
          <mxGeometry y="180" width="160" height="30" as="geometry" />
        </mxCell>
        <mxCell id="j4Dh2sjCp8QDIXTv8ryV-128" value="" style="shape=partialRectangle;html=1;whiteSpace=wrap;connectable=0;fillColor=none;top=0;left=0;bottom=0;right=0;overflow=hidden;pointerEvents=1;strokeColor=inherit;fontSize=16;" parent="j4Dh2sjCp8QDIXTv8ryV-127" vertex="1">
          <mxGeometry width="36" height="30" as="geometry">
            <mxRectangle width="36" height="30" as="alternateBounds" />
          </mxGeometry>
        </mxCell>
        <mxCell id="j4Dh2sjCp8QDIXTv8ryV-129" value="&lt;span style=&quot;font-size: 12px; text-align: center;&quot;&gt;C&lt;/span&gt;" style="shape=partialRectangle;html=1;whiteSpace=wrap;connectable=0;fillColor=none;top=0;left=0;bottom=0;right=0;align=left;spacingLeft=6;overflow=hidden;strokeColor=inherit;fontSize=16;" parent="j4Dh2sjCp8QDIXTv8ryV-127" vertex="1">
          <mxGeometry x="36" width="124" height="30" as="geometry">
            <mxRectangle width="124" height="30" as="alternateBounds" />
          </mxGeometry>
        </mxCell>
        <mxCell id="j4Dh2sjCp8QDIXTv8ryV-130" value="" style="shape=tableRow;horizontal=0;startSize=0;swimlaneHead=0;swimlaneBody=0;top=0;left=0;bottom=0;right=0;collapsible=0;dropTarget=0;fillColor=none;points=[[0,0.5],[1,0.5]];portConstraint=eastwest;strokeColor=inherit;fontSize=16;" parent="j4Dh2sjCp8QDIXTv8ryV-111" vertex="1">
          <mxGeometry y="210" width="160" height="30" as="geometry" />
        </mxCell>
        <mxCell id="j4Dh2sjCp8QDIXTv8ryV-131" value="" style="shape=partialRectangle;html=1;whiteSpace=wrap;connectable=0;fillColor=none;top=0;left=0;bottom=0;right=0;overflow=hidden;pointerEvents=1;strokeColor=inherit;fontSize=16;" parent="j4Dh2sjCp8QDIXTv8ryV-130" vertex="1">
          <mxGeometry width="36" height="30" as="geometry">
            <mxRectangle width="36" height="30" as="alternateBounds" />
          </mxGeometry>
        </mxCell>
        <mxCell id="j4Dh2sjCp8QDIXTv8ryV-132" value="&lt;span style=&quot;font-size: 12px; text-align: center;&quot;&gt;D&lt;/span&gt;" style="shape=partialRectangle;html=1;whiteSpace=wrap;connectable=0;fillColor=none;top=0;left=0;bottom=0;right=0;align=left;spacingLeft=6;overflow=hidden;strokeColor=inherit;fontSize=16;" parent="j4Dh2sjCp8QDIXTv8ryV-130" vertex="1">
          <mxGeometry x="36" width="124" height="30" as="geometry">
            <mxRectangle width="124" height="30" as="alternateBounds" />
          </mxGeometry>
        </mxCell>
        <mxCell id="GdlQhDkwiyZ--6wiS9G9-87" value="" style="shape=tableRow;horizontal=0;startSize=0;swimlaneHead=0;swimlaneBody=0;top=0;left=0;bottom=0;right=0;collapsible=0;dropTarget=0;fillColor=none;points=[[0,0.5],[1,0.5]];portConstraint=eastwest;strokeColor=inherit;fontSize=16;" parent="j4Dh2sjCp8QDIXTv8ryV-111" vertex="1">
          <mxGeometry y="240" width="160" height="40" as="geometry" />
        </mxCell>
        <mxCell id="GdlQhDkwiyZ--6wiS9G9-88" value="FK" style="shape=partialRectangle;html=1;whiteSpace=wrap;connectable=0;fillColor=none;top=0;left=0;bottom=0;right=0;overflow=hidden;pointerEvents=1;strokeColor=inherit;fontSize=16;" parent="GdlQhDkwiyZ--6wiS9G9-87" vertex="1">
          <mxGeometry width="36" height="40" as="geometry">
            <mxRectangle width="36" height="40" as="alternateBounds" />
          </mxGeometry>
        </mxCell>
        <mxCell id="GdlQhDkwiyZ--6wiS9G9-89" value="&lt;span style=&quot;font-size: 12px;&quot;&gt;question-id&lt;/span&gt;" style="shape=partialRectangle;html=1;whiteSpace=wrap;connectable=0;fillColor=none;top=0;left=0;bottom=0;right=0;align=left;spacingLeft=6;overflow=hidden;strokeColor=inherit;fontSize=16;" parent="GdlQhDkwiyZ--6wiS9G9-87" vertex="1">
          <mxGeometry x="36" width="124" height="40" as="geometry">
            <mxRectangle width="124" height="40" as="alternateBounds" />
          </mxGeometry>
        </mxCell>
        <mxCell id="j4Dh2sjCp8QDIXTv8ryV-133" value="Text Question" style="shape=table;startSize=30;container=1;collapsible=0;childLayout=tableLayout;fixedRows=1;rowLines=0;fontStyle=0;strokeColor=default;fontSize=16;" parent="1" vertex="1">
          <mxGeometry x="1080" y="1600" width="160" height="150" as="geometry" />
        </mxCell>
        <mxCell id="j4Dh2sjCp8QDIXTv8ryV-134" value="" style="shape=tableRow;horizontal=0;startSize=0;swimlaneHead=0;swimlaneBody=0;top=0;left=0;bottom=0;right=0;collapsible=0;dropTarget=0;fillColor=none;points=[[0,0.5],[1,0.5]];portConstraint=eastwest;strokeColor=inherit;fontSize=16;" parent="j4Dh2sjCp8QDIXTv8ryV-133" vertex="1">
          <mxGeometry y="30" width="160" height="30" as="geometry" />
        </mxCell>
        <mxCell id="j4Dh2sjCp8QDIXTv8ryV-135" value="PK" style="shape=partialRectangle;html=1;whiteSpace=wrap;connectable=0;fillColor=none;top=0;left=0;bottom=0;right=0;overflow=hidden;pointerEvents=1;strokeColor=inherit;fontSize=16;" parent="j4Dh2sjCp8QDIXTv8ryV-134" vertex="1">
          <mxGeometry width="40" height="30" as="geometry">
            <mxRectangle width="40" height="30" as="alternateBounds" />
          </mxGeometry>
        </mxCell>
        <mxCell id="j4Dh2sjCp8QDIXTv8ryV-136" value="&lt;span style=&quot;font-size: 12px;&quot;&gt;question-type-id&lt;/span&gt;" style="shape=partialRectangle;html=1;whiteSpace=wrap;connectable=0;fillColor=none;top=0;left=0;bottom=0;right=0;align=left;spacingLeft=6;overflow=hidden;strokeColor=inherit;fontSize=16;" parent="j4Dh2sjCp8QDIXTv8ryV-134" vertex="1">
          <mxGeometry x="40" width="120" height="30" as="geometry">
            <mxRectangle width="120" height="30" as="alternateBounds" />
          </mxGeometry>
        </mxCell>
        <mxCell id="j4Dh2sjCp8QDIXTv8ryV-137" value="" style="shape=tableRow;horizontal=0;startSize=0;swimlaneHead=0;swimlaneBody=0;top=0;left=0;bottom=0;right=0;collapsible=0;dropTarget=0;fillColor=none;points=[[0,0.5],[1,0.5]];portConstraint=eastwest;strokeColor=inherit;fontSize=16;" parent="j4Dh2sjCp8QDIXTv8ryV-133" vertex="1">
          <mxGeometry y="60" width="160" height="30" as="geometry" />
        </mxCell>
        <mxCell id="j4Dh2sjCp8QDIXTv8ryV-138" value="" style="shape=partialRectangle;html=1;whiteSpace=wrap;connectable=0;fillColor=none;top=0;left=0;bottom=0;right=0;overflow=hidden;pointerEvents=1;strokeColor=inherit;fontSize=16;" parent="j4Dh2sjCp8QDIXTv8ryV-137" vertex="1">
          <mxGeometry width="40" height="30" as="geometry">
            <mxRectangle width="40" height="30" as="alternateBounds" />
          </mxGeometry>
        </mxCell>
        <mxCell id="j4Dh2sjCp8QDIXTv8ryV-139" value="&lt;span style=&quot;font-size: 12px; text-align: center;&quot;&gt;question-name&lt;/span&gt;" style="shape=partialRectangle;html=1;whiteSpace=wrap;connectable=0;fillColor=none;top=0;left=0;bottom=0;right=0;align=left;spacingLeft=6;overflow=hidden;strokeColor=inherit;fontSize=16;" parent="j4Dh2sjCp8QDIXTv8ryV-137" vertex="1">
          <mxGeometry x="40" width="120" height="30" as="geometry">
            <mxRectangle width="120" height="30" as="alternateBounds" />
          </mxGeometry>
        </mxCell>
        <mxCell id="j4Dh2sjCp8QDIXTv8ryV-140" value="" style="shape=tableRow;horizontal=0;startSize=0;swimlaneHead=0;swimlaneBody=0;top=0;left=0;bottom=0;right=0;collapsible=0;dropTarget=0;fillColor=none;points=[[0,0.5],[1,0.5]];portConstraint=eastwest;strokeColor=inherit;fontSize=16;" parent="j4Dh2sjCp8QDIXTv8ryV-133" vertex="1">
          <mxGeometry y="90" width="160" height="30" as="geometry" />
        </mxCell>
        <mxCell id="j4Dh2sjCp8QDIXTv8ryV-141" value="" style="shape=partialRectangle;html=1;whiteSpace=wrap;connectable=0;fillColor=none;top=0;left=0;bottom=0;right=0;overflow=hidden;pointerEvents=1;strokeColor=inherit;fontSize=16;" parent="j4Dh2sjCp8QDIXTv8ryV-140" vertex="1">
          <mxGeometry width="40" height="30" as="geometry">
            <mxRectangle width="40" height="30" as="alternateBounds" />
          </mxGeometry>
        </mxCell>
        <mxCell id="j4Dh2sjCp8QDIXTv8ryV-142" value="&lt;span style=&quot;font-size: 12px; text-align: center;&quot;&gt;correct-answer&lt;/span&gt;" style="shape=partialRectangle;html=1;whiteSpace=wrap;connectable=0;fillColor=none;top=0;left=0;bottom=0;right=0;align=left;spacingLeft=6;overflow=hidden;strokeColor=inherit;fontSize=16;" parent="j4Dh2sjCp8QDIXTv8ryV-140" vertex="1">
          <mxGeometry x="40" width="120" height="30" as="geometry">
            <mxRectangle width="120" height="30" as="alternateBounds" />
          </mxGeometry>
        </mxCell>
        <mxCell id="VCJFvidc2O2gGUz1S3MP-3" value="" style="shape=tableRow;horizontal=0;startSize=0;swimlaneHead=0;swimlaneBody=0;top=0;left=0;bottom=0;right=0;collapsible=0;dropTarget=0;fillColor=none;points=[[0,0.5],[1,0.5]];portConstraint=eastwest;strokeColor=inherit;fontSize=16;" parent="j4Dh2sjCp8QDIXTv8ryV-133" vertex="1">
          <mxGeometry y="120" width="160" height="30" as="geometry" />
        </mxCell>
        <mxCell id="VCJFvidc2O2gGUz1S3MP-4" value="FK" style="shape=partialRectangle;html=1;whiteSpace=wrap;connectable=0;fillColor=none;top=0;left=0;bottom=0;right=0;overflow=hidden;pointerEvents=1;strokeColor=inherit;fontSize=16;" parent="VCJFvidc2O2gGUz1S3MP-3" vertex="1">
          <mxGeometry width="40" height="30" as="geometry">
            <mxRectangle width="40" height="30" as="alternateBounds" />
          </mxGeometry>
        </mxCell>
        <mxCell id="VCJFvidc2O2gGUz1S3MP-5" value="&lt;span style=&quot;font-size: 12px;&quot;&gt;question-id&lt;/span&gt;" style="shape=partialRectangle;html=1;whiteSpace=wrap;connectable=0;fillColor=none;top=0;left=0;bottom=0;right=0;align=left;spacingLeft=6;overflow=hidden;strokeColor=inherit;fontSize=16;" parent="VCJFvidc2O2gGUz1S3MP-3" vertex="1">
          <mxGeometry x="40" width="120" height="30" as="geometry">
            <mxRectangle width="120" height="30" as="alternateBounds" />
          </mxGeometry>
        </mxCell>
        <mxCell id="j4Dh2sjCp8QDIXTv8ryV-146" value="Exam" style="shape=table;startSize=30;container=1;collapsible=0;childLayout=tableLayout;fixedRows=1;rowLines=0;fontStyle=0;strokeColor=default;fontSize=16;" parent="1" vertex="1">
          <mxGeometry x="1400" y="1200" width="160" height="240" as="geometry" />
        </mxCell>
        <mxCell id="j4Dh2sjCp8QDIXTv8ryV-147" value="" style="shape=tableRow;horizontal=0;startSize=0;swimlaneHead=0;swimlaneBody=0;top=0;left=0;bottom=0;right=0;collapsible=0;dropTarget=0;fillColor=none;points=[[0,0.5],[1,0.5]];portConstraint=eastwest;strokeColor=inherit;fontSize=16;" parent="j4Dh2sjCp8QDIXTv8ryV-146" vertex="1">
          <mxGeometry y="30" width="160" height="30" as="geometry" />
        </mxCell>
        <mxCell id="j4Dh2sjCp8QDIXTv8ryV-148" value="PK" style="shape=partialRectangle;html=1;whiteSpace=wrap;connectable=0;fillColor=none;top=0;left=0;bottom=0;right=0;overflow=hidden;pointerEvents=1;strokeColor=inherit;fontSize=16;" parent="j4Dh2sjCp8QDIXTv8ryV-147" vertex="1">
          <mxGeometry width="36" height="30" as="geometry">
            <mxRectangle width="36" height="30" as="alternateBounds" />
          </mxGeometry>
        </mxCell>
        <mxCell id="j4Dh2sjCp8QDIXTv8ryV-149" value="&lt;span style=&quot;font-size: 12px; text-align: center;&quot;&gt;exam-id&lt;/span&gt;" style="shape=partialRectangle;html=1;whiteSpace=wrap;connectable=0;fillColor=none;top=0;left=0;bottom=0;right=0;align=left;spacingLeft=6;overflow=hidden;strokeColor=inherit;fontSize=16;" parent="j4Dh2sjCp8QDIXTv8ryV-147" vertex="1">
          <mxGeometry x="36" width="124" height="30" as="geometry">
            <mxRectangle width="124" height="30" as="alternateBounds" />
          </mxGeometry>
        </mxCell>
        <mxCell id="j4Dh2sjCp8QDIXTv8ryV-150" value="" style="shape=tableRow;horizontal=0;startSize=0;swimlaneHead=0;swimlaneBody=0;top=0;left=0;bottom=0;right=0;collapsible=0;dropTarget=0;fillColor=none;points=[[0,0.5],[1,0.5]];portConstraint=eastwest;strokeColor=inherit;fontSize=16;" parent="j4Dh2sjCp8QDIXTv8ryV-146" vertex="1">
          <mxGeometry y="60" width="160" height="30" as="geometry" />
        </mxCell>
        <mxCell id="j4Dh2sjCp8QDIXTv8ryV-151" value="" style="shape=partialRectangle;html=1;whiteSpace=wrap;connectable=0;fillColor=none;top=0;left=0;bottom=0;right=0;overflow=hidden;strokeColor=inherit;fontSize=16;" parent="j4Dh2sjCp8QDIXTv8ryV-150" vertex="1">
          <mxGeometry width="36" height="30" as="geometry">
            <mxRectangle width="36" height="30" as="alternateBounds" />
          </mxGeometry>
        </mxCell>
        <mxCell id="j4Dh2sjCp8QDIXTv8ryV-152" value="&lt;span style=&quot;font-size: 12px; text-align: center;&quot;&gt;date&lt;/span&gt;" style="shape=partialRectangle;html=1;whiteSpace=wrap;connectable=0;fillColor=none;top=0;left=0;bottom=0;right=0;align=left;spacingLeft=6;overflow=hidden;strokeColor=inherit;fontSize=16;" parent="j4Dh2sjCp8QDIXTv8ryV-150" vertex="1">
          <mxGeometry x="36" width="124" height="30" as="geometry">
            <mxRectangle width="124" height="30" as="alternateBounds" />
          </mxGeometry>
        </mxCell>
        <mxCell id="j4Dh2sjCp8QDIXTv8ryV-153" value="" style="shape=tableRow;horizontal=0;startSize=0;swimlaneHead=0;swimlaneBody=0;top=0;left=0;bottom=0;right=0;collapsible=0;dropTarget=0;fillColor=none;points=[[0,0.5],[1,0.5]];portConstraint=eastwest;strokeColor=inherit;fontSize=16;" parent="j4Dh2sjCp8QDIXTv8ryV-146" vertex="1">
          <mxGeometry y="90" width="160" height="30" as="geometry" />
        </mxCell>
        <mxCell id="j4Dh2sjCp8QDIXTv8ryV-154" value="" style="shape=partialRectangle;html=1;whiteSpace=wrap;connectable=0;fillColor=none;top=0;left=0;bottom=0;right=0;overflow=hidden;strokeColor=inherit;fontSize=16;" parent="j4Dh2sjCp8QDIXTv8ryV-153" vertex="1">
          <mxGeometry width="36" height="30" as="geometry">
            <mxRectangle width="36" height="30" as="alternateBounds" />
          </mxGeometry>
        </mxCell>
        <mxCell id="j4Dh2sjCp8QDIXTv8ryV-155" value="&lt;span style=&quot;font-size: 12px; text-align: center;&quot;&gt;start-time&lt;/span&gt;" style="shape=partialRectangle;html=1;whiteSpace=wrap;connectable=0;fillColor=none;top=0;left=0;bottom=0;right=0;align=left;spacingLeft=6;overflow=hidden;strokeColor=inherit;fontSize=16;" parent="j4Dh2sjCp8QDIXTv8ryV-153" vertex="1">
          <mxGeometry x="36" width="124" height="30" as="geometry">
            <mxRectangle width="124" height="30" as="alternateBounds" />
          </mxGeometry>
        </mxCell>
        <mxCell id="j4Dh2sjCp8QDIXTv8ryV-156" value="" style="shape=tableRow;horizontal=0;startSize=0;swimlaneHead=0;swimlaneBody=0;top=0;left=0;bottom=0;right=0;collapsible=0;dropTarget=0;fillColor=none;points=[[0,0.5],[1,0.5]];portConstraint=eastwest;strokeColor=inherit;fontSize=16;" parent="j4Dh2sjCp8QDIXTv8ryV-146" vertex="1">
          <mxGeometry y="120" width="160" height="30" as="geometry" />
        </mxCell>
        <mxCell id="j4Dh2sjCp8QDIXTv8ryV-157" value="" style="shape=partialRectangle;html=1;whiteSpace=wrap;connectable=0;fillColor=none;top=0;left=0;bottom=0;right=0;overflow=hidden;strokeColor=inherit;fontSize=16;" parent="j4Dh2sjCp8QDIXTv8ryV-156" vertex="1">
          <mxGeometry width="36" height="30" as="geometry">
            <mxRectangle width="36" height="30" as="alternateBounds" />
          </mxGeometry>
        </mxCell>
        <mxCell id="j4Dh2sjCp8QDIXTv8ryV-158" value="&lt;span style=&quot;font-size: 12px; text-align: center;&quot;&gt;end-time&lt;/span&gt;" style="shape=partialRectangle;html=1;whiteSpace=wrap;connectable=0;fillColor=none;top=0;left=0;bottom=0;right=0;align=left;spacingLeft=6;overflow=hidden;strokeColor=inherit;fontSize=16;" parent="j4Dh2sjCp8QDIXTv8ryV-156" vertex="1">
          <mxGeometry x="36" width="124" height="30" as="geometry">
            <mxRectangle width="124" height="30" as="alternateBounds" />
          </mxGeometry>
        </mxCell>
        <mxCell id="j4Dh2sjCp8QDIXTv8ryV-162" value="" style="shape=tableRow;horizontal=0;startSize=0;swimlaneHead=0;swimlaneBody=0;top=0;left=0;bottom=0;right=0;collapsible=0;dropTarget=0;fillColor=none;points=[[0,0.5],[1,0.5]];portConstraint=eastwest;strokeColor=inherit;fontSize=16;" parent="j4Dh2sjCp8QDIXTv8ryV-146" vertex="1">
          <mxGeometry y="150" width="160" height="30" as="geometry" />
        </mxCell>
        <mxCell id="j4Dh2sjCp8QDIXTv8ryV-163" value="" style="shape=partialRectangle;html=1;whiteSpace=wrap;connectable=0;fillColor=none;top=0;left=0;bottom=0;right=0;overflow=hidden;strokeColor=inherit;fontSize=16;" parent="j4Dh2sjCp8QDIXTv8ryV-162" vertex="1">
          <mxGeometry width="36" height="30" as="geometry">
            <mxRectangle width="36" height="30" as="alternateBounds" />
          </mxGeometry>
        </mxCell>
        <mxCell id="j4Dh2sjCp8QDIXTv8ryV-164" value="&lt;span style=&quot;font-size: 12px; text-align: center;&quot;&gt;allowance-option&lt;/span&gt;" style="shape=partialRectangle;html=1;whiteSpace=wrap;connectable=0;fillColor=none;top=0;left=0;bottom=0;right=0;align=left;spacingLeft=6;overflow=hidden;strokeColor=inherit;fontSize=16;" parent="j4Dh2sjCp8QDIXTv8ryV-162" vertex="1">
          <mxGeometry x="36" width="124" height="30" as="geometry">
            <mxRectangle width="124" height="30" as="alternateBounds" />
          </mxGeometry>
        </mxCell>
        <mxCell id="j4Dh2sjCp8QDIXTv8ryV-165" value="" style="shape=tableRow;horizontal=0;startSize=0;swimlaneHead=0;swimlaneBody=0;top=0;left=0;bottom=0;right=0;collapsible=0;dropTarget=0;fillColor=none;points=[[0,0.5],[1,0.5]];portConstraint=eastwest;strokeColor=inherit;fontSize=16;" parent="j4Dh2sjCp8QDIXTv8ryV-146" vertex="1">
          <mxGeometry y="180" width="160" height="30" as="geometry" />
        </mxCell>
        <mxCell id="j4Dh2sjCp8QDIXTv8ryV-166" value="" style="shape=partialRectangle;html=1;whiteSpace=wrap;connectable=0;fillColor=none;top=0;left=0;bottom=0;right=0;overflow=hidden;strokeColor=inherit;fontSize=16;" parent="j4Dh2sjCp8QDIXTv8ryV-165" vertex="1">
          <mxGeometry width="36" height="30" as="geometry">
            <mxRectangle width="36" height="30" as="alternateBounds" />
          </mxGeometry>
        </mxCell>
        <mxCell id="j4Dh2sjCp8QDIXTv8ryV-167" value="&lt;span style=&quot;font-size: 12px; text-align: center;&quot;&gt;type&lt;/span&gt;" style="shape=partialRectangle;html=1;whiteSpace=wrap;connectable=0;fillColor=none;top=0;left=0;bottom=0;right=0;align=left;spacingLeft=6;overflow=hidden;strokeColor=inherit;fontSize=16;" parent="j4Dh2sjCp8QDIXTv8ryV-165" vertex="1">
          <mxGeometry x="36" width="124" height="30" as="geometry">
            <mxRectangle width="124" height="30" as="alternateBounds" />
          </mxGeometry>
        </mxCell>
        <mxCell id="j4Dh2sjCp8QDIXTv8ryV-168" value="" style="shape=tableRow;horizontal=0;startSize=0;swimlaneHead=0;swimlaneBody=0;top=0;left=0;bottom=0;right=0;collapsible=0;dropTarget=0;fillColor=none;points=[[0,0.5],[1,0.5]];portConstraint=eastwest;strokeColor=inherit;fontSize=16;" parent="j4Dh2sjCp8QDIXTv8ryV-146" vertex="1">
          <mxGeometry y="210" width="160" height="30" as="geometry" />
        </mxCell>
        <mxCell id="j4Dh2sjCp8QDIXTv8ryV-169" value="" style="shape=partialRectangle;html=1;whiteSpace=wrap;connectable=0;fillColor=none;top=0;left=0;bottom=0;right=0;overflow=hidden;strokeColor=inherit;fontSize=16;" parent="j4Dh2sjCp8QDIXTv8ryV-168" vertex="1">
          <mxGeometry width="36" height="30" as="geometry">
            <mxRectangle width="36" height="30" as="alternateBounds" />
          </mxGeometry>
        </mxCell>
        <mxCell id="j4Dh2sjCp8QDIXTv8ryV-170" value="&lt;span style=&quot;font-size: 12px; text-align: center;&quot;&gt;number-question&lt;/span&gt;" style="shape=partialRectangle;html=1;whiteSpace=wrap;connectable=0;fillColor=none;top=0;left=0;bottom=0;right=0;align=left;spacingLeft=6;overflow=hidden;strokeColor=inherit;fontSize=16;" parent="j4Dh2sjCp8QDIXTv8ryV-168" vertex="1">
          <mxGeometry x="36" width="124" height="30" as="geometry">
            <mxRectangle width="124" height="30" as="alternateBounds" />
          </mxGeometry>
        </mxCell>
        <mxCell id="j4Dh2sjCp8QDIXTv8ryV-171" value="Branch" style="shape=table;startSize=30;container=1;collapsible=0;childLayout=tableLayout;fixedRows=1;rowLines=0;fontStyle=0;strokeColor=default;fontSize=16;" parent="1" vertex="1">
          <mxGeometry x="2160" y="1200" width="160" height="120" as="geometry" />
        </mxCell>
        <mxCell id="j4Dh2sjCp8QDIXTv8ryV-172" value="" style="shape=tableRow;horizontal=0;startSize=0;swimlaneHead=0;swimlaneBody=0;top=0;left=0;bottom=0;right=0;collapsible=0;dropTarget=0;fillColor=none;points=[[0,0.5],[1,0.5]];portConstraint=eastwest;strokeColor=inherit;fontSize=16;" parent="j4Dh2sjCp8QDIXTv8ryV-171" vertex="1">
          <mxGeometry y="30" width="160" height="30" as="geometry" />
        </mxCell>
        <mxCell id="j4Dh2sjCp8QDIXTv8ryV-173" value="PK" style="shape=partialRectangle;html=1;whiteSpace=wrap;connectable=0;fillColor=none;top=0;left=0;bottom=0;right=0;overflow=hidden;pointerEvents=1;strokeColor=inherit;fontSize=16;" parent="j4Dh2sjCp8QDIXTv8ryV-172" vertex="1">
          <mxGeometry width="36" height="30" as="geometry">
            <mxRectangle width="36" height="30" as="alternateBounds" />
          </mxGeometry>
        </mxCell>
        <mxCell id="j4Dh2sjCp8QDIXTv8ryV-174" value="&lt;span style=&quot;font-size: 12px;&quot;&gt;branch-id&lt;/span&gt;" style="shape=partialRectangle;html=1;whiteSpace=wrap;connectable=0;fillColor=none;top=0;left=0;bottom=0;right=0;align=left;spacingLeft=6;overflow=hidden;strokeColor=inherit;fontSize=16;" parent="j4Dh2sjCp8QDIXTv8ryV-172" vertex="1">
          <mxGeometry x="36" width="124" height="30" as="geometry">
            <mxRectangle width="124" height="30" as="alternateBounds" />
          </mxGeometry>
        </mxCell>
        <mxCell id="j4Dh2sjCp8QDIXTv8ryV-176" value="" style="shape=tableRow;horizontal=0;startSize=0;swimlaneHead=0;swimlaneBody=0;top=0;left=0;bottom=0;right=0;collapsible=0;dropTarget=0;fillColor=none;points=[[0,0.5],[1,0.5]];portConstraint=eastwest;strokeColor=inherit;fontSize=16;" parent="j4Dh2sjCp8QDIXTv8ryV-171" vertex="1">
          <mxGeometry y="60" width="160" height="30" as="geometry" />
        </mxCell>
        <mxCell id="j4Dh2sjCp8QDIXTv8ryV-177" value="" style="shape=partialRectangle;html=1;whiteSpace=wrap;connectable=0;fillColor=none;top=0;left=0;bottom=0;right=0;overflow=hidden;pointerEvents=1;strokeColor=inherit;fontSize=16;" parent="j4Dh2sjCp8QDIXTv8ryV-176" vertex="1">
          <mxGeometry width="36" height="30" as="geometry">
            <mxRectangle width="36" height="30" as="alternateBounds" />
          </mxGeometry>
        </mxCell>
        <mxCell id="j4Dh2sjCp8QDIXTv8ryV-178" value="&lt;span style=&quot;font-size: 12px;&quot;&gt;branch-name&lt;/span&gt;" style="shape=partialRectangle;html=1;whiteSpace=wrap;connectable=0;fillColor=none;top=0;left=0;bottom=0;right=0;align=left;spacingLeft=6;overflow=hidden;strokeColor=inherit;fontSize=16;" parent="j4Dh2sjCp8QDIXTv8ryV-176" vertex="1">
          <mxGeometry x="36" width="124" height="30" as="geometry">
            <mxRectangle width="124" height="30" as="alternateBounds" />
          </mxGeometry>
        </mxCell>
        <mxCell id="j4Dh2sjCp8QDIXTv8ryV-179" value="" style="shape=tableRow;horizontal=0;startSize=0;swimlaneHead=0;swimlaneBody=0;top=0;left=0;bottom=0;right=0;collapsible=0;dropTarget=0;fillColor=none;points=[[0,0.5],[1,0.5]];portConstraint=eastwest;strokeColor=inherit;fontSize=16;" parent="j4Dh2sjCp8QDIXTv8ryV-171" vertex="1">
          <mxGeometry y="90" width="160" height="30" as="geometry" />
        </mxCell>
        <mxCell id="j4Dh2sjCp8QDIXTv8ryV-180" value="" style="shape=partialRectangle;html=1;whiteSpace=wrap;connectable=0;fillColor=none;top=0;left=0;bottom=0;right=0;overflow=hidden;pointerEvents=1;strokeColor=inherit;fontSize=16;" parent="j4Dh2sjCp8QDIXTv8ryV-179" vertex="1">
          <mxGeometry width="36" height="30" as="geometry">
            <mxRectangle width="36" height="30" as="alternateBounds" />
          </mxGeometry>
        </mxCell>
        <mxCell id="j4Dh2sjCp8QDIXTv8ryV-181" value="&lt;span style=&quot;font-size: 12px;&quot;&gt;city&lt;/span&gt;" style="shape=partialRectangle;html=1;whiteSpace=wrap;connectable=0;fillColor=none;top=0;left=0;bottom=0;right=0;align=left;spacingLeft=6;overflow=hidden;strokeColor=inherit;fontSize=16;" parent="j4Dh2sjCp8QDIXTv8ryV-179" vertex="1">
          <mxGeometry x="36" width="124" height="30" as="geometry">
            <mxRectangle width="124" height="30" as="alternateBounds" />
          </mxGeometry>
        </mxCell>
        <mxCell id="j4Dh2sjCp8QDIXTv8ryV-182" value="Intake" style="shape=table;startSize=30;container=1;collapsible=0;childLayout=tableLayout;fixedRows=1;rowLines=0;fontStyle=0;strokeColor=default;fontSize=16;" parent="1" vertex="1">
          <mxGeometry x="2160" y="1400" width="160" height="180" as="geometry" />
        </mxCell>
        <mxCell id="j4Dh2sjCp8QDIXTv8ryV-183" value="" style="shape=tableRow;horizontal=0;startSize=0;swimlaneHead=0;swimlaneBody=0;top=0;left=0;bottom=0;right=0;collapsible=0;dropTarget=0;fillColor=none;points=[[0,0.5],[1,0.5]];portConstraint=eastwest;strokeColor=inherit;fontSize=16;" parent="j4Dh2sjCp8QDIXTv8ryV-182" vertex="1">
          <mxGeometry y="30" width="160" height="30" as="geometry" />
        </mxCell>
        <mxCell id="j4Dh2sjCp8QDIXTv8ryV-184" value="PK" style="shape=partialRectangle;html=1;whiteSpace=wrap;connectable=0;fillColor=none;top=0;left=0;bottom=0;right=0;overflow=hidden;pointerEvents=1;strokeColor=inherit;fontSize=16;" parent="j4Dh2sjCp8QDIXTv8ryV-183" vertex="1">
          <mxGeometry width="36" height="30" as="geometry">
            <mxRectangle width="36" height="30" as="alternateBounds" />
          </mxGeometry>
        </mxCell>
        <mxCell id="j4Dh2sjCp8QDIXTv8ryV-185" value="&lt;span style=&quot;font-size: 12px;&quot;&gt;intake-id&lt;/span&gt;" style="shape=partialRectangle;html=1;whiteSpace=wrap;connectable=0;fillColor=none;top=0;left=0;bottom=0;right=0;align=left;spacingLeft=6;overflow=hidden;strokeColor=inherit;fontSize=16;" parent="j4Dh2sjCp8QDIXTv8ryV-183" vertex="1">
          <mxGeometry x="36" width="124" height="30" as="geometry">
            <mxRectangle width="124" height="30" as="alternateBounds" />
          </mxGeometry>
        </mxCell>
        <mxCell id="j4Dh2sjCp8QDIXTv8ryV-186" value="" style="shape=tableRow;horizontal=0;startSize=0;swimlaneHead=0;swimlaneBody=0;top=0;left=0;bottom=0;right=0;collapsible=0;dropTarget=0;fillColor=none;points=[[0,0.5],[1,0.5]];portConstraint=eastwest;strokeColor=inherit;fontSize=16;" parent="j4Dh2sjCp8QDIXTv8ryV-182" vertex="1">
          <mxGeometry y="60" width="160" height="30" as="geometry" />
        </mxCell>
        <mxCell id="j4Dh2sjCp8QDIXTv8ryV-187" value="" style="shape=partialRectangle;html=1;whiteSpace=wrap;connectable=0;fillColor=none;top=0;left=0;bottom=0;right=0;overflow=hidden;pointerEvents=1;strokeColor=inherit;fontSize=16;" parent="j4Dh2sjCp8QDIXTv8ryV-186" vertex="1">
          <mxGeometry width="36" height="30" as="geometry">
            <mxRectangle width="36" height="30" as="alternateBounds" />
          </mxGeometry>
        </mxCell>
        <mxCell id="j4Dh2sjCp8QDIXTv8ryV-188" value="&lt;span style=&quot;font-size: 12px;&quot;&gt;intake-name&lt;/span&gt;" style="shape=partialRectangle;html=1;whiteSpace=wrap;connectable=0;fillColor=none;top=0;left=0;bottom=0;right=0;align=left;spacingLeft=6;overflow=hidden;strokeColor=inherit;fontSize=16;" parent="j4Dh2sjCp8QDIXTv8ryV-186" vertex="1">
          <mxGeometry x="36" width="124" height="30" as="geometry">
            <mxRectangle width="124" height="30" as="alternateBounds" />
          </mxGeometry>
        </mxCell>
        <mxCell id="j4Dh2sjCp8QDIXTv8ryV-189" value="" style="shape=tableRow;horizontal=0;startSize=0;swimlaneHead=0;swimlaneBody=0;top=0;left=0;bottom=0;right=0;collapsible=0;dropTarget=0;fillColor=none;points=[[0,0.5],[1,0.5]];portConstraint=eastwest;strokeColor=inherit;fontSize=16;" parent="j4Dh2sjCp8QDIXTv8ryV-182" vertex="1">
          <mxGeometry y="90" width="160" height="30" as="geometry" />
        </mxCell>
        <mxCell id="j4Dh2sjCp8QDIXTv8ryV-190" value="" style="shape=partialRectangle;html=1;whiteSpace=wrap;connectable=0;fillColor=none;top=0;left=0;bottom=0;right=0;overflow=hidden;pointerEvents=1;strokeColor=inherit;fontSize=16;" parent="j4Dh2sjCp8QDIXTv8ryV-189" vertex="1">
          <mxGeometry width="36" height="30" as="geometry">
            <mxRectangle width="36" height="30" as="alternateBounds" />
          </mxGeometry>
        </mxCell>
        <mxCell id="j4Dh2sjCp8QDIXTv8ryV-191" value="&lt;span style=&quot;font-size: 12px;&quot;&gt;start-date&lt;/span&gt;" style="shape=partialRectangle;html=1;whiteSpace=wrap;connectable=0;fillColor=none;top=0;left=0;bottom=0;right=0;align=left;spacingLeft=6;overflow=hidden;strokeColor=inherit;fontSize=16;" parent="j4Dh2sjCp8QDIXTv8ryV-189" vertex="1">
          <mxGeometry x="36" width="124" height="30" as="geometry">
            <mxRectangle width="124" height="30" as="alternateBounds" />
          </mxGeometry>
        </mxCell>
        <mxCell id="j4Dh2sjCp8QDIXTv8ryV-192" value="" style="shape=tableRow;horizontal=0;startSize=0;swimlaneHead=0;swimlaneBody=0;top=0;left=0;bottom=0;right=0;collapsible=0;dropTarget=0;fillColor=none;points=[[0,0.5],[1,0.5]];portConstraint=eastwest;strokeColor=inherit;fontSize=16;" parent="j4Dh2sjCp8QDIXTv8ryV-182" vertex="1">
          <mxGeometry y="120" width="160" height="30" as="geometry" />
        </mxCell>
        <mxCell id="j4Dh2sjCp8QDIXTv8ryV-193" value="" style="shape=partialRectangle;html=1;whiteSpace=wrap;connectable=0;fillColor=none;top=0;left=0;bottom=0;right=0;overflow=hidden;pointerEvents=1;strokeColor=inherit;fontSize=16;" parent="j4Dh2sjCp8QDIXTv8ryV-192" vertex="1">
          <mxGeometry width="36" height="30" as="geometry">
            <mxRectangle width="36" height="30" as="alternateBounds" />
          </mxGeometry>
        </mxCell>
        <mxCell id="j4Dh2sjCp8QDIXTv8ryV-194" value="&lt;span style=&quot;font-size: 12px;&quot;&gt;end-date&lt;/span&gt;" style="shape=partialRectangle;html=1;whiteSpace=wrap;connectable=0;fillColor=none;top=0;left=0;bottom=0;right=0;align=left;spacingLeft=6;overflow=hidden;strokeColor=inherit;fontSize=16;" parent="j4Dh2sjCp8QDIXTv8ryV-192" vertex="1">
          <mxGeometry x="36" width="124" height="30" as="geometry">
            <mxRectangle width="124" height="30" as="alternateBounds" />
          </mxGeometry>
        </mxCell>
        <mxCell id="GdlQhDkwiyZ--6wiS9G9-12" value="" style="shape=tableRow;horizontal=0;startSize=0;swimlaneHead=0;swimlaneBody=0;top=0;left=0;bottom=0;right=0;collapsible=0;dropTarget=0;fillColor=none;points=[[0,0.5],[1,0.5]];portConstraint=eastwest;strokeColor=inherit;fontSize=16;" parent="j4Dh2sjCp8QDIXTv8ryV-182" vertex="1">
          <mxGeometry y="150" width="160" height="30" as="geometry" />
        </mxCell>
        <mxCell id="GdlQhDkwiyZ--6wiS9G9-13" value="FK" style="shape=partialRectangle;html=1;whiteSpace=wrap;connectable=0;fillColor=none;top=0;left=0;bottom=0;right=0;overflow=hidden;pointerEvents=1;strokeColor=inherit;fontSize=16;" parent="GdlQhDkwiyZ--6wiS9G9-12" vertex="1">
          <mxGeometry width="36" height="30" as="geometry">
            <mxRectangle width="36" height="30" as="alternateBounds" />
          </mxGeometry>
        </mxCell>
        <mxCell id="GdlQhDkwiyZ--6wiS9G9-14" value="&lt;span style=&quot;font-size: 12px;&quot;&gt;branch-id&lt;/span&gt;" style="shape=partialRectangle;html=1;whiteSpace=wrap;connectable=0;fillColor=none;top=0;left=0;bottom=0;right=0;align=left;spacingLeft=6;overflow=hidden;strokeColor=inherit;fontSize=16;" parent="GdlQhDkwiyZ--6wiS9G9-12" vertex="1">
          <mxGeometry x="36" width="124" height="30" as="geometry">
            <mxRectangle width="124" height="30" as="alternateBounds" />
          </mxGeometry>
        </mxCell>
        <mxCell id="j4Dh2sjCp8QDIXTv8ryV-195" value="Track" style="shape=table;startSize=30;container=1;collapsible=0;childLayout=tableLayout;fixedRows=1;rowLines=0;fontStyle=0;strokeColor=default;fontSize=16;" parent="1" vertex="1">
          <mxGeometry x="2161" y="1640" width="160" height="120" as="geometry" />
        </mxCell>
        <mxCell id="j4Dh2sjCp8QDIXTv8ryV-196" value="" style="shape=tableRow;horizontal=0;startSize=0;swimlaneHead=0;swimlaneBody=0;top=0;left=0;bottom=0;right=0;collapsible=0;dropTarget=0;fillColor=none;points=[[0,0.5],[1,0.5]];portConstraint=eastwest;strokeColor=inherit;fontSize=16;" parent="j4Dh2sjCp8QDIXTv8ryV-195" vertex="1">
          <mxGeometry y="30" width="160" height="30" as="geometry" />
        </mxCell>
        <mxCell id="j4Dh2sjCp8QDIXTv8ryV-197" value="PK" style="shape=partialRectangle;html=1;whiteSpace=wrap;connectable=0;fillColor=none;top=0;left=0;bottom=0;right=0;overflow=hidden;pointerEvents=1;strokeColor=inherit;fontSize=16;" parent="j4Dh2sjCp8QDIXTv8ryV-196" vertex="1">
          <mxGeometry width="36" height="30" as="geometry">
            <mxRectangle width="36" height="30" as="alternateBounds" />
          </mxGeometry>
        </mxCell>
        <mxCell id="j4Dh2sjCp8QDIXTv8ryV-198" value="&lt;span style=&quot;font-size: 12px;&quot;&gt;track-id&lt;/span&gt;" style="shape=partialRectangle;html=1;whiteSpace=wrap;connectable=0;fillColor=none;top=0;left=0;bottom=0;right=0;align=left;spacingLeft=6;overflow=hidden;strokeColor=inherit;fontSize=16;" parent="j4Dh2sjCp8QDIXTv8ryV-196" vertex="1">
          <mxGeometry x="36" width="124" height="30" as="geometry">
            <mxRectangle width="124" height="30" as="alternateBounds" />
          </mxGeometry>
        </mxCell>
        <mxCell id="j4Dh2sjCp8QDIXTv8ryV-199" value="" style="shape=tableRow;horizontal=0;startSize=0;swimlaneHead=0;swimlaneBody=0;top=0;left=0;bottom=0;right=0;collapsible=0;dropTarget=0;fillColor=none;points=[[0,0.5],[1,0.5]];portConstraint=eastwest;strokeColor=inherit;fontSize=16;" parent="j4Dh2sjCp8QDIXTv8ryV-195" vertex="1">
          <mxGeometry y="60" width="160" height="30" as="geometry" />
        </mxCell>
        <mxCell id="j4Dh2sjCp8QDIXTv8ryV-200" value="" style="shape=partialRectangle;html=1;whiteSpace=wrap;connectable=0;fillColor=none;top=0;left=0;bottom=0;right=0;overflow=hidden;pointerEvents=1;strokeColor=inherit;fontSize=16;" parent="j4Dh2sjCp8QDIXTv8ryV-199" vertex="1">
          <mxGeometry width="36" height="30" as="geometry">
            <mxRectangle width="36" height="30" as="alternateBounds" />
          </mxGeometry>
        </mxCell>
        <mxCell id="j4Dh2sjCp8QDIXTv8ryV-201" value="&lt;span style=&quot;font-size: 12px;&quot;&gt;track-name&lt;/span&gt;" style="shape=partialRectangle;html=1;whiteSpace=wrap;connectable=0;fillColor=none;top=0;left=0;bottom=0;right=0;align=left;spacingLeft=6;overflow=hidden;strokeColor=inherit;fontSize=16;" parent="j4Dh2sjCp8QDIXTv8ryV-199" vertex="1">
          <mxGeometry x="36" width="124" height="30" as="geometry">
            <mxRectangle width="124" height="30" as="alternateBounds" />
          </mxGeometry>
        </mxCell>
        <mxCell id="GdlQhDkwiyZ--6wiS9G9-31" value="" style="shape=tableRow;horizontal=0;startSize=0;swimlaneHead=0;swimlaneBody=0;top=0;left=0;bottom=0;right=0;collapsible=0;dropTarget=0;fillColor=none;points=[[0,0.5],[1,0.5]];portConstraint=eastwest;strokeColor=inherit;fontSize=16;" parent="j4Dh2sjCp8QDIXTv8ryV-195" vertex="1">
          <mxGeometry y="90" width="160" height="30" as="geometry" />
        </mxCell>
        <mxCell id="GdlQhDkwiyZ--6wiS9G9-32" value="FK" style="shape=partialRectangle;html=1;whiteSpace=wrap;connectable=0;fillColor=none;top=0;left=0;bottom=0;right=0;overflow=hidden;pointerEvents=1;strokeColor=inherit;fontSize=16;" parent="GdlQhDkwiyZ--6wiS9G9-31" vertex="1">
          <mxGeometry width="36" height="30" as="geometry">
            <mxRectangle width="36" height="30" as="alternateBounds" />
          </mxGeometry>
        </mxCell>
        <mxCell id="GdlQhDkwiyZ--6wiS9G9-33" value="&lt;span style=&quot;font-size: 12px;&quot;&gt;department-id&lt;/span&gt;" style="shape=partialRectangle;html=1;whiteSpace=wrap;connectable=0;fillColor=none;top=0;left=0;bottom=0;right=0;align=left;spacingLeft=6;overflow=hidden;strokeColor=inherit;fontSize=16;" parent="GdlQhDkwiyZ--6wiS9G9-31" vertex="1">
          <mxGeometry x="36" width="124" height="30" as="geometry">
            <mxRectangle width="124" height="30" as="alternateBounds" />
          </mxGeometry>
        </mxCell>
        <mxCell id="j4Dh2sjCp8QDIXTv8ryV-205" value="Department" style="shape=table;startSize=30;container=1;collapsible=0;childLayout=tableLayout;fixedRows=1;rowLines=0;fontStyle=0;strokeColor=default;fontSize=16;" parent="1" vertex="1">
          <mxGeometry x="2161" y="1920" width="160" height="90" as="geometry" />
        </mxCell>
        <mxCell id="j4Dh2sjCp8QDIXTv8ryV-206" value="" style="shape=tableRow;horizontal=0;startSize=0;swimlaneHead=0;swimlaneBody=0;top=0;left=0;bottom=0;right=0;collapsible=0;dropTarget=0;fillColor=none;points=[[0,0.5],[1,0.5]];portConstraint=eastwest;strokeColor=inherit;fontSize=16;" parent="j4Dh2sjCp8QDIXTv8ryV-205" vertex="1">
          <mxGeometry y="30" width="160" height="30" as="geometry" />
        </mxCell>
        <mxCell id="j4Dh2sjCp8QDIXTv8ryV-207" value="PK" style="shape=partialRectangle;html=1;whiteSpace=wrap;connectable=0;fillColor=none;top=0;left=0;bottom=0;right=0;overflow=hidden;pointerEvents=1;strokeColor=inherit;fontSize=16;" parent="j4Dh2sjCp8QDIXTv8ryV-206" vertex="1">
          <mxGeometry width="36" height="30" as="geometry">
            <mxRectangle width="36" height="30" as="alternateBounds" />
          </mxGeometry>
        </mxCell>
        <mxCell id="j4Dh2sjCp8QDIXTv8ryV-208" value="&lt;span style=&quot;font-size: 12px;&quot;&gt;department-id&lt;/span&gt;" style="shape=partialRectangle;html=1;whiteSpace=wrap;connectable=0;fillColor=none;top=0;left=0;bottom=0;right=0;align=left;spacingLeft=6;overflow=hidden;strokeColor=inherit;fontSize=16;" parent="j4Dh2sjCp8QDIXTv8ryV-206" vertex="1">
          <mxGeometry x="36" width="124" height="30" as="geometry">
            <mxRectangle width="124" height="30" as="alternateBounds" />
          </mxGeometry>
        </mxCell>
        <mxCell id="j4Dh2sjCp8QDIXTv8ryV-209" value="" style="shape=tableRow;horizontal=0;startSize=0;swimlaneHead=0;swimlaneBody=0;top=0;left=0;bottom=0;right=0;collapsible=0;dropTarget=0;fillColor=none;points=[[0,0.5],[1,0.5]];portConstraint=eastwest;strokeColor=inherit;fontSize=16;" parent="j4Dh2sjCp8QDIXTv8ryV-205" vertex="1">
          <mxGeometry y="60" width="160" height="30" as="geometry" />
        </mxCell>
        <mxCell id="j4Dh2sjCp8QDIXTv8ryV-210" value="" style="shape=partialRectangle;html=1;whiteSpace=wrap;connectable=0;fillColor=none;top=0;left=0;bottom=0;right=0;overflow=hidden;pointerEvents=1;strokeColor=inherit;fontSize=16;" parent="j4Dh2sjCp8QDIXTv8ryV-209" vertex="1">
          <mxGeometry width="36" height="30" as="geometry">
            <mxRectangle width="36" height="30" as="alternateBounds" />
          </mxGeometry>
        </mxCell>
        <mxCell id="j4Dh2sjCp8QDIXTv8ryV-211" value="&lt;span style=&quot;font-size: 12px;&quot;&gt;department&lt;/span&gt;&lt;span style=&quot;font-size: 12px;&quot;&gt;-name&lt;/span&gt;" style="shape=partialRectangle;html=1;whiteSpace=wrap;connectable=0;fillColor=none;top=0;left=0;bottom=0;right=0;align=left;spacingLeft=6;overflow=hidden;strokeColor=inherit;fontSize=16;" parent="j4Dh2sjCp8QDIXTv8ryV-209" vertex="1">
          <mxGeometry x="36" width="124" height="30" as="geometry">
            <mxRectangle width="124" height="30" as="alternateBounds" />
          </mxGeometry>
        </mxCell>
        <mxCell id="GdlQhDkwiyZ--6wiS9G9-16" style="edgeStyle=orthogonalEdgeStyle;rounded=0;orthogonalLoop=1;jettySize=auto;html=1;entryX=0.989;entryY=0.268;entryDx=0;entryDy=0;entryPerimeter=0;" parent="1" source="GdlQhDkwiyZ--6wiS9G9-12" target="j4Dh2sjCp8QDIXTv8ryV-172" edge="1">
          <mxGeometry relative="1" as="geometry">
            <mxPoint x="2350" y="1238" as="targetPoint" />
            <Array as="points">
              <mxPoint x="2420" y="1565" />
              <mxPoint x="2420" y="1238" />
            </Array>
          </mxGeometry>
        </mxCell>
        <mxCell id="GdlQhDkwiyZ--6wiS9G9-21" value="Intake_Track" style="shape=table;startSize=30;container=1;collapsible=0;childLayout=tableLayout;fixedRows=1;rowLines=0;fontStyle=0;strokeColor=default;fontSize=16;" parent="1" vertex="1">
          <mxGeometry x="2161" y="1800" width="160" height="90" as="geometry" />
        </mxCell>
        <mxCell id="GdlQhDkwiyZ--6wiS9G9-22" value="" style="shape=tableRow;horizontal=0;startSize=0;swimlaneHead=0;swimlaneBody=0;top=0;left=0;bottom=0;right=0;collapsible=0;dropTarget=0;fillColor=none;points=[[0,0.5],[1,0.5]];portConstraint=eastwest;strokeColor=inherit;fontSize=16;" parent="GdlQhDkwiyZ--6wiS9G9-21" vertex="1">
          <mxGeometry y="30" width="160" height="30" as="geometry" />
        </mxCell>
        <mxCell id="GdlQhDkwiyZ--6wiS9G9-23" value="PK-FK" style="shape=partialRectangle;html=1;whiteSpace=wrap;connectable=0;fillColor=none;top=0;left=0;bottom=0;right=0;overflow=hidden;pointerEvents=1;strokeColor=inherit;fontSize=16;" parent="GdlQhDkwiyZ--6wiS9G9-22" vertex="1">
          <mxGeometry width="50" height="30" as="geometry">
            <mxRectangle width="50" height="30" as="alternateBounds" />
          </mxGeometry>
        </mxCell>
        <mxCell id="GdlQhDkwiyZ--6wiS9G9-24" value="&lt;span style=&quot;font-size: 12px;&quot;&gt;track-id&lt;/span&gt;" style="shape=partialRectangle;html=1;whiteSpace=wrap;connectable=0;fillColor=none;top=0;left=0;bottom=0;right=0;align=left;spacingLeft=6;overflow=hidden;strokeColor=inherit;fontSize=16;" parent="GdlQhDkwiyZ--6wiS9G9-22" vertex="1">
          <mxGeometry x="50" width="110" height="30" as="geometry">
            <mxRectangle width="110" height="30" as="alternateBounds" />
          </mxGeometry>
        </mxCell>
        <mxCell id="GdlQhDkwiyZ--6wiS9G9-25" value="" style="shape=tableRow;horizontal=0;startSize=0;swimlaneHead=0;swimlaneBody=0;top=0;left=0;bottom=0;right=0;collapsible=0;dropTarget=0;fillColor=none;points=[[0,0.5],[1,0.5]];portConstraint=eastwest;strokeColor=inherit;fontSize=16;" parent="GdlQhDkwiyZ--6wiS9G9-21" vertex="1">
          <mxGeometry y="60" width="160" height="30" as="geometry" />
        </mxCell>
        <mxCell id="GdlQhDkwiyZ--6wiS9G9-26" value="PK-FK" style="shape=partialRectangle;html=1;whiteSpace=wrap;connectable=0;fillColor=none;top=0;left=0;bottom=0;right=0;overflow=hidden;pointerEvents=1;strokeColor=inherit;fontSize=16;" parent="GdlQhDkwiyZ--6wiS9G9-25" vertex="1">
          <mxGeometry width="50" height="30" as="geometry">
            <mxRectangle width="50" height="30" as="alternateBounds" />
          </mxGeometry>
        </mxCell>
        <mxCell id="GdlQhDkwiyZ--6wiS9G9-27" value="&lt;span style=&quot;font-size: 12px;&quot;&gt;intake-id&lt;/span&gt;" style="shape=partialRectangle;html=1;whiteSpace=wrap;connectable=0;fillColor=none;top=0;left=0;bottom=0;right=0;align=left;spacingLeft=6;overflow=hidden;strokeColor=inherit;fontSize=16;" parent="GdlQhDkwiyZ--6wiS9G9-25" vertex="1">
          <mxGeometry x="50" width="110" height="30" as="geometry">
            <mxRectangle width="110" height="30" as="alternateBounds" />
          </mxGeometry>
        </mxCell>
        <mxCell id="GdlQhDkwiyZ--6wiS9G9-29" style="edgeStyle=orthogonalEdgeStyle;rounded=0;orthogonalLoop=1;jettySize=auto;html=1;entryX=-0.006;entryY=0.192;entryDx=0;entryDy=0;entryPerimeter=0;" parent="1" source="GdlQhDkwiyZ--6wiS9G9-22" target="j4Dh2sjCp8QDIXTv8ryV-196" edge="1">
          <mxGeometry relative="1" as="geometry" />
        </mxCell>
        <mxCell id="GdlQhDkwiyZ--6wiS9G9-34" style="edgeStyle=orthogonalEdgeStyle;rounded=0;orthogonalLoop=1;jettySize=auto;html=1;entryX=1;entryY=0.5;entryDx=0;entryDy=0;" parent="1" source="GdlQhDkwiyZ--6wiS9G9-31" target="j4Dh2sjCp8QDIXTv8ryV-206" edge="1">
          <mxGeometry relative="1" as="geometry">
            <Array as="points">
              <mxPoint x="2400" y="1745" />
              <mxPoint x="2400" y="1965" />
            </Array>
          </mxGeometry>
        </mxCell>
        <mxCell id="GdlQhDkwiyZ--6wiS9G9-35" style="edgeStyle=orthogonalEdgeStyle;rounded=0;orthogonalLoop=1;jettySize=auto;html=1;entryX=0;entryY=0.5;entryDx=0;entryDy=0;" parent="1" source="GdlQhDkwiyZ--6wiS9G9-25" target="j4Dh2sjCp8QDIXTv8ryV-183" edge="1">
          <mxGeometry relative="1" as="geometry">
            <mxPoint x="2140" y="1420" as="targetPoint" />
            <Array as="points">
              <mxPoint x="2120" y="1875" />
              <mxPoint x="2120" y="1445" />
            </Array>
          </mxGeometry>
        </mxCell>
        <mxCell id="GdlQhDkwiyZ--6wiS9G9-36" value="Student_Exam_Answer" style="shape=table;startSize=30;container=1;collapsible=0;childLayout=tableLayout;fixedRows=1;rowLines=0;fontStyle=0;strokeColor=default;fontSize=16;" parent="1" vertex="1">
          <mxGeometry x="1600" y="1520" width="200" height="180" as="geometry" />
        </mxCell>
        <mxCell id="GdlQhDkwiyZ--6wiS9G9-37" value="" style="shape=tableRow;horizontal=0;startSize=0;swimlaneHead=0;swimlaneBody=0;top=0;left=0;bottom=0;right=0;collapsible=0;dropTarget=0;fillColor=none;points=[[0,0.5],[1,0.5]];portConstraint=eastwest;strokeColor=inherit;fontSize=16;" parent="GdlQhDkwiyZ--6wiS9G9-36" vertex="1">
          <mxGeometry y="30" width="200" height="30" as="geometry" />
        </mxCell>
        <mxCell id="GdlQhDkwiyZ--6wiS9G9-38" value="PK-FK" style="shape=partialRectangle;html=1;whiteSpace=wrap;connectable=0;fillColor=none;top=0;left=0;bottom=0;right=0;overflow=hidden;pointerEvents=1;strokeColor=inherit;fontSize=16;" parent="GdlQhDkwiyZ--6wiS9G9-37" vertex="1">
          <mxGeometry width="62" height="30" as="geometry">
            <mxRectangle width="62" height="30" as="alternateBounds" />
          </mxGeometry>
        </mxCell>
        <mxCell id="GdlQhDkwiyZ--6wiS9G9-39" value="&lt;span style=&quot;font-size: 12px; text-align: center;&quot;&gt;exam-id&lt;/span&gt;" style="shape=partialRectangle;html=1;whiteSpace=wrap;connectable=0;fillColor=none;top=0;left=0;bottom=0;right=0;align=left;spacingLeft=6;overflow=hidden;strokeColor=inherit;fontSize=16;" parent="GdlQhDkwiyZ--6wiS9G9-37" vertex="1">
          <mxGeometry x="62" width="138" height="30" as="geometry">
            <mxRectangle width="138" height="30" as="alternateBounds" />
          </mxGeometry>
        </mxCell>
        <mxCell id="GdlQhDkwiyZ--6wiS9G9-40" value="" style="shape=tableRow;horizontal=0;startSize=0;swimlaneHead=0;swimlaneBody=0;top=0;left=0;bottom=0;right=0;collapsible=0;dropTarget=0;fillColor=none;points=[[0,0.5],[1,0.5]];portConstraint=eastwest;strokeColor=inherit;fontSize=16;" parent="GdlQhDkwiyZ--6wiS9G9-36" vertex="1">
          <mxGeometry y="60" width="200" height="30" as="geometry" />
        </mxCell>
        <mxCell id="GdlQhDkwiyZ--6wiS9G9-41" value="PK-FK" style="shape=partialRectangle;html=1;whiteSpace=wrap;connectable=0;fillColor=none;top=0;left=0;bottom=0;right=0;overflow=hidden;strokeColor=inherit;fontSize=16;" parent="GdlQhDkwiyZ--6wiS9G9-40" vertex="1">
          <mxGeometry width="62" height="30" as="geometry">
            <mxRectangle width="62" height="30" as="alternateBounds" />
          </mxGeometry>
        </mxCell>
        <mxCell id="GdlQhDkwiyZ--6wiS9G9-42" value="&lt;span style=&quot;font-size: 12px;&quot;&gt;student-id&lt;/span&gt;" style="shape=partialRectangle;html=1;whiteSpace=wrap;connectable=0;fillColor=none;top=0;left=0;bottom=0;right=0;align=left;spacingLeft=6;overflow=hidden;strokeColor=inherit;fontSize=16;" parent="GdlQhDkwiyZ--6wiS9G9-40" vertex="1">
          <mxGeometry x="62" width="138" height="30" as="geometry">
            <mxRectangle width="138" height="30" as="alternateBounds" />
          </mxGeometry>
        </mxCell>
        <mxCell id="GdlQhDkwiyZ--6wiS9G9-43" value="" style="shape=tableRow;horizontal=0;startSize=0;swimlaneHead=0;swimlaneBody=0;top=0;left=0;bottom=0;right=0;collapsible=0;dropTarget=0;fillColor=none;points=[[0,0.5],[1,0.5]];portConstraint=eastwest;strokeColor=inherit;fontSize=16;" parent="GdlQhDkwiyZ--6wiS9G9-36" vertex="1">
          <mxGeometry y="90" width="200" height="30" as="geometry" />
        </mxCell>
        <mxCell id="GdlQhDkwiyZ--6wiS9G9-44" value="" style="shape=partialRectangle;html=1;whiteSpace=wrap;connectable=0;fillColor=none;top=0;left=0;bottom=0;right=0;overflow=hidden;strokeColor=inherit;fontSize=16;" parent="GdlQhDkwiyZ--6wiS9G9-43" vertex="1">
          <mxGeometry width="62" height="30" as="geometry">
            <mxRectangle width="62" height="30" as="alternateBounds" />
          </mxGeometry>
        </mxCell>
        <mxCell id="GdlQhDkwiyZ--6wiS9G9-45" value="&lt;span style=&quot;font-size: 12px; text-align: center;&quot;&gt;degree&lt;/span&gt;" style="shape=partialRectangle;html=1;whiteSpace=wrap;connectable=0;fillColor=none;top=0;left=0;bottom=0;right=0;align=left;spacingLeft=6;overflow=hidden;strokeColor=inherit;fontSize=16;" parent="GdlQhDkwiyZ--6wiS9G9-43" vertex="1">
          <mxGeometry x="62" width="138" height="30" as="geometry">
            <mxRectangle width="138" height="30" as="alternateBounds" />
          </mxGeometry>
        </mxCell>
        <mxCell id="GdlQhDkwiyZ--6wiS9G9-46" value="" style="shape=tableRow;horizontal=0;startSize=0;swimlaneHead=0;swimlaneBody=0;top=0;left=0;bottom=0;right=0;collapsible=0;dropTarget=0;fillColor=none;points=[[0,0.5],[1,0.5]];portConstraint=eastwest;strokeColor=inherit;fontSize=16;" parent="GdlQhDkwiyZ--6wiS9G9-36" vertex="1">
          <mxGeometry y="120" width="200" height="30" as="geometry" />
        </mxCell>
        <mxCell id="GdlQhDkwiyZ--6wiS9G9-47" value="" style="shape=partialRectangle;html=1;whiteSpace=wrap;connectable=0;fillColor=none;top=0;left=0;bottom=0;right=0;overflow=hidden;strokeColor=inherit;fontSize=16;" parent="GdlQhDkwiyZ--6wiS9G9-46" vertex="1">
          <mxGeometry width="62" height="30" as="geometry">
            <mxRectangle width="62" height="30" as="alternateBounds" />
          </mxGeometry>
        </mxCell>
        <mxCell id="GdlQhDkwiyZ--6wiS9G9-48" value="&lt;span style=&quot;font-size: 12px; text-align: center;&quot;&gt;student-answer&lt;/span&gt;" style="shape=partialRectangle;html=1;whiteSpace=wrap;connectable=0;fillColor=none;top=0;left=0;bottom=0;right=0;align=left;spacingLeft=6;overflow=hidden;strokeColor=inherit;fontSize=16;" parent="GdlQhDkwiyZ--6wiS9G9-46" vertex="1">
          <mxGeometry x="62" width="138" height="30" as="geometry">
            <mxRectangle width="138" height="30" as="alternateBounds" />
          </mxGeometry>
        </mxCell>
        <mxCell id="GdlQhDkwiyZ--6wiS9G9-49" value="" style="shape=tableRow;horizontal=0;startSize=0;swimlaneHead=0;swimlaneBody=0;top=0;left=0;bottom=0;right=0;collapsible=0;dropTarget=0;fillColor=none;points=[[0,0.5],[1,0.5]];portConstraint=eastwest;strokeColor=inherit;fontSize=16;" parent="GdlQhDkwiyZ--6wiS9G9-36" vertex="1">
          <mxGeometry y="150" width="200" height="30" as="geometry" />
        </mxCell>
        <mxCell id="GdlQhDkwiyZ--6wiS9G9-50" value="FK" style="shape=partialRectangle;html=1;whiteSpace=wrap;connectable=0;fillColor=none;top=0;left=0;bottom=0;right=0;overflow=hidden;strokeColor=inherit;fontSize=16;" parent="GdlQhDkwiyZ--6wiS9G9-49" vertex="1">
          <mxGeometry width="62" height="30" as="geometry">
            <mxRectangle width="62" height="30" as="alternateBounds" />
          </mxGeometry>
        </mxCell>
        <mxCell id="GdlQhDkwiyZ--6wiS9G9-51" value="&lt;span style=&quot;font-size: 12px; text-align: center;&quot;&gt;question-id&lt;/span&gt;" style="shape=partialRectangle;html=1;whiteSpace=wrap;connectable=0;fillColor=none;top=0;left=0;bottom=0;right=0;align=left;spacingLeft=6;overflow=hidden;strokeColor=inherit;fontSize=16;" parent="GdlQhDkwiyZ--6wiS9G9-49" vertex="1">
          <mxGeometry x="62" width="138" height="30" as="geometry">
            <mxRectangle width="138" height="30" as="alternateBounds" />
          </mxGeometry>
        </mxCell>
        <mxCell id="GdlQhDkwiyZ--6wiS9G9-62" style="edgeStyle=orthogonalEdgeStyle;rounded=0;orthogonalLoop=1;jettySize=auto;html=1;entryX=1;entryY=0.5;entryDx=0;entryDy=0;" parent="1" source="GdlQhDkwiyZ--6wiS9G9-37" target="j4Dh2sjCp8QDIXTv8ryV-147" edge="1">
          <mxGeometry relative="1" as="geometry" />
        </mxCell>
        <mxCell id="GdlQhDkwiyZ--6wiS9G9-63" style="edgeStyle=orthogonalEdgeStyle;rounded=0;orthogonalLoop=1;jettySize=auto;html=1;entryX=0;entryY=0.5;entryDx=0;entryDy=0;" parent="1" source="GdlQhDkwiyZ--6wiS9G9-40" target="j4Dh2sjCp8QDIXTv8ryV-16" edge="1">
          <mxGeometry relative="1" as="geometry">
            <Array as="points">
              <mxPoint x="1820" y="1595" />
              <mxPoint x="1820" y="1245" />
            </Array>
          </mxGeometry>
        </mxCell>
        <mxCell id="GdlQhDkwiyZ--6wiS9G9-64" value="" style="text;html=1;align=center;verticalAlign=middle;resizable=0;points=[];autosize=1;strokeColor=none;fillColor=none;" parent="1" vertex="1">
          <mxGeometry x="1565" y="1048" width="30" height="30" as="geometry" />
        </mxCell>
        <mxCell id="GdlQhDkwiyZ--6wiS9G9-65" value="" style="text;html=1;align=center;verticalAlign=middle;resizable=0;points=[];autosize=1;strokeColor=none;fillColor=none;" parent="1" vertex="1">
          <mxGeometry x="1335" y="1048" width="30" height="30" as="geometry" />
        </mxCell>
        <mxCell id="GdlQhDkwiyZ--6wiS9G9-66" value="" style="text;html=1;align=center;verticalAlign=middle;resizable=0;points=[];autosize=1;strokeColor=none;fillColor=none;" parent="1" vertex="1">
          <mxGeometry x="1335" y="1108" width="30" height="30" as="geometry" />
        </mxCell>
        <mxCell id="GdlQhDkwiyZ--6wiS9G9-67" value="" style="text;html=1;align=center;verticalAlign=middle;resizable=0;points=[];autosize=1;strokeColor=none;fillColor=none;" parent="1" vertex="1">
          <mxGeometry x="1565" y="1098" width="30" height="30" as="geometry" />
        </mxCell>
        <mxCell id="GdlQhDkwiyZ--6wiS9G9-68" value="Exam_Question" style="shape=table;startSize=30;container=1;collapsible=0;childLayout=tableLayout;fixedRows=1;rowLines=0;fontStyle=0;strokeColor=default;fontSize=16;" parent="1" vertex="1">
          <mxGeometry x="1040" y="1240" width="160" height="110" as="geometry" />
        </mxCell>
        <mxCell id="GdlQhDkwiyZ--6wiS9G9-69" value="" style="shape=tableRow;horizontal=0;startSize=0;swimlaneHead=0;swimlaneBody=0;top=0;left=0;bottom=0;right=0;collapsible=0;dropTarget=0;fillColor=none;points=[[0,0.5],[1,0.5]];portConstraint=eastwest;strokeColor=inherit;fontSize=16;" parent="GdlQhDkwiyZ--6wiS9G9-68" vertex="1">
          <mxGeometry y="30" width="160" height="30" as="geometry" />
        </mxCell>
        <mxCell id="GdlQhDkwiyZ--6wiS9G9-70" value="PK-FK" style="shape=partialRectangle;html=1;whiteSpace=wrap;connectable=0;fillColor=none;top=0;left=0;bottom=0;right=0;overflow=hidden;pointerEvents=1;strokeColor=inherit;fontSize=16;" parent="GdlQhDkwiyZ--6wiS9G9-69" vertex="1">
          <mxGeometry width="50" height="30" as="geometry">
            <mxRectangle width="50" height="30" as="alternateBounds" />
          </mxGeometry>
        </mxCell>
        <mxCell id="GdlQhDkwiyZ--6wiS9G9-71" value="&lt;span style=&quot;font-size: 12px;&quot;&gt;question-id&lt;/span&gt;" style="shape=partialRectangle;html=1;whiteSpace=wrap;connectable=0;fillColor=none;top=0;left=0;bottom=0;right=0;align=left;spacingLeft=6;overflow=hidden;strokeColor=inherit;fontSize=16;" parent="GdlQhDkwiyZ--6wiS9G9-69" vertex="1">
          <mxGeometry x="50" width="110" height="30" as="geometry">
            <mxRectangle width="110" height="30" as="alternateBounds" />
          </mxGeometry>
        </mxCell>
        <mxCell id="GdlQhDkwiyZ--6wiS9G9-72" value="" style="shape=tableRow;horizontal=0;startSize=0;swimlaneHead=0;swimlaneBody=0;top=0;left=0;bottom=0;right=0;collapsible=0;dropTarget=0;fillColor=none;points=[[0,0.5],[1,0.5]];portConstraint=eastwest;strokeColor=inherit;fontSize=16;" parent="GdlQhDkwiyZ--6wiS9G9-68" vertex="1">
          <mxGeometry y="60" width="160" height="20" as="geometry" />
        </mxCell>
        <mxCell id="GdlQhDkwiyZ--6wiS9G9-73" value="PK-FK" style="shape=partialRectangle;html=1;whiteSpace=wrap;connectable=0;fillColor=none;top=0;left=0;bottom=0;right=0;overflow=hidden;pointerEvents=1;strokeColor=inherit;fontSize=16;" parent="GdlQhDkwiyZ--6wiS9G9-72" vertex="1">
          <mxGeometry width="50" height="20" as="geometry">
            <mxRectangle width="50" height="20" as="alternateBounds" />
          </mxGeometry>
        </mxCell>
        <mxCell id="GdlQhDkwiyZ--6wiS9G9-74" value="&lt;span style=&quot;font-size: 12px; text-align: center;&quot;&gt;exam-id&lt;/span&gt;" style="shape=partialRectangle;html=1;whiteSpace=wrap;connectable=0;fillColor=none;top=0;left=0;bottom=0;right=0;align=left;spacingLeft=6;overflow=hidden;strokeColor=inherit;fontSize=16;" parent="GdlQhDkwiyZ--6wiS9G9-72" vertex="1">
          <mxGeometry x="50" width="110" height="20" as="geometry">
            <mxRectangle width="110" height="20" as="alternateBounds" />
          </mxGeometry>
        </mxCell>
        <mxCell id="GdlQhDkwiyZ--6wiS9G9-75" value="" style="shape=tableRow;horizontal=0;startSize=0;swimlaneHead=0;swimlaneBody=0;top=0;left=0;bottom=0;right=0;collapsible=0;dropTarget=0;fillColor=none;points=[[0,0.5],[1,0.5]];portConstraint=eastwest;strokeColor=inherit;fontSize=16;" parent="GdlQhDkwiyZ--6wiS9G9-68" vertex="1">
          <mxGeometry y="80" width="160" height="30" as="geometry" />
        </mxCell>
        <mxCell id="GdlQhDkwiyZ--6wiS9G9-76" value="" style="shape=partialRectangle;html=1;whiteSpace=wrap;connectable=0;fillColor=none;top=0;left=0;bottom=0;right=0;overflow=hidden;pointerEvents=1;strokeColor=inherit;fontSize=16;" parent="GdlQhDkwiyZ--6wiS9G9-75" vertex="1">
          <mxGeometry width="50" height="30" as="geometry">
            <mxRectangle width="50" height="30" as="alternateBounds" />
          </mxGeometry>
        </mxCell>
        <mxCell id="GdlQhDkwiyZ--6wiS9G9-77" value="&lt;span style=&quot;font-size: 12px; text-align: center;&quot;&gt;question-degree&lt;/span&gt;" style="shape=partialRectangle;html=1;whiteSpace=wrap;connectable=0;fillColor=none;top=0;left=0;bottom=0;right=0;align=left;spacingLeft=6;overflow=hidden;strokeColor=inherit;fontSize=16;" parent="GdlQhDkwiyZ--6wiS9G9-75" vertex="1">
          <mxGeometry x="50" width="110" height="30" as="geometry">
            <mxRectangle width="110" height="30" as="alternateBounds" />
          </mxGeometry>
        </mxCell>
        <mxCell id="GdlQhDkwiyZ--6wiS9G9-78" style="edgeStyle=orthogonalEdgeStyle;rounded=0;orthogonalLoop=1;jettySize=auto;html=1;entryX=1;entryY=0.5;entryDx=0;entryDy=0;" parent="1" source="GdlQhDkwiyZ--6wiS9G9-69" target="j4Dh2sjCp8QDIXTv8ryV-89" edge="1">
          <mxGeometry relative="1" as="geometry" />
        </mxCell>
        <mxCell id="GdlQhDkwiyZ--6wiS9G9-79" style="edgeStyle=orthogonalEdgeStyle;rounded=0;orthogonalLoop=1;jettySize=auto;html=1;entryX=0;entryY=0.5;entryDx=0;entryDy=0;" parent="1" source="GdlQhDkwiyZ--6wiS9G9-72" target="j4Dh2sjCp8QDIXTv8ryV-147" edge="1">
          <mxGeometry relative="1" as="geometry">
            <Array as="points">
              <mxPoint x="980" y="1310" />
              <mxPoint x="980" y="1220" />
              <mxPoint x="1380" y="1220" />
              <mxPoint x="1380" y="1245" />
            </Array>
          </mxGeometry>
        </mxCell>
        <mxCell id="GdlQhDkwiyZ--6wiS9G9-80" style="edgeStyle=orthogonalEdgeStyle;rounded=0;orthogonalLoop=1;jettySize=auto;html=1;" parent="1" source="GdlQhDkwiyZ--6wiS9G9-49" edge="1">
          <mxGeometry relative="1" as="geometry">
            <mxPoint x="1320" y="1493" as="targetPoint" />
            <Array as="points">
              <mxPoint x="1520" y="1685" />
              <mxPoint x="1520" y="1493" />
            </Array>
          </mxGeometry>
        </mxCell>
        <mxCell id="GdlQhDkwiyZ--6wiS9G9-97" value="" style="endArrow=none;html=1;rounded=0;entryX=0.5;entryY=0;entryDx=0;entryDy=0;exitX=1;exitY=0.5;exitDx=0;exitDy=0;" parent="1" source="WggwmU2v6ihtmMsBgbvI-107" target="iIM-NgGlBtSzI43fGDoz-82" edge="1">
          <mxGeometry width="50" height="50" relative="1" as="geometry">
            <mxPoint x="1130" y="840" as="sourcePoint" />
            <mxPoint x="1180" y="790" as="targetPoint" />
            <Array as="points">
              <mxPoint x="1260" y="780" />
            </Array>
          </mxGeometry>
        </mxCell>
        <mxCell id="GdlQhDkwiyZ--6wiS9G9-98" value="1" style="edgeLabel;html=1;align=center;verticalAlign=middle;resizable=0;points=[];" parent="GdlQhDkwiyZ--6wiS9G9-97" vertex="1" connectable="0">
          <mxGeometry x="-0.7324" y="1" relative="1" as="geometry">
            <mxPoint as="offset" />
          </mxGeometry>
        </mxCell>
        <mxCell id="GdlQhDkwiyZ--6wiS9G9-99" value="" style="endArrow=none;html=1;rounded=0;exitX=0.5;exitY=0;exitDx=0;exitDy=0;" parent="1" source="iIM-NgGlBtSzI43fGDoz-79" edge="1">
          <mxGeometry width="50" height="50" relative="1" as="geometry">
            <mxPoint x="1130" y="840" as="sourcePoint" />
            <mxPoint x="1095" y="800" as="targetPoint" />
          </mxGeometry>
        </mxCell>
        <mxCell id="GdlQhDkwiyZ--6wiS9G9-100" value="1" style="edgeLabel;html=1;align=center;verticalAlign=middle;resizable=0;points=[];" parent="GdlQhDkwiyZ--6wiS9G9-99" vertex="1" connectable="0">
          <mxGeometry x="0.1818" relative="1" as="geometry">
            <mxPoint as="offset" />
          </mxGeometry>
        </mxCell>
        <mxCell id="GdlQhDkwiyZ--6wiS9G9-101" value="" style="endArrow=none;html=1;rounded=0;entryX=0;entryY=1;entryDx=0;entryDy=0;exitX=0.5;exitY=0;exitDx=0;exitDy=0;" parent="1" source="iIM-NgGlBtSzI43fGDoz-85" target="WggwmU2v6ihtmMsBgbvI-107" edge="1">
          <mxGeometry width="50" height="50" relative="1" as="geometry">
            <mxPoint x="1040" y="870" as="sourcePoint" />
            <mxPoint x="1090" y="820" as="targetPoint" />
            <Array as="points">
              <mxPoint x="940" y="800" />
            </Array>
          </mxGeometry>
        </mxCell>
        <mxCell id="GdlQhDkwiyZ--6wiS9G9-102" value="1" style="edgeLabel;html=1;align=center;verticalAlign=middle;resizable=0;points=[];" parent="GdlQhDkwiyZ--6wiS9G9-101" vertex="1" connectable="0">
          <mxGeometry x="0.6242" relative="1" as="geometry">
            <mxPoint as="offset" />
          </mxGeometry>
        </mxCell>
        <mxCell id="GdlQhDkwiyZ--6wiS9G9-103" style="edgeStyle=orthogonalEdgeStyle;rounded=0;orthogonalLoop=1;jettySize=auto;html=1;entryX=0.003;entryY=0.763;entryDx=0;entryDy=0;entryPerimeter=0;" parent="1" source="GdlQhDkwiyZ--6wiS9G9-87" target="j4Dh2sjCp8QDIXTv8ryV-89" edge="1">
          <mxGeometry relative="1" as="geometry">
            <Array as="points">
              <mxPoint x="1260" y="1860" />
              <mxPoint x="1260" y="1580" />
              <mxPoint x="1140" y="1580" />
              <mxPoint x="1140" y="1493" />
            </Array>
          </mxGeometry>
        </mxCell>
        <mxCell id="GdlQhDkwiyZ--6wiS9G9-104" style="edgeStyle=orthogonalEdgeStyle;rounded=0;orthogonalLoop=1;jettySize=auto;html=1;exitX=0;exitY=0.5;exitDx=0;exitDy=0;entryX=0;entryY=0.5;entryDx=0;entryDy=0;" parent="1" source="VCJFvidc2O2gGUz1S3MP-3" target="j4Dh2sjCp8QDIXTv8ryV-89" edge="1">
          <mxGeometry relative="1" as="geometry" />
        </mxCell>
        <mxCell id="GdlQhDkwiyZ--6wiS9G9-105" style="edgeStyle=orthogonalEdgeStyle;rounded=0;orthogonalLoop=1;jettySize=auto;html=1;" parent="1" source="GdlQhDkwiyZ--6wiS9G9-94" edge="1">
          <mxGeometry relative="1" as="geometry">
            <mxPoint x="1160" y="1479" as="targetPoint" />
            <Array as="points">
              <mxPoint x="850" y="1740" />
              <mxPoint x="850" y="1479" />
            </Array>
          </mxGeometry>
        </mxCell>
        <mxCell id="GdlQhDkwiyZ--6wiS9G9-109" style="edgeStyle=orthogonalEdgeStyle;rounded=0;orthogonalLoop=1;jettySize=auto;html=1;entryX=0;entryY=0.5;entryDx=0;entryDy=0;" parent="1" source="GdlQhDkwiyZ--6wiS9G9-106" target="j4Dh2sjCp8QDIXTv8ryV-71" edge="1">
          <mxGeometry relative="1" as="geometry">
            <Array as="points">
              <mxPoint x="1470" y="1545" />
              <mxPoint x="1470" y="1805" />
            </Array>
          </mxGeometry>
        </mxCell>
        <mxCell id="GdlQhDkwiyZ--6wiS9G9-110" value="Instructor_Course" style="shape=table;startSize=30;container=1;collapsible=0;childLayout=tableLayout;fixedRows=1;rowLines=0;fontStyle=0;strokeColor=default;fontSize=16;" parent="1" vertex="1">
          <mxGeometry x="1720" y="2000" width="160" height="90" as="geometry" />
        </mxCell>
        <mxCell id="GdlQhDkwiyZ--6wiS9G9-111" value="" style="shape=tableRow;horizontal=0;startSize=0;swimlaneHead=0;swimlaneBody=0;top=0;left=0;bottom=0;right=0;collapsible=0;dropTarget=0;fillColor=none;points=[[0,0.5],[1,0.5]];portConstraint=eastwest;strokeColor=inherit;fontSize=16;" parent="GdlQhDkwiyZ--6wiS9G9-110" vertex="1">
          <mxGeometry y="30" width="160" height="30" as="geometry" />
        </mxCell>
        <mxCell id="GdlQhDkwiyZ--6wiS9G9-112" value="PK-FK" style="shape=partialRectangle;html=1;whiteSpace=wrap;connectable=0;fillColor=none;top=0;left=0;bottom=0;right=0;overflow=hidden;pointerEvents=1;strokeColor=inherit;fontSize=16;" parent="GdlQhDkwiyZ--6wiS9G9-111" vertex="1">
          <mxGeometry width="55" height="30" as="geometry">
            <mxRectangle width="55" height="30" as="alternateBounds" />
          </mxGeometry>
        </mxCell>
        <mxCell id="GdlQhDkwiyZ--6wiS9G9-113" value="&lt;span style=&quot;font-size: 12px;&quot;&gt;instructor-id&lt;/span&gt;" style="shape=partialRectangle;html=1;whiteSpace=wrap;connectable=0;fillColor=none;top=0;left=0;bottom=0;right=0;align=left;spacingLeft=6;overflow=hidden;strokeColor=inherit;fontSize=16;" parent="GdlQhDkwiyZ--6wiS9G9-111" vertex="1">
          <mxGeometry x="55" width="105" height="30" as="geometry">
            <mxRectangle width="105" height="30" as="alternateBounds" />
          </mxGeometry>
        </mxCell>
        <mxCell id="GdlQhDkwiyZ--6wiS9G9-114" value="" style="shape=tableRow;horizontal=0;startSize=0;swimlaneHead=0;swimlaneBody=0;top=0;left=0;bottom=0;right=0;collapsible=0;dropTarget=0;fillColor=none;points=[[0,0.5],[1,0.5]];portConstraint=eastwest;strokeColor=inherit;fontSize=16;" parent="GdlQhDkwiyZ--6wiS9G9-110" vertex="1">
          <mxGeometry y="60" width="160" height="30" as="geometry" />
        </mxCell>
        <mxCell id="GdlQhDkwiyZ--6wiS9G9-115" value="PK-FK" style="shape=partialRectangle;html=1;whiteSpace=wrap;connectable=0;fillColor=none;top=0;left=0;bottom=0;right=0;overflow=hidden;pointerEvents=1;strokeColor=inherit;fontSize=16;" parent="GdlQhDkwiyZ--6wiS9G9-114" vertex="1">
          <mxGeometry width="55" height="30" as="geometry">
            <mxRectangle width="55" height="30" as="alternateBounds" />
          </mxGeometry>
        </mxCell>
        <mxCell id="GdlQhDkwiyZ--6wiS9G9-116" value="&lt;span style=&quot;font-size: 12px; text-align: center;&quot;&gt;course-id&lt;/span&gt;" style="shape=partialRectangle;html=1;whiteSpace=wrap;connectable=0;fillColor=none;top=0;left=0;bottom=0;right=0;align=left;spacingLeft=6;overflow=hidden;strokeColor=inherit;fontSize=16;" parent="GdlQhDkwiyZ--6wiS9G9-114" vertex="1">
          <mxGeometry x="55" width="105" height="30" as="geometry">
            <mxRectangle width="105" height="30" as="alternateBounds" />
          </mxGeometry>
        </mxCell>
        <mxCell id="GdlQhDkwiyZ--6wiS9G9-117" style="edgeStyle=orthogonalEdgeStyle;rounded=0;orthogonalLoop=1;jettySize=auto;html=1;entryX=0;entryY=0.5;entryDx=0;entryDy=0;" parent="1" source="GdlQhDkwiyZ--6wiS9G9-111" target="j4Dh2sjCp8QDIXTv8ryV-36" edge="1">
          <mxGeometry relative="1" as="geometry">
            <Array as="points">
              <mxPoint x="1890" y="2045" />
              <mxPoint x="1890" y="1805" />
            </Array>
          </mxGeometry>
        </mxCell>
        <mxCell id="GdlQhDkwiyZ--6wiS9G9-118" style="edgeStyle=orthogonalEdgeStyle;rounded=0;orthogonalLoop=1;jettySize=auto;html=1;entryX=1;entryY=0.5;entryDx=0;entryDy=0;" parent="1" source="GdlQhDkwiyZ--6wiS9G9-114" target="j4Dh2sjCp8QDIXTv8ryV-71" edge="1">
          <mxGeometry relative="1" as="geometry" />
        </mxCell>
        <mxCell id="GdlQhDkwiyZ--6wiS9G9-124" value="" style="endArrow=none;html=1;rounded=0;exitX=0.5;exitY=0;exitDx=0;exitDy=0;entryX=1;entryY=0.75;entryDx=0;entryDy=0;" parent="1" source="iIM-NgGlBtSzI43fGDoz-32" target="WggwmU2v6ihtmMsBgbvI-87" edge="1">
          <mxGeometry width="50" height="50" relative="1" as="geometry">
            <mxPoint x="1250" y="350" as="sourcePoint" />
            <mxPoint x="1110" y="250" as="targetPoint" />
          </mxGeometry>
        </mxCell>
        <mxCell id="GdlQhDkwiyZ--6wiS9G9-125" value="1" style="edgeLabel;html=1;align=center;verticalAlign=middle;resizable=0;points=[];" parent="GdlQhDkwiyZ--6wiS9G9-124" vertex="1" connectable="0">
          <mxGeometry x="0.6286" y="1" relative="1" as="geometry">
            <mxPoint as="offset" />
          </mxGeometry>
        </mxCell>
        <mxCell id="oB9pb2-u7YMUF64o9EDQ-7" style="edgeStyle=orthogonalEdgeStyle;rounded=0;orthogonalLoop=1;jettySize=auto;html=1;entryX=0;entryY=0.5;entryDx=0;entryDy=0;" parent="1" source="GdlQhDkwiyZ--6wiS9G9-4" target="j4Dh2sjCp8QDIXTv8ryV-172" edge="1">
          <mxGeometry relative="1" as="geometry" />
        </mxCell>
        <mxCell id="oB9pb2-u7YMUF64o9EDQ-8" style="edgeStyle=orthogonalEdgeStyle;rounded=0;orthogonalLoop=1;jettySize=auto;html=1;entryX=-0.007;entryY=0.723;entryDx=0;entryDy=0;entryPerimeter=0;" parent="1" source="oB9pb2-u7YMUF64o9EDQ-4" target="j4Dh2sjCp8QDIXTv8ryV-196" edge="1">
          <mxGeometry relative="1" as="geometry">
            <mxPoint x="2090" y="1710" as="targetPoint" />
            <Array as="points">
              <mxPoint x="2090" y="1455" />
              <mxPoint x="2090" y="1685" />
              <mxPoint x="2150" y="1685" />
              <mxPoint x="2150" y="1692" />
            </Array>
          </mxGeometry>
        </mxCell>
        <mxCell id="oB9pb2-u7YMUF64o9EDQ-12" style="edgeStyle=orthogonalEdgeStyle;rounded=0;orthogonalLoop=1;jettySize=auto;html=1;entryX=1;entryY=0.5;entryDx=0;entryDy=0;exitX=0;exitY=0.5;exitDx=0;exitDy=0;" parent="1" source="oB9pb2-u7YMUF64o9EDQ-9" target="j4Dh2sjCp8QDIXTv8ryV-196" edge="1">
          <mxGeometry relative="1" as="geometry">
            <Array as="points">
              <mxPoint x="1500" y="1955" />
              <mxPoint x="1500" y="2150" />
              <mxPoint x="2430" y="2150" />
              <mxPoint x="2430" y="1685" />
            </Array>
          </mxGeometry>
        </mxCell>
        <mxCell id="a52f5ag9Y_fAlCAkWIK--4" style="edgeStyle=orthogonalEdgeStyle;rounded=0;orthogonalLoop=1;jettySize=auto;html=1;entryX=-0.007;entryY=0.733;entryDx=0;entryDy=0;entryPerimeter=0;" parent="1" source="a52f5ag9Y_fAlCAkWIK--1" target="j4Dh2sjCp8QDIXTv8ryV-183" edge="1">
          <mxGeometry relative="1" as="geometry">
            <mxPoint x="2060" y="1485" as="targetPoint" />
          </mxGeometry>
        </mxCell>
        <mxCell id="a52f5ag9Y_fAlCAkWIK--5" value="Exam_Student" style="shape=table;startSize=30;container=1;collapsible=0;childLayout=tableLayout;fixedRows=1;rowLines=0;fontStyle=0;strokeColor=default;fontSize=16;" parent="1" vertex="1">
          <mxGeometry x="1640" y="1240" width="145" height="80" as="geometry" />
        </mxCell>
        <mxCell id="a52f5ag9Y_fAlCAkWIK--6" value="" style="shape=tableRow;horizontal=0;startSize=0;swimlaneHead=0;swimlaneBody=0;top=0;left=0;bottom=0;right=0;collapsible=0;dropTarget=0;fillColor=none;points=[[0,0.5],[1,0.5]];portConstraint=eastwest;strokeColor=inherit;fontSize=16;" parent="a52f5ag9Y_fAlCAkWIK--5" vertex="1">
          <mxGeometry y="30" width="145" height="20" as="geometry" />
        </mxCell>
        <mxCell id="a52f5ag9Y_fAlCAkWIK--7" value="PK-FK" style="shape=partialRectangle;html=1;whiteSpace=wrap;connectable=0;fillColor=none;top=0;left=0;bottom=0;right=0;overflow=hidden;pointerEvents=1;strokeColor=inherit;fontSize=16;" parent="a52f5ag9Y_fAlCAkWIK--6" vertex="1">
          <mxGeometry width="55" height="20" as="geometry">
            <mxRectangle width="55" height="20" as="alternateBounds" />
          </mxGeometry>
        </mxCell>
        <mxCell id="a52f5ag9Y_fAlCAkWIK--8" value="&lt;span style=&quot;font-size: 12px;&quot;&gt;student-id&lt;/span&gt;" style="shape=partialRectangle;html=1;whiteSpace=wrap;connectable=0;fillColor=none;top=0;left=0;bottom=0;right=0;align=left;spacingLeft=6;overflow=hidden;strokeColor=inherit;fontSize=16;" parent="a52f5ag9Y_fAlCAkWIK--6" vertex="1">
          <mxGeometry x="55" width="90" height="20" as="geometry">
            <mxRectangle width="90" height="20" as="alternateBounds" />
          </mxGeometry>
        </mxCell>
        <mxCell id="a52f5ag9Y_fAlCAkWIK--9" value="" style="shape=tableRow;horizontal=0;startSize=0;swimlaneHead=0;swimlaneBody=0;top=0;left=0;bottom=0;right=0;collapsible=0;dropTarget=0;fillColor=none;points=[[0,0.5],[1,0.5]];portConstraint=eastwest;strokeColor=inherit;fontSize=16;" parent="a52f5ag9Y_fAlCAkWIK--5" vertex="1">
          <mxGeometry y="50" width="145" height="30" as="geometry" />
        </mxCell>
        <mxCell id="a52f5ag9Y_fAlCAkWIK--10" value="PK-FK" style="shape=partialRectangle;html=1;whiteSpace=wrap;connectable=0;fillColor=none;top=0;left=0;bottom=0;right=0;overflow=hidden;pointerEvents=1;strokeColor=inherit;fontSize=16;" parent="a52f5ag9Y_fAlCAkWIK--9" vertex="1">
          <mxGeometry width="55" height="30" as="geometry">
            <mxRectangle width="55" height="30" as="alternateBounds" />
          </mxGeometry>
        </mxCell>
        <mxCell id="a52f5ag9Y_fAlCAkWIK--11" value="&lt;span style=&quot;font-size: 12px; text-align: center;&quot;&gt;exam-id&lt;/span&gt;" style="shape=partialRectangle;html=1;whiteSpace=wrap;connectable=0;fillColor=none;top=0;left=0;bottom=0;right=0;align=left;spacingLeft=6;overflow=hidden;strokeColor=inherit;fontSize=16;" parent="a52f5ag9Y_fAlCAkWIK--9" vertex="1">
          <mxGeometry x="55" width="90" height="30" as="geometry">
            <mxRectangle width="90" height="30" as="alternateBounds" />
          </mxGeometry>
        </mxCell>
        <mxCell id="a52f5ag9Y_fAlCAkWIK--15" style="edgeStyle=orthogonalEdgeStyle;rounded=0;orthogonalLoop=1;jettySize=auto;html=1;entryX=-0.009;entryY=0.819;entryDx=0;entryDy=0;entryPerimeter=0;" parent="1" source="a52f5ag9Y_fAlCAkWIK--5" target="j4Dh2sjCp8QDIXTv8ryV-16" edge="1">
          <mxGeometry relative="1" as="geometry" />
        </mxCell>
        <mxCell id="a52f5ag9Y_fAlCAkWIK--16" style="edgeStyle=orthogonalEdgeStyle;rounded=0;orthogonalLoop=1;jettySize=auto;html=1;entryX=0.992;entryY=0.248;entryDx=0;entryDy=0;entryPerimeter=0;" parent="1" source="a52f5ag9Y_fAlCAkWIK--9" target="j4Dh2sjCp8QDIXTv8ryV-147" edge="1">
          <mxGeometry relative="1" as="geometry" />
        </mxCell>
      </root>
    </mxGraphModel>
  </diagram>
</mxfile>
